<?xml version="1.0" encoding="UTF-8"?><svg id="games" xmlns="http://www.w3.org/2000/svg" xmlns:xlink="http://www.w3.org/1999/xlink" viewBox="0 0 970 300"><defs><style>.cls-1,.cls-2{stroke:#231f20;stroke-miterlimit:10;stroke-width:.3px;}.cls-3{clip-path:url(#clippath-2);}.cls-4{isolation:isolate;}.cls-5{stroke:#000;stroke-linecap:round;stroke-linejoin:round;}.cls-5,.cls-2{fill:none;}.cls-6{clip-path:url(#clippath-1);}.cls-7{clip-path:url(#clippath);}.cls-8{clip-path:url(#clippath-3);}</style><clipPath id="clippath"><path class="cls-2" d="M517.86,25.48c1.09,.63,2.55,1.48,3.59,2.2,1.65,1.13,3.81,2.71,5.37,3.96,2.15,1.71,4.73,4.33,6.64,6.3,1.25,1.3,2.8,3.15,3.83,4.63,.96,1.37,2.26,3.18,3.15,4.59,.77,1.22,1.72,2.9,2.38,4.18,.75,1.45,1.67,3.43,2.3,4.94,.57,1.35,1.19,3.22,1.7,4.59,.57,1.53,1.14,3.64,1.46,5.24,.59,2.96,1.25,6.94,1.47,9.95,.2,2.83,.26,6.63-.08,9.45-.2,1.64-.35,3.85-.7,5.46-.31,1.46-.67,3.43-1.04,4.87-.41,1.57-.98,3.67-1.57,5.18-.53,1.36-1.2,3.2-1.79,4.53-.66,1.48-1.62,3.43-2.4,4.85-2.69,4.9-5.63,8.53-5.66,8.56-1.76,2.13-4.19,4.92-6.2,6.82-.41,.39-4.11,3.84-7.61,6.18-1.44,.96-3.39,2.18-4.89,3.06-.95,.56-2.25,1.24-3.24,1.71-2.64,1.24-5.64,2.65-10.64,4.05-8.04,2.25-16.27,2.88-24.46,1.88-4.12-.5-8.2-1.42-12.14-2.72-2.01-.66-3.34-1.16-6.38-2.51-1.5-.67-3.43-1.7-4.87-2.49,8.86,5.03,19.46,7.23,30.84,5.7-11.38,1.53-21.98-.67-30.84-5.7-2.19-1.34-5.12-3.13-7.13-4.72-1.39-1.1-3.21-2.61-4.53-3.8-1.03-.93-2.35-2.23-3.28-3.26-1.16-1.28-2.66-3.02-3.73-4.37-.88-1.12-1.98-2.67-2.77-3.85-1.95-2.94-3.54-5.81-4.99-9.05-.67-1.49-1.46-3.51-2-5.05-.49-1.4-1-3.3-1.43-4.72-.48-1.57-.93-3.72-1.14-5.34-.19-1.5-.51-3.5-.64-5.01-.14-1.67-.23-3.9-.24-5.58,0-3.05,.38-7.12,.84-10.14,.29-1.92,.81-4.46,1.38-6.31,1.24-4.03,2.05-6.69,3.51-9.65,.64-1.3,1.48-3.04,2.19-4.3,.79-1.4,1.9-3.23,2.8-4.56,1.94-2.87,4-5.46,6.31-7.92,2.67-2.83,5.05-4.93,7.47-6.8,1.01-.78,2.39-1.8,3.46-2.5,1.45-.95,3.44-2.14,4.95-3.01,2.37-1.37,6.46-3.09,7.11-3.34,1.9-.72,4.78-1.81,9.06-2.79,7.52-1.73,15.18-2.03,22.77-.9,5.34,.79,9.4,2.11,10.52,2.5,2.65,.92,3.28,1.13,6.4,2.52,1.51,.67,3.47,1.68,4.9,2.51Z"/></clipPath><clipPath id="clippath-1"><path class="cls-2" d="M549.88,80.38c.03,1.68-.04,3.92-.26,5.58-.2,1.5-.39,3.51-.66,5.01-.28,1.62-.75,3.76-1.17,5.35-.38,1.43-.95,3.32-1.45,4.71-.55,1.54-1.41,3.55-2.03,5.06-.63,1.56-1.69,3.55-2.54,5-1.44,2.45-3.59,5.59-5.28,7.88-1.03,1.4-2.55,3.17-3.79,4.4-.98,.97-2.24,2.3-3.26,3.21-1.44,1.28-3.42,2.91-4.94,4.09-2.34,1.81-4.67,3.17-7.14,4.61-1.87,1.09-4.48,2.34-6.5,3.13-1.32,.51-3.09,1.19-4.44,1.63s-3.21,.95-4.6,1.3c-3.49,.89-6.84,1.28-8.09,1.43-.98,.11-3.64,.38-7.19,.36-4.15-.02-7.54-.51-8.66-.67-3.43-.49-6.06-1.2-7.98-1.71-.76-.2-3.53-.99-7.4-2.62-1.99-.83-4.53-2.18-6.43-3.18-15.36-8.72-25.5-25.97-25.46-47.07,.06-33.28,25.42-63.76,56.53-68.21-31.11,4.45-56.46,34.93-56.53,68.21-.04,21.1,10.1,38.34,25.46,47.07-1.49-.87-3.49-2.04-4.88-3.08-1.04-.78-2.46-1.77-3.47-2.59-1.26-1.03-2.96-2.42-4.1-3.59-.97-.99-2.3-2.28-3.23-3.32-1.08-1.2-2.46-2.86-3.44-4.14-3.28-4.32-5.23-8.07-5.44-8.49-1.26-2.47-2.57-5.03-4.04-9.35-.96-2.82-1.86-6.69-2.42-9.62-.31-1.62-.54-3.82-.68-5.46-.13-1.53-.15-3.59-.2-5.12-.06-1.99,.12-4.65,.36-6.62,.55-4.5,1.03-6.89,1.99-10.3q.99-3.54,3.63-9.71c.57-1.33,1.5-3.03,2.22-4.28,.83-1.44,2.06-3.3,2.96-4.7,.96-1.5,2.46-3.37,3.61-4.73,1.78-2.1,4.32-4.77,6.39-6.57,1.47-1.28,3.5-2.89,5.06-4.06,1.02-.76,2.45-1.67,3.52-2.36,.03-.02,3.89-2.41,7.07-3.82,2.44-1.08,4.96-2.19,9.22-3.39,9.08-2.55,18.37-3.02,27.59-1.39,6.87,1.21,11.75,3.27,13.59,4.05,5.8,2.44,10.62,5.69,11.99,6.73,1.33,1.01,3.15,2.3,4.38,3.43,1.01,.93,2.4,2.12,3.36,3.09,1.15,1.15,2.63,2.74,3.69,3.97,1.44,1.67,5.13,6.23,8.25,12.35,1.91,3.75,3.73,8.15,5.18,14.24,.64,2.7,1.1,6.39,1.41,9.15,.17,1.53,.17,3.59,.2,5.12Z"/></clipPath><clipPath id="clippath-2"><path class="cls-2" d="M455.81,135.03c8.93,5.07,19.62,7.25,31.11,5.61-11.49,1.64-22.18-.54-31.11-5.61-1.71-1.02-4-2.37-5.59-3.58-1.33-1.01-3.11-2.37-4.39-3.45-1.05-.89-2.42-2.11-3.36-3.11-1.12-1.18-2.63-2.75-3.68-3.99-.92-1.08-2.09-2.58-2.92-3.73-1.4-1.94-3.27-4.67-5.29-8.71-.72-1.44-1.6-3.4-2.2-4.89-.55-1.37-1.19-3.24-1.64-4.64-.81-2.51-1.62-5.96-2.01-8.57-.45-3.03-.82-7.12-.8-10.19,.02-4.29,.25-5.89,.92-10.63,0-.04,.67-4.51,2.62-10.1,.54-1.55,1.37-3.58,2.04-5.08,.59-1.33,1.52-3.04,2.17-4.34,.75-1.49,1.97-3.36,2.89-4.76,.79-1.19,1.95-2.69,2.79-3.84,1.03-1.41,2.61-3.14,3.8-4.42,.94-1.01,2.25-2.31,3.28-3.23,1.44-1.29,3.44-2.92,4.97-4.11,2.35-1.82,4.8-3.25,7.17-4.63,1.88-1.09,4.5-2.35,6.53-3.14,1.33-.52,3.11-1.19,4.46-1.63s3.22-.97,4.62-1.31c7.82-1.91,14.06-1.89,18.08-1.71,.9,.04,3.06,.21,4.4,.38,2.28,.29,2.77,.39,5.17,.85,1.81,.35,5.35,1.28,7.54,2.06,1.81,.65,4.55,1.62,7.54,3.14,3.29,1.67,6.02,3.28,8.13,4.8,2.13,1.54,4.55,3.28,7.6,6.21,3.14,3.01,5.37,5.73,6.7,7.49,1.53,2.04,3.38,4.64,5.46,8.53,1.38,2.58,2.86,6.21,3.91,8.94,.58,1.52,1.15,3.62,1.56,5.2,.37,1.46,.72,3.43,1.03,4.9,.34,1.62,.55,3.83,.68,5.49,.14,1.79,.29,4.18,.19,5.98-.08,1.54-.13,3.6-.28,5.13-.17,1.66-.41,3.88-.78,5.51-.33,1.46-.71,3.43-1.11,4.87-.44,1.6-1.11,3.72-1.68,5.28-1.92,5.22-4.19,9.1-4.45,9.53-1.46,2.45-3.63,5.59-5.34,7.87-1.05,1.4-2.68,3.1-3.85,4.41-.92,1.02-2.25,2.29-3.29,3.19-1.47,1.28-3.5,2.9-5.04,4.1-1.2,.93-2.89,2.05-4.2,2.82-1.88,1.11-4.45,2.49-6.41,3.45-2.05,1-5.88,2.52-9.43,3.49-1.58,.43-6.37,1.74-12.02,2.17-3.08,.24-7.35,.42-12.98-.26-6.17-.74-10.78-2.26-12.76-2.91-1.31-.43-3.03-1.08-4.28-1.64-1.97-.89-4.54-2.18-6.45-3.19Z"/></clipPath><clipPath id="clippath-3"><path class="cls-2" d="M495.57,142.67c-4.66,.62-8.52,.61-10.41,.54-5.28-.18-8.46-.79-11.01-1.28-1.01-.19-3.14-.7-4.49-1.1-1.59-.46-3.69-1.16-5.25-1.74-1.14-.43-2.64-1.05-3.74-1.57-1.48-.7-3.42-1.7-4.86-2.49-15.35-8.72-25.47-25.99-25.43-47.13,.06-33.42,25.53-64.04,56.77-68.24-31.24,4.2-56.71,34.82-56.77,68.24-.04,21.14,10.09,38.41,25.43,47.13-1.08-.66-2.55-1.48-3.59-2.2-1.66-1.14-3.83-2.73-5.41-4-2.15-1.72-4.73-4.35-6.63-6.33-1.25-1.31-2.8-3.17-3.83-4.66-.95-1.38-2.25-3.2-3.14-4.63-.77-1.23-1.75-2.9-2.37-4.21-.71-1.48-1.66-3.45-2.29-4.97-.56-1.36-1.23-3.22-1.68-4.62-.5-1.56-1.07-3.68-1.43-5.28-.34-1.47-.67-3.46-.9-4.95-.42-2.68-.66-6.3-.62-9.01,.03-3.07,.41-7.15,.84-10.18,.75-5.25,3.06-12.13,4.5-15.1q2.86-5.89,4.87-8.98c2.77-4.25,5.19-6.91,6.22-8.04,3.41-3.75,6.21-5.98,7.4-6.93,1.01-.81,2.39-1.85,3.46-2.58,1.44-.97,3.41-2.19,4.91-3.07,2.61-1.55,6.94-3.38,6.98-3.39,1.38-.54,3.23-1.24,4.65-1.69s3.22-.95,4.61-1.29c3.2-.77,6.32-1.28,9.53-1.54,4.74-.39,8.27-.14,9.78-.04,4.3,.3,10.97,1.26,18.35,4.17,1.02,.4,4.13,1.63,8.11,3.87,2.24,1.27,5.16,3.12,7.16,4.74,1.39,1.12,3.23,2.63,4.55,3.82,1.03,.93,2.34,2.25,3.29,3.27,1.18,1.26,2.68,3.03,3.75,4.39,.89,1.12,1.96,2.7,2.79,3.87,.11,.15,2.63,3.76,5.01,9.09q1.52,3.4,3.45,9.81c.94,3.13,2.14,10.39,2.03,16-.06,3.07-.45,7.14-.84,10.18-.22,1.73-.71,4.01-1.21,5.68q-1.9,6.31-3.43,9.73c-2.07,4.64-4.14,7.77-4.92,8.94-.91,1.38-2.18,3.21-3.25,4.48-1.78,2.12-4.27,4.85-6.25,6.78-1.19,1.16-2.89,2.59-4.2,3.61-1.52,1.18-3.61,2.68-5.24,3.7-1.86,1.17-4.42,2.58-6.39,3.54-2.65,1.29-4.8,2.07-6.22,2.59-.99,.36-6.24,2.19-12.64,3.05Z"/></clipPath></defs><g><path class="cls-5" d="M216.8,166.68H757.58l98.39,98.19H118.4c32.8-32.73,65.59-65.46,98.39-98.19Z"/><path class="cls-5" d="M132.74,250.56c63.1,0,127.57-3.77,190.52,.9,54.96,4.08,108.61,21.24,163.93,21.24s108.98-17.16,163.93-21.24c62.92-4.67,127.45-.9,190.52-.9"/><path class="cls-5" d="M145.99,237.33c61.52,0,128.73-7.42,189.53,2.76,51.15,8.56,99.04,33.3,151.66,33.18,52.67-.12,100.44-24.61,151.66-33.18,60.81-10.18,128.04-2.76,189.53-2.76"/><path class="cls-5" d="M158.3,225.05h99.75c25.81,0,51.88-1.87,77.03,4.98,50.97,13.88,97.61,53.53,152.11,53.18,54.72-.35,100.86-39.22,152.11-53.18,25.1-6.84,51.28-4.98,77.03-4.98h99.75"/><path class="cls-5" d="M169.74,213.63h93.13c26.82,0,51.81-1.27,77.47,7.79,48.24,17.02,93.36,61.02,146.84,60.62,51.42-.39,94.92-40.17,140.65-58.38,52.71-21,121.08-10.02,176.8-10.02"/><path class="cls-5" d="M180.42,202.98c51.97,0,111.34-7.93,161.83,6.03,48.42,13.38,93.35,44.75,144.94,44.75,49.36,0,92.86-28.96,138.85-42.88,52.46-15.87,113.67-7.9,167.92-7.9"/><path class="cls-5" d="M190.4,193.01c53.44,0,110.14-5.65,162.6,6.21,44.66,10.1,87.75,28.73,134.19,28.73s89.54-18.64,134.19-28.73c52.4-11.85,109.22-6.21,162.6-6.21"/><path class="cls-5" d="M199.75,183.68c51.36,0,103.67-3.25,154.47,5.5,44.03,7.58,87.94,21.55,132.96,21.7,42.85,.14,85.07-12.94,126.87-20.64,52.88-9.74,107.04-6.56,160.57-6.56"/><path class="cls-5" d="M208.54,174.92c49.88,0,99.99-1.53,149.78,1.96,42.99,3.02,85.73,7.9,128.88,7.89,43.15,0,85.88-4.87,128.88-7.89,49.78-3.5,99.9-1.96,149.78-1.96"/><path class="cls-5" d="M735.95,166.68c30.17,32.73,60.35,65.46,90.52,98.19"/><path class="cls-5" d="M714.32,166.68c27.55,32.73,55.1,65.46,82.65,98.19"/><path class="cls-5" d="M692.68,166.68c24.93,32.73,49.85,65.46,74.78,98.19"/><path class="cls-5" d="M671.05,166.67c22.3,32.73,44.6,65.46,66.91,98.19"/><path class="cls-5" d="M649.42,166.62c19.2,33.02,39.35,65.51,59.04,98.24"/><path class="cls-5" d="M627.79,166.62c15.1,33.79,34.08,65.45,51.16,98.25"/><path class="cls-5" d="M606.16,166.64c11.34,35.31,27.2,65.23,43.29,98.16"/><path class="cls-5" d="M584.53,166.69c4.71,21.18,7.38,51.11,17.71,70.21,5.08,9.39,12.64,17.77,17.71,27.91"/><path class="cls-5" d="M562.9,166.74c2.01,15.57,4.48,31.07,7.4,46.5,1.8,12.95,3.92,25.85,6.37,38.7,1.94,3.3,10.52,9.73,13.77,12.92"/><path class="cls-5" d="M541.27,166.78c3.05,33.03,6.33,66.04,9.84,99.02,2.1,0,3.62-1.02,4.55-3.04,1.18,2.37,2.94,3.1,5.29,2.18"/><path class="cls-5" d="M519.63,166.79c1.86,36.81,3.84,73.62,5.9,110.41,1.97-5.02,3.42-8,5.9-12.23"/><path class="cls-5" d="M498,166.76c.62,39.07,1.29,78.13,1.97,117.2,.47-6.38,1.23-12.68,1.97-19.01"/><path class="cls-5" d="M476.37,166.76c-.62,39.07-1.29,78.13-1.97,117.2-.47-6.38-1.23-12.68-1.97-19.01"/><path class="cls-5" d="M454.74,166.79c-1.86,36.81-3.84,73.62-5.9,110.41-1.97-5.02-3.42-8-5.9-12.23"/><path class="cls-5" d="M433.11,166.78c-3.05,33.03-6.33,66.04-9.84,99.02-2.1,0-3.62-1.02-4.55-3.04-1.18,2.37-2.94,3.1-5.29,2.18"/><path class="cls-5" d="M411.48,166.74c-2.01,15.57-4.48,31.07-7.4,46.5-1.8,12.95-3.92,25.85-6.37,38.7-1.94,3.3-10.52,9.73-13.77,12.92"/><path class="cls-5" d="M389.85,166.69c-4.75,21.39-7.75,50.32-17.71,70.21-4.68,9.34-12.6,18.04-17.71,27.91"/><path class="cls-5" d="M368.22,166.64c-11.38,35.44-27.14,65.1-43.29,98.16"/><path class="cls-5" d="M346.58,166.62c-15.11,33.81-34.07,65.44-51.16,98.25"/><path class="cls-5" d="M324.95,166.62c-19.2,33.01-39.35,65.51-59.04,98.24"/><path class="cls-5" d="M303.32,166.67c-22.3,32.73-44.6,65.46-66.91,98.19"/><path class="cls-5" d="M281.69,166.68c-24.93,32.73-49.85,65.46-74.78,98.19"/><path class="cls-5" d="M260.06,166.68c-27.55,32.73-55.1,65.46-82.65,98.19"/><path class="cls-5" d="M238.43,166.68c-30.17,32.73-60.35,65.46-90.52,98.19"/></g><g class="cls-4"><g class="cls-4"><g class="cls-7"><g class="cls-4"><g><path class="cls-1" d="M487.54,97.86c-23.4,0-46-3.64-56.98-9.88l-.07-.04v-.08c.06-33.23,25.47-63.89,56.64-68.34h.05l.04,.02c15.29,8.95,27.68,43.25,27.62,76.46v.12l-.12,.02c-8.75,1.18-18.03,1.73-27.18,1.73Zm-56.77-10.08c15.26,8.61,52.79,12.24,83.8,8.09,.03-33.05-12.26-67.14-27.44-76.08-31,4.46-56.26,34.94-56.36,67.99Z"/><path class="cls-1" d="M487.39,37.03c-11.82,0-23.23-1.84-28.77-4.99l.13-.24c7.67,4.36,26.65,6.19,42.32,4.08l.04,.27c-4.42,.59-9.09,.87-13.71,.87Z"/><path class="cls-1" d="M487.53,65.03c-20.21,0-39.72-3.14-49.2-8.53l.13-.24c13.15,7.47,45.67,10.61,72.49,7l.04,.27c-7.56,1.02-15.57,1.5-23.47,1.5Z"/><path class="cls-1" d="M452.43,94.76h-.27c.06-33.21,15.74-66.96,34.94-75.23l.11,.25c-19.12,8.23-34.72,41.87-34.78,74.98Z"/><path class="cls-1" d="M482.59,97.67h-.27c.06-33.17,2.17-68.19,4.7-78.06l.26,.07c-2.53,9.85-4.63,44.83-4.7,77.99Z"/></g><g><path class="cls-1" d="M514.56,96.15v-.16c.06-33.12-12.27-67.31-27.48-76.22l-.35-.2,.4-.05c14.52-1.83,28.31,2.29,38.83,11.59,11.38,10.05,17.63,24.79,17.62,41.51,4.73,2.7,6.92,5.72,6.34,8.72-1.24,6.37-14.73,12.04-35.21,14.8l-.15,.02Zm-27-76.41c15.11,9.25,27.3,43.19,27.27,76.09,20.27-2.75,33.61-8.32,34.82-14.56,.56-2.89-1.61-5.82-6.27-8.47l-.07-.04v-.08c.03-16.67-6.19-31.37-17.53-41.38-10.37-9.16-23.93-13.27-38.22-11.57Z"/><path class="cls-1" d="M501.11,36.15l-.04-.27c10.24-1.38,16.98-4.17,17.58-7.3,.28-1.43-.81-2.88-3.13-4.2l.13-.24c2.44,1.38,3.57,2.94,3.26,4.49-.63,3.24-7.45,6.12-17.81,7.52Z"/><path class="cls-1" d="M510.99,63.53l-.04-.27c17.57-2.36,29.13-7.18,30.18-12.57,.48-2.49-1.39-5.01-5.41-7.29l.13-.24c4.13,2.35,6.05,4.97,5.54,7.58-1.07,5.51-12.72,10.41-30.41,12.79Z"/><path class="cls-1" d="M539.53,90.02h-.27c.06-33.1-23.33-64.61-52.14-70.23l.05-.27c28.93,5.65,52.42,37.27,52.35,70.5Z"/><path class="cls-1" d="M549.85,81.66h-.27c.06-33.09-27.94-60.84-62.43-61.87v-.27c34.64,1.03,62.76,28.9,62.7,62.14Z"/></g><g><path class="cls-1" d="M543.59,72.92l-.2-.12c-15.23-8.65-52.91-12.29-83.99-8.11l-.15,.02v-.16c.04-22.48,5.78-39.81,14.98-45.24,3.97-2.34,8.45-2.28,12.95,.19,14.5-1.82,28.27,2.3,38.79,11.59,11.39,10.07,17.65,24.84,17.62,41.58v.23Zm-57.04-10.23c23.26,0,45.72,3.6,56.77,9.77-.03-16.57-6.25-31.18-17.53-41.15-10.47-9.25-24.19-13.34-38.62-11.52h-.04l-.04-.02c-4.49-2.47-8.77-2.54-12.72-.21-9.1,5.36-14.78,22.54-14.85,44.84,8.71-1.16,17.93-1.71,27.03-1.71Z"/><path class="cls-1" d="M515.52,24.39c-7.67-4.36-26.66-6.19-42.32-4.08l-.04-.27c15.71-2.11,34.77-.27,42.49,4.12l-.13,.24Z"/><path class="cls-1" d="M535.73,43.4c-13.15-7.47-45.67-10.61-72.49-7l-.04-.27c26.88-3.61,59.47-.46,72.66,7.03l-.13,.24Z"/><path class="cls-1" d="M521.93,65.79h-.27c.04-20.87-6.03-37.45-16.24-44.36-5.45-3.69-11.74-4.26-18.21-1.65l-.1-.25c6.55-2.64,12.94-2.06,18.46,1.68,10.28,6.96,16.4,23.63,16.36,44.59Z"/><path class="cls-1" d="M491.76,62.88h-.27c.05-29.55-1.51-45.22-3.08-45.44-.15-.03-.56,.16-1.13,2.25l-.26-.07c.47-1.73,.91-2.51,1.43-2.45,2.51,.34,3.35,24.83,3.31,45.71Z"/></g><g><path class="cls-1" d="M430.76,88.1l-.2-.12c-4.78-2.71-6.99-5.74-6.41-8.76,.55-2.83,3.52-5.53,8.45-7.89,4.95-19.4,18.15-36.34,35.13-45.39,1.9-2.95,4.08-5.2,6.5-6.62,3.99-2.35,8.48-2.28,12.99,.21l.36,.2-.4,.06c-6.76,.97-13.25,3.17-19.26,6.37-5.27,8.22-8.37,21.92-8.4,38.4v.12l-.12,.02c-11.29,1.52-20.44,3.91-26.56,6.81-1.35,5.31-2.07,10.8-2.08,16.36v.23Zm1.76-16.44c-4.73,2.29-7.57,4.89-8.1,7.62-.55,2.85,1.55,5.74,6.07,8.35,.03-5.43,.73-10.79,2.03-15.97Zm34.91-45.24c-16.64,9.03-29.58,25.69-34.51,44.77,6.13-2.87,15.19-5.24,26.32-6.74,.04-16.21,3.06-29.73,8.19-38.03Zm12.9-8.55c-2.06,0-4.05,.57-5.97,1.7-2.27,1.34-4.33,3.42-6.14,6.13,5.8-3.03,12.02-5.13,18.5-6.11-2.18-1.14-4.32-1.71-6.39-1.71Z"/><path class="cls-1" d="M458.62,32.04c-2.44-1.38-3.57-2.94-3.26-4.49,.63-3.24,7.45-6.12,17.81-7.52l.04,.27c-10.24,1.38-16.98,4.17-17.58,7.3-.28,1.43,.81,2.88,3.13,4.2l-.13,.24Z"/><path class="cls-1" d="M438.33,56.49c-4.13-2.35-6.05-4.97-5.54-7.58,1.07-5.51,12.72-10.41,30.41-12.79l.04,.27c-17.57,2.36-29.13,7.18-30.18,12.57-.48,2.49,1.39,5.01,5.41,7.29l-.13,.24Z"/><path class="cls-1" d="M434.82,70.53h-.27c.03-17.27,6.53-32.59,17.82-42.05,9.62-8.05,21.98-11.24,34.81-8.97l-.05,.27c-12.75-2.26-25.03,.91-34.59,8.91-11.23,9.4-17.69,24.65-17.72,41.84Z"/><path class="cls-1" d="M424.5,78.89h-.27c.03-15.64,6.26-30.37,17.55-41.48,11.99-11.79,28.09-18.16,45.37-17.9v.27c-.33,0-.65,0-.98,0-16.83,0-32.49,6.31-44.2,17.83-11.24,11.06-17.44,25.72-17.47,41.28Z"/></g><g><path class="cls-1" d="M493.9,142.78c-2.28,0-4.64-.67-7-2-14.44,1.93-28.19-2.08-38.71-11.29-5.55-4.86-9.91-10.88-12.96-17.91-3.16-7.27-4.76-15.25-4.74-23.71v-.23l.2,.12c15.23,8.65,52.91,12.29,83.99,8.11l.15-.02v.16c-.04,22.5-5.78,39.8-14.97,45.14-1.89,1.1-3.9,1.65-5.96,1.65Zm-6.95-2.29l.04,.02c4.49,2.55,8.78,2.68,12.73,.38,9.09-5.28,14.77-22.42,14.84-44.75-30.96,4.14-68.42,.53-83.8-8.05,.03,16.4,6.44,31.39,17.61,41.18,10.47,9.17,24.16,13.16,38.54,11.22h.05Z"/><path class="cls-1" d="M487.41,125.92c-20.21,0-39.72-3.15-49.2-8.53l.13-.24c13.15,7.47,45.67,10.61,72.49,7l.04,.27c-7.56,1.02-15.56,1.5-23.47,1.5Z"/><path class="cls-1" d="M487.2,141.32c-11.82,0-23.23-1.84-28.77-4.99l.13-.24c7.67,4.36,26.65,6.19,42.31,4.08l.04,.27c-4.42,.59-9.1,.87-13.71,.87Z"/><path class="cls-1" d="M478.82,142.49c-3.63,0-7.1-1.07-10.29-3.2-10.29-6.88-16.42-23.52-16.38-44.53h.27c-.04,20.91,6.04,37.47,16.26,44.3,5.45,3.64,11.74,4.14,18.19,1.45l.1,.25c-2.76,1.15-5.5,1.73-8.16,1.73Z"/><path class="cls-1" d="M485.66,143.23s-.04,0-.06,0c-2.49-.32-3.33-24.74-3.29-45.56h.27c-.05,29.46,1.49,45.08,3.05,45.29h.02c.17,0,.58-.26,1.13-2.36l.26,.07c-.46,1.75-.91,2.57-1.4,2.57Z"/></g><g><path class="cls-1" d="M493.9,142.78c-2.3,0-4.67-.68-7.04-2.03l-.35-.2,.4-.05c6.79-.91,13.3-3.08,19.34-6.26,5.22-8.19,8.28-21.82,8.31-38.25v-.12l.12-.02c11.29-1.52,20.45-3.91,26.57-6.81,1.34-5.3,2.06-10.79,2.07-16.35v-.23l.2,.12c4.78,2.71,6.99,5.74,6.41,8.76-.55,2.83-3.52,5.52-8.44,7.88-4.93,19.41-18.11,36.29-35.05,45.24-1.92,2.99-4.12,5.26-6.57,6.68-1.89,1.1-3.9,1.65-5.96,1.65Zm-6.55-2.07c4.36,2.36,8.52,2.42,12.38,.18,2.3-1.34,4.39-3.44,6.22-6.19-5.82,3.01-12.08,5.09-18.6,6.01Zm27.49-44.6c-.04,16.15-3.03,29.61-8.11,37.87,16.62-8.93,29.53-25.53,34.44-44.62-6.14,2.87-15.2,5.24-26.33,6.75Zm28.75-23.19c-.03,5.43-.73,10.79-2.02,15.97,4.72-2.29,7.56-4.89,8.09-7.61,.55-2.85-1.55-5.74-6.07-8.35Z"/><path class="cls-1" d="M510.88,124.42l-.04-.27c17.57-2.36,29.13-7.18,30.18-12.57,.48-2.49-1.39-5.01-5.41-7.29l.13-.24c4.13,2.35,6.05,4.97,5.54,7.58-1.07,5.51-12.72,10.41-30.41,12.79Z"/><path class="cls-1" d="M500.91,140.44l-.04-.27c10.24-1.38,16.98-4.17,17.58-7.3,.28-1.43-.81-2.88-3.13-4.2l.13-.24c2.44,1.38,3.57,2.94,3.26,4.49-.63,3.24-7.45,6.12-17.81,7.52Z"/><path class="cls-1" d="M495.26,141.55c-2.75,0-5.54-.26-8.35-.78l.05-.27c12.7,2.36,24.96-.7,34.52-8.63,11.27-9.35,17.76-24.61,17.79-41.85h.27c-.03,17.33-6.55,32.66-17.89,42.06-7.5,6.22-16.66,9.47-26.39,9.47Z"/><path class="cls-1" d="M488.4,140.79c-.49,0-.98,0-1.48-.02v-.27c.5,.01,.99,.02,1.48,.02,16.57,0,32-6.18,43.6-17.5,11.31-11.04,17.55-25.72,17.58-41.35h.27c-.03,15.7-6.3,30.46-17.66,41.55-11.64,11.37-27.15,17.58-43.79,17.58Z"/></g><g><path class="cls-1" d="M486.9,140.77l-.04-.02c-15.29-8.69-27.68-42.87-27.62-76.19v-.12l.12-.02c31.13-4.19,68.89-.53,84.16,8.15l.07,.04v.08c-.06,33.35-25.47,63.89-56.64,68.08h-.05Zm-27.39-76.09c-.03,33.17,12.26,67.14,27.44,75.81,30.99-4.19,56.26-34.55,56.36-67.72-15.26-8.61-52.79-12.24-83.8-8.09Z"/><path class="cls-1" d="M535.62,104.29c-13.15-7.47-45.67-10.61-72.49-7l-.04-.27c26.88-3.61,59.48-.46,72.67,7.03l-.13,.24Z"/><path class="cls-1" d="M515.33,128.67c-7.67-4.36-26.65-6.19-42.31-4.08l-.04-.27c15.71-2.11,34.77-.27,42.49,4.12l-.13,.24Z"/><path class="cls-1" d="M486.98,140.76l-.1-.25c19.11-7.97,34.72-41.48,34.78-74.71h.27c-.06,33.33-15.74,66.96-34.95,74.97Z"/><path class="cls-1" d="M487.06,140.67l-.26-.07c2.53-9.58,4.63-44.45,4.7-77.72h.27c-.06,33.29-2.17,68.19-4.7,77.79Z"/></g><g><path class="cls-1" d="M479.85,141.25c-11.83,0-22.87-4.07-31.66-11.77-5.55-4.86-9.91-10.88-12.96-17.91-3.15-7.25-4.75-15.2-4.74-23.63-4.73-2.7-6.92-5.72-6.34-8.72,1.24-6.37,14.73-12.04,35.21-14.8l.15-.02v.16c-.06,33.24,12.27,67.31,27.48,75.95l.35,.2-.4,.05c-2.39,.32-4.75,.48-7.09,.48Zm-20.61-76.53c-20.27,2.75-33.61,8.32-34.82,14.56-.56,2.89,1.61,5.82,6.27,8.47l.07,.04v.08c-.03,16.49,6.39,31.58,17.61,41.41,10.37,9.09,23.91,13.08,38.14,11.27-15.11-8.99-27.29-42.81-27.27-75.83Z"/><path class="cls-1" d="M438.22,117.38c-4.13-2.35-6.05-4.97-5.54-7.58,1.07-5.51,12.72-10.41,30.41-12.79l.04,.27c-17.57,2.36-29.13,7.18-30.18,12.57-.48,2.49,1.39,5.01,5.41,7.29l-.13,.24Z"/><path class="cls-1" d="M458.43,136.33c-2.44-1.38-3.57-2.94-3.26-4.49,.63-3.24,7.45-6.12,17.81-7.52l.04,.27c-10.24,1.38-16.98,4.17-17.58,7.3-.28,1.43,.81,2.88,3.13,4.2l-.13,.24Z"/><path class="cls-1" d="M486.9,140.77c-28.93-5.38-52.42-36.89-52.36-70.23h.27c-.06,33.22,23.33,64.6,52.13,69.96l-.05,.27Z"/><path class="cls-1" d="M486.92,140.77c-34.63-.76-62.75-28.52-62.69-61.88h.27c-.06,33.21,27.94,60.84,62.43,61.6v.27Z"/></g></g><path class="cls-1" d="M487.03,143.25c-2.52,0-5.05-.15-7.57-.46-4.13-.51-8.22-1.42-12.17-2.72-2.01-.66-3.34-1.16-6.4-2.52-.95-.42-2.07-.99-3.1-1.54-.6-.31-1.19-.63-1.78-.96l-.21-.13c-2.22-1.36-4.98-3.06-6.94-4.6-1.54-1.21-3.32-2.71-4.54-3.81-1.07-.97-2.39-2.28-3.29-3.26-1.28-1.41-2.75-3.13-3.74-4.38-.8-1.01-1.89-2.53-2.78-3.86-1.96-2.94-3.55-5.82-5-9.07-.63-1.41-1.44-3.45-2.01-5.06-.33-.95-.67-2.12-1-3.25-.15-.52-.3-1.02-.43-1.48-.48-1.57-.94-3.73-1.15-5.37-.06-.47-.13-.98-.21-1.52-.17-1.21-.34-2.45-.43-3.5-.14-1.68-.23-3.93-.23-5.59,0-3.35,.45-7.56,.84-10.16,.25-1.64,.76-4.29,1.38-6.33,1.24-4.05,2.06-6.71,3.52-9.67l.39-.79c.57-1.17,1.23-2.5,1.8-3.52,.82-1.46,1.95-3.29,2.81-4.57,1.94-2.88,4.01-5.47,6.33-7.93,2.42-2.57,4.8-4.73,7.48-6.81,.94-.73,2.35-1.78,3.47-2.51,1.87-1.23,4.27-2.62,4.96-3.02,2.37-1.36,6.48-3.1,7.13-3.35,1.91-.72,4.79-1.82,9.07-2.8,7.54-1.73,15.21-2.04,22.82-.91,5.36,.8,9.42,2.12,10.54,2.5,2.66,.92,3.29,1.14,6.41,2.52,1.48,.66,3.46,1.67,4.92,2.52h0c1.29,.75,2.62,1.53,3.59,2.2,1.81,1.24,3.92,2.8,5.38,3.96,2.18,1.74,4.84,4.44,6.65,6.31,1.31,1.35,2.85,3.22,3.85,4.64l.6,.86c.86,1.22,1.83,2.61,2.55,3.74,.72,1.15,1.68,2.83,2.39,4.19,.71,1.37,1.64,3.36,2.31,4.95,.39,.92,.79,2.06,1.18,3.16,.18,.51,.35,1,.52,1.44,.53,1.44,1.12,3.56,1.46,5.26,.28,1.38,1.2,6.18,1.47,9.97,.19,2.67,.27,6.56-.08,9.47-.06,.48-.11,1-.17,1.54-.13,1.3-.28,2.78-.53,3.93-.1,.46-.2,.97-.31,1.5-.24,1.17-.48,2.39-.74,3.38-.42,1.64-.99,3.7-1.58,5.2-.16,.41-.33,.86-.51,1.32-.43,1.12-.87,2.27-1.29,3.21-.69,1.55-1.66,3.51-2.4,4.86-2.63,4.8-5.54,8.43-5.67,8.58-1.38,1.66-4.01,4.76-6.21,6.83-.41,.39-4.12,3.85-7.62,6.2-1.39,.93-3.35,2.16-4.89,3.06-.95,.56-2.26,1.24-3.25,1.71-2.65,1.24-5.65,2.65-10.66,4.05-5.58,1.56-11.25,2.34-16.94,2.34Zm-21.97-4.26c.77,.29,1.48,.54,2.31,.81,3.93,1.3,8,2.21,12.11,2.71,8.18,1,16.39,.37,24.41-1.87,4.99-1.39,7.98-2.8,10.62-4.04,.99-.47,2.29-1.15,3.23-1.7,1.53-.9,3.49-2.13,4.88-3.05,3.49-2.33,7.18-5.78,7.59-6.17,2.19-2.07,4.82-5.15,6.19-6.8,.12-.15,3.02-3.76,5.64-8.54,.74-1.35,1.7-3.29,2.39-4.84,.42-.93,.85-2.08,1.28-3.2,.18-.47,.35-.92,.51-1.33,.58-1.48,1.14-3.54,1.56-5.17,.26-.99,.5-2.2,.73-3.37,.11-.53,.21-1.04,.31-1.5,.24-1.14,.39-2.61,.53-3.91,.06-.54,.11-1.07,.17-1.55,.35-2.89,.27-6.76,.08-9.42-.27-3.77-1.19-8.56-1.47-9.94-.34-1.69-.92-3.79-1.45-5.22-.16-.44-.34-.93-.52-1.44-.39-1.1-.79-2.23-1.18-3.15-.66-1.58-1.59-3.56-2.3-4.93-.7-1.35-1.66-3.03-2.38-4.17-.71-1.13-1.69-2.51-2.54-3.73l-.6-.86c-.99-1.41-2.52-3.26-3.82-4.61-1.8-1.87-4.45-4.55-6.62-6.29-1.45-1.16-3.56-2.71-5.36-3.95-.97-.67-2.29-1.45-3.58-2.19h0c-1.45-.84-3.42-1.85-4.89-2.5-3.11-1.38-3.73-1.6-6.38-2.51-1.12-.39-5.17-1.7-10.5-2.5-7.57-1.12-15.21-.82-22.71,.9-4.27,.98-7.13,2.07-9.03,2.78-.66,.25-4.75,1.98-7.1,3.33-1.42,.82-3.46,2.03-4.94,3.01-1.11,.73-2.51,1.77-3.45,2.49-2.71,2.1-5.01,4.19-7.45,6.78-2.31,2.45-4.37,5.03-6.3,7.9-.86,1.27-1.98,3.1-2.79,4.55-.57,1.02-1.22,2.34-1.8,3.51l-.39,.79c-1.46,2.94-2.27,5.59-3.5,9.61-.52,1.69-1.06,4.15-1.38,6.31-.39,2.59-.84,6.79-.84,10.12,0,1.66,.1,3.89,.23,5.57,.09,1.03,.26,2.28,.43,3.48,.07,.54,.15,1.05,.21,1.52,.21,1.63,.67,3.76,1.14,5.32,.14,.45,.28,.96,.43,1.48,.33,1.12,.66,2.29,.99,3.23,.57,1.61,1.37,3.63,2,5.04,1.45,3.24,3.03,6.11,4.98,9.03,.88,1.33,1.97,2.84,2.77,3.85,.98,1.24,2.45,2.96,3.73,4.36,.89,.98,2.2,2.28,3.27,3.25,1.22,1.1,2.99,2.59,4.52,3.8,1.95,1.53,4.7,3.22,6.91,4.58l.2,.13c.52,.28,1.13,.61,1.77,.95,7.41,3.8,15.71,5.55,24.35,5.15,1.54-.07,3.08-.21,4.64-.42l.04,.27c-7.58,1.02-15,.41-21.88-1.77Z"/></g><path class="cls-2" d="M517.86,25.48c1.09,.63,2.55,1.48,3.59,2.2,1.65,1.13,3.81,2.71,5.37,3.96,2.15,1.71,4.73,4.33,6.64,6.3,1.25,1.3,2.8,3.15,3.83,4.63,.96,1.37,2.26,3.18,3.15,4.59,.77,1.22,1.72,2.9,2.38,4.18,.75,1.45,1.67,3.43,2.3,4.94,.57,1.35,1.19,3.22,1.7,4.59,.57,1.53,1.14,3.64,1.46,5.24,.59,2.96,1.25,6.94,1.47,9.95,.2,2.83,.26,6.63-.08,9.45-.2,1.64-.35,3.85-.7,5.46-.31,1.46-.67,3.43-1.04,4.87-.41,1.57-.98,3.67-1.57,5.18-.53,1.36-1.2,3.2-1.79,4.53-.66,1.48-1.62,3.43-2.4,4.85-2.69,4.9-5.63,8.53-5.66,8.56-1.76,2.13-4.19,4.92-6.2,6.82-.41,.39-4.11,3.84-7.61,6.18-1.44,.96-3.39,2.18-4.89,3.06-.95,.56-2.25,1.24-3.24,1.71-2.64,1.24-5.64,2.65-10.64,4.05-8.04,2.25-16.27,2.88-24.46,1.88-4.12-.5-8.2-1.42-12.14-2.72-2.01-.66-3.34-1.16-6.38-2.51-1.5-.67-3.43-1.7-4.87-2.49,8.86,5.03,19.46,7.23,30.84,5.7-11.38,1.53-21.98-.67-30.84-5.7-2.19-1.34-5.12-3.13-7.13-4.72-1.39-1.1-3.21-2.61-4.53-3.8-1.03-.93-2.35-2.23-3.28-3.26-1.16-1.28-2.66-3.02-3.73-4.37-.88-1.12-1.98-2.67-2.77-3.85-1.95-2.94-3.54-5.81-4.99-9.05-.67-1.49-1.46-3.51-2-5.05-.49-1.4-1-3.3-1.43-4.72-.48-1.57-.93-3.72-1.14-5.34-.19-1.5-.51-3.5-.64-5.01-.14-1.67-.23-3.9-.24-5.58,0-3.05,.38-7.12,.84-10.14,.29-1.92,.81-4.46,1.38-6.31,1.24-4.03,2.05-6.69,3.51-9.65,.64-1.3,1.48-3.04,2.19-4.3,.79-1.4,1.9-3.23,2.8-4.56,1.94-2.87,4-5.46,6.31-7.92,2.67-2.83,5.05-4.93,7.47-6.8,1.01-.78,2.39-1.8,3.46-2.5,1.45-.95,3.44-2.14,4.95-3.01,2.37-1.37,6.46-3.09,7.11-3.34,1.9-.72,4.78-1.81,9.06-2.79,7.52-1.73,15.18-2.03,22.77-.9,5.34,.79,9.4,2.11,10.52,2.5,2.65,.92,3.28,1.13,6.4,2.52,1.51,.67,3.47,1.68,4.9,2.51Z"/></g><g class="cls-4"><g class="cls-6"><g class="cls-4"><g><path class="cls-1" d="M487.54,97.86c-23.4,0-46-3.64-56.98-9.88l-.07-.04v-.08c.06-33.23,25.47-63.89,56.64-68.34h.05l.04,.02c15.29,8.95,27.68,43.25,27.62,76.46v.12l-.12,.02c-8.75,1.18-18.03,1.73-27.18,1.73Zm-56.77-10.08c15.26,8.61,52.79,12.24,83.8,8.09,.03-33.05-12.26-67.14-27.44-76.08-31,4.46-56.26,34.94-56.36,67.99Z"/><path class="cls-1" d="M487.39,37.03c-11.82,0-23.23-1.84-28.77-4.99l.13-.24c7.67,4.36,26.65,6.19,42.32,4.08l.04,.27c-4.42,.59-9.09,.87-13.71,.87Z"/><path class="cls-1" d="M487.53,65.03c-20.21,0-39.72-3.14-49.2-8.53l.13-.24c13.15,7.47,45.67,10.61,72.49,7l.04,.27c-7.56,1.02-15.57,1.5-23.47,1.5Z"/><path class="cls-1" d="M452.43,94.76h-.27c.06-33.21,15.74-66.96,34.94-75.23l.11,.25c-19.12,8.23-34.72,41.87-34.78,74.98Z"/><path class="cls-1" d="M482.59,97.67h-.27c.06-33.17,2.17-68.19,4.7-78.06l.26,.07c-2.53,9.85-4.63,44.83-4.7,77.99Z"/></g><g><path class="cls-1" d="M514.56,96.15v-.16c.06-33.12-12.27-67.31-27.48-76.22l-.35-.2,.4-.05c14.52-1.83,28.31,2.29,38.83,11.59,11.38,10.05,17.63,24.79,17.62,41.51,4.73,2.7,6.92,5.72,6.34,8.72-1.24,6.37-14.73,12.04-35.21,14.8l-.15,.02Zm-27-76.41c15.11,9.25,27.3,43.19,27.27,76.09,20.27-2.75,33.61-8.32,34.82-14.56,.56-2.89-1.61-5.82-6.27-8.47l-.07-.04v-.08c.03-16.67-6.19-31.37-17.53-41.38-10.37-9.16-23.93-13.27-38.22-11.57Z"/><path class="cls-1" d="M501.11,36.15l-.04-.27c10.24-1.38,16.98-4.17,17.58-7.3,.28-1.43-.81-2.88-3.13-4.2l.13-.24c2.44,1.38,3.57,2.94,3.26,4.49-.63,3.24-7.45,6.12-17.81,7.52Z"/><path class="cls-1" d="M510.99,63.53l-.04-.27c17.57-2.36,29.13-7.18,30.18-12.57,.48-2.49-1.39-5.01-5.41-7.29l.13-.24c4.13,2.35,6.05,4.97,5.54,7.58-1.07,5.51-12.72,10.41-30.41,12.79Z"/><path class="cls-1" d="M539.53,90.02h-.27c.06-33.1-23.33-64.61-52.14-70.23l.05-.27c28.93,5.65,52.42,37.27,52.35,70.5Z"/><path class="cls-1" d="M549.85,81.66h-.27c.06-33.09-27.94-60.84-62.43-61.87v-.27c34.64,1.03,62.76,28.9,62.7,62.14Z"/></g><g><path class="cls-1" d="M543.59,72.92l-.2-.12c-15.23-8.65-52.91-12.29-83.99-8.11l-.15,.02v-.16c.04-22.48,5.78-39.81,14.98-45.24,3.97-2.34,8.45-2.28,12.95,.19,14.5-1.82,28.27,2.3,38.79,11.59,11.39,10.07,17.65,24.84,17.62,41.58v.23Zm-57.04-10.23c23.26,0,45.72,3.6,56.77,9.77-.03-16.57-6.25-31.18-17.53-41.15-10.47-9.25-24.19-13.34-38.62-11.52h-.04l-.04-.02c-4.49-2.47-8.77-2.54-12.72-.21-9.1,5.36-14.78,22.54-14.85,44.84,8.71-1.16,17.93-1.71,27.03-1.71Z"/><path class="cls-1" d="M515.52,24.39c-7.67-4.36-26.66-6.19-42.32-4.08l-.04-.27c15.71-2.11,34.77-.27,42.49,4.12l-.13,.24Z"/><path class="cls-1" d="M535.73,43.4c-13.15-7.47-45.67-10.61-72.49-7l-.04-.27c26.88-3.61,59.47-.46,72.66,7.03l-.13,.24Z"/><path class="cls-1" d="M521.93,65.79h-.27c.04-20.87-6.03-37.45-16.24-44.36-5.45-3.69-11.74-4.26-18.21-1.65l-.1-.25c6.55-2.64,12.94-2.06,18.46,1.68,10.28,6.96,16.4,23.63,16.36,44.59Z"/><path class="cls-1" d="M491.76,62.88h-.27c.05-29.55-1.51-45.22-3.08-45.44-.15-.03-.56,.16-1.13,2.25l-.26-.07c.47-1.73,.91-2.51,1.43-2.45,2.51,.34,3.35,24.83,3.31,45.71Z"/></g><g><path class="cls-1" d="M430.76,88.1l-.2-.12c-4.78-2.71-6.99-5.74-6.41-8.76,.55-2.83,3.52-5.53,8.45-7.89,4.95-19.4,18.15-36.34,35.13-45.39,1.9-2.95,4.08-5.2,6.5-6.62,3.99-2.35,8.48-2.28,12.99,.21l.36,.2-.4,.06c-6.76,.97-13.25,3.17-19.26,6.37-5.27,8.22-8.37,21.92-8.4,38.4v.12l-.12,.02c-11.29,1.52-20.44,3.91-26.56,6.81-1.35,5.31-2.07,10.8-2.08,16.36v.23Zm1.76-16.44c-4.73,2.29-7.57,4.89-8.1,7.62-.55,2.85,1.55,5.74,6.07,8.35,.03-5.43,.73-10.79,2.03-15.97Zm34.91-45.24c-16.64,9.03-29.58,25.69-34.51,44.77,6.13-2.87,15.19-5.24,26.32-6.74,.04-16.21,3.06-29.73,8.19-38.03Zm12.9-8.55c-2.06,0-4.05,.57-5.97,1.7-2.27,1.34-4.33,3.42-6.14,6.13,5.8-3.03,12.02-5.13,18.5-6.11-2.18-1.14-4.32-1.71-6.39-1.71Z"/><path class="cls-1" d="M458.62,32.04c-2.44-1.38-3.57-2.94-3.26-4.49,.63-3.24,7.45-6.12,17.81-7.52l.04,.27c-10.24,1.38-16.98,4.17-17.58,7.3-.28,1.43,.81,2.88,3.13,4.2l-.13,.24Z"/><path class="cls-1" d="M438.33,56.49c-4.13-2.35-6.05-4.97-5.54-7.58,1.07-5.51,12.72-10.41,30.41-12.79l.04,.27c-17.57,2.36-29.13,7.18-30.18,12.57-.48,2.49,1.39,5.01,5.41,7.29l-.13,.24Z"/><path class="cls-1" d="M434.82,70.53h-.27c.03-17.27,6.53-32.59,17.82-42.05,9.62-8.05,21.98-11.24,34.81-8.97l-.05,.27c-12.75-2.26-25.03,.91-34.59,8.91-11.23,9.4-17.69,24.65-17.72,41.84Z"/><path class="cls-1" d="M424.5,78.89h-.27c.03-15.64,6.26-30.37,17.55-41.48,11.99-11.79,28.09-18.16,45.37-17.9v.27c-.33,0-.65,0-.98,0-16.83,0-32.49,6.31-44.2,17.83-11.24,11.06-17.44,25.72-17.47,41.28Z"/></g><g><path class="cls-1" d="M493.9,142.78c-2.28,0-4.64-.67-7-2-14.44,1.93-28.19-2.08-38.71-11.29-5.55-4.86-9.91-10.88-12.96-17.91-3.16-7.27-4.76-15.25-4.74-23.71v-.23l.2,.12c15.23,8.65,52.91,12.29,83.99,8.11l.15-.02v.16c-.04,22.5-5.78,39.8-14.97,45.14-1.89,1.1-3.9,1.65-5.96,1.65Zm-6.95-2.29l.04,.02c4.49,2.55,8.78,2.68,12.73,.38,9.09-5.28,14.77-22.42,14.84-44.75-30.96,4.14-68.42,.53-83.8-8.05,.03,16.4,6.44,31.39,17.61,41.18,10.47,9.17,24.16,13.16,38.54,11.22h.05Z"/><path class="cls-1" d="M487.41,125.92c-20.21,0-39.72-3.15-49.2-8.53l.13-.24c13.15,7.47,45.67,10.61,72.49,7l.04,.27c-7.56,1.02-15.56,1.5-23.47,1.5Z"/><path class="cls-1" d="M487.2,141.32c-11.82,0-23.23-1.84-28.77-4.99l.13-.24c7.67,4.36,26.65,6.19,42.31,4.08l.04,.27c-4.42,.59-9.1,.87-13.71,.87Z"/><path class="cls-1" d="M478.82,142.49c-3.63,0-7.1-1.07-10.29-3.2-10.29-6.88-16.42-23.52-16.38-44.53h.27c-.04,20.91,6.04,37.47,16.26,44.3,5.45,3.64,11.74,4.14,18.19,1.45l.1,.25c-2.76,1.15-5.5,1.73-8.16,1.73Z"/><path class="cls-1" d="M485.66,143.23s-.04,0-.06,0c-2.49-.32-3.33-24.74-3.29-45.56h.27c-.05,29.46,1.49,45.08,3.05,45.29h.02c.17,0,.58-.26,1.13-2.36l.26,.07c-.46,1.75-.91,2.57-1.4,2.57Z"/></g><g><path class="cls-1" d="M493.9,142.78c-2.3,0-4.67-.68-7.04-2.03l-.35-.2,.4-.05c6.79-.91,13.3-3.08,19.34-6.26,5.22-8.19,8.28-21.82,8.31-38.25v-.12l.12-.02c11.29-1.52,20.45-3.91,26.57-6.81,1.34-5.3,2.06-10.79,2.07-16.35v-.23l.2,.12c4.78,2.71,6.99,5.74,6.41,8.76-.55,2.83-3.52,5.52-8.44,7.88-4.93,19.41-18.11,36.29-35.05,45.24-1.92,2.99-4.12,5.26-6.57,6.68-1.89,1.1-3.9,1.65-5.96,1.65Zm-6.55-2.07c4.36,2.36,8.52,2.42,12.38,.18,2.3-1.34,4.39-3.44,6.22-6.19-5.82,3.01-12.08,5.09-18.6,6.01Zm27.49-44.6c-.04,16.15-3.03,29.61-8.11,37.87,16.62-8.93,29.53-25.53,34.44-44.62-6.14,2.87-15.2,5.24-26.33,6.75Zm28.75-23.19c-.03,5.43-.73,10.79-2.02,15.97,4.72-2.29,7.56-4.89,8.09-7.61,.55-2.85-1.55-5.74-6.07-8.35Z"/><path class="cls-1" d="M510.88,124.42l-.04-.27c17.57-2.36,29.13-7.18,30.18-12.57,.48-2.49-1.39-5.01-5.41-7.29l.13-.24c4.13,2.35,6.05,4.97,5.54,7.58-1.07,5.51-12.72,10.41-30.41,12.79Z"/><path class="cls-1" d="M500.91,140.44l-.04-.27c10.24-1.38,16.98-4.17,17.58-7.3,.28-1.43-.81-2.88-3.13-4.2l.13-.24c2.44,1.38,3.57,2.94,3.26,4.49-.63,3.24-7.45,6.12-17.81,7.52Z"/><path class="cls-1" d="M495.26,141.55c-2.75,0-5.54-.26-8.35-.78l.05-.27c12.7,2.36,24.96-.7,34.52-8.63,11.27-9.35,17.76-24.61,17.79-41.85h.27c-.03,17.33-6.55,32.66-17.89,42.06-7.5,6.22-16.66,9.47-26.39,9.47Z"/><path class="cls-1" d="M488.4,140.79c-.49,0-.98,0-1.48-.02v-.27c.5,.01,.99,.02,1.48,.02,16.57,0,32-6.18,43.6-17.5,11.31-11.04,17.55-25.72,17.58-41.35h.27c-.03,15.7-6.3,30.46-17.66,41.55-11.64,11.37-27.15,17.58-43.79,17.58Z"/></g><g><path class="cls-1" d="M486.9,140.77l-.04-.02c-15.29-8.69-27.68-42.87-27.62-76.19v-.12l.12-.02c31.13-4.19,68.89-.53,84.16,8.15l.07,.04v.08c-.06,33.35-25.47,63.89-56.64,68.08h-.05Zm-27.39-76.09c-.03,33.17,12.26,67.14,27.44,75.81,30.99-4.19,56.26-34.55,56.36-67.72-15.26-8.61-52.79-12.24-83.8-8.09Z"/><path class="cls-1" d="M535.62,104.29c-13.15-7.47-45.67-10.61-72.49-7l-.04-.27c26.88-3.61,59.48-.46,72.67,7.03l-.13,.24Z"/><path class="cls-1" d="M515.33,128.67c-7.67-4.36-26.65-6.19-42.31-4.08l-.04-.27c15.71-2.11,34.77-.27,42.49,4.12l-.13,.24Z"/><path class="cls-1" d="M486.98,140.76l-.1-.25c19.11-7.97,34.72-41.48,34.78-74.71h.27c-.06,33.33-15.74,66.96-34.95,74.97Z"/><path class="cls-1" d="M487.06,140.67l-.26-.07c2.53-9.58,4.63-44.45,4.7-77.72h.27c-.06,33.29-2.17,68.19-4.7,77.79Z"/></g><g><path class="cls-1" d="M479.85,141.25c-11.83,0-22.87-4.07-31.66-11.77-5.55-4.86-9.91-10.88-12.96-17.91-3.15-7.25-4.75-15.2-4.74-23.63-4.73-2.7-6.92-5.72-6.34-8.72,1.24-6.37,14.73-12.04,35.21-14.8l.15-.02v.16c-.06,33.24,12.27,67.31,27.48,75.95l.35,.2-.4,.05c-2.39,.32-4.75,.48-7.09,.48Zm-20.61-76.53c-20.27,2.75-33.61,8.32-34.82,14.56-.56,2.89,1.61,5.82,6.27,8.47l.07,.04v.08c-.03,16.49,6.39,31.58,17.61,41.41,10.37,9.09,23.91,13.08,38.14,11.27-15.11-8.99-27.29-42.81-27.27-75.83Z"/><path class="cls-1" d="M438.22,117.38c-4.13-2.35-6.05-4.97-5.54-7.58,1.07-5.51,12.72-10.41,30.41-12.79l.04,.27c-17.57,2.36-29.13,7.18-30.18,12.57-.48,2.49,1.39,5.01,5.41,7.29l-.13,.24Z"/><path class="cls-1" d="M458.43,136.33c-2.44-1.38-3.57-2.94-3.26-4.49,.63-3.24,7.45-6.12,17.81-7.52l.04,.27c-10.24,1.38-16.98,4.17-17.58,7.3-.28,1.43,.81,2.88,3.13,4.2l-.13,.24Z"/><path class="cls-1" d="M486.9,140.77c-28.93-5.38-52.42-36.89-52.36-70.23h.27c-.06,33.22,23.33,64.6,52.13,69.96l-.05,.27Z"/><path class="cls-1" d="M486.92,140.77c-34.63-.76-62.75-28.52-62.69-61.88h.27c-.06,33.21,27.94,60.84,62.43,61.6v.27Z"/></g></g><path class="cls-1" d="M486.93,143.25c-.12,0-.25,0-.38,0-4.15-.02-7.55-.51-8.67-.67-3.45-.49-6.08-1.2-8-1.72-.76-.2-3.55-1-7.42-2.62-1.9-.8-4.22-2.01-6.44-3.19h0c-.4-.23-.8-.47-1.2-.71-1.23-.73-2.65-1.6-3.7-2.38-.31-.23-.65-.48-1-.74-.82-.6-1.76-1.28-2.47-1.86-1.25-1.02-2.96-2.41-4.11-3.6-.31-.32-.65-.66-1.01-1.02-.78-.78-1.59-1.6-2.23-2.3-1.19-1.33-2.54-2.96-3.44-4.15-3.3-4.35-5.24-8.1-5.45-8.51-1.27-2.48-2.58-5.04-4.05-9.37-1.21-3.56-2.16-8.27-2.43-9.63-.34-1.78-.57-4.2-.68-5.48-.1-1.19-.14-2.69-.17-4.01,0-.39-.02-.77-.03-1.12-.05-1.81,.09-4.42,.36-6.64,.54-4.39,1-6.8,1.99-10.32q1-3.55,3.64-9.72c.59-1.37,1.54-3.09,2.23-4.29,.66-1.15,1.57-2.56,2.37-3.8,.21-.32,.4-.63,.59-.91,1.06-1.66,2.73-3.68,3.62-4.74,1.99-2.35,4.51-4.94,6.41-6.59,1.37-1.19,3.36-2.79,5.06-4.06,.93-.7,2.21-1.52,3.24-2.19l.28-.18s3.87-2.4,7.09-3.83c2.44-1.08,4.96-2.19,9.24-3.4,9.11-2.56,18.41-3.03,27.65-1.39,6.88,1.22,11.78,3.28,13.62,4.05,5.81,2.45,10.65,5.7,12.02,6.75,.33,.25,.7,.52,1.07,.81,1.12,.83,2.39,1.78,3.32,2.63,.31,.28,.66,.6,1.01,.92,.83,.74,1.68,1.51,2.36,2.18,1.18,1.18,2.66,2.78,3.7,3.97,1.45,1.68,5.15,6.25,8.27,12.38,2.34,4.59,3.94,8.99,5.2,14.27,.64,2.7,1.09,6.32,1.41,9.17,.15,1.3,.17,2.95,.19,4.4v.74c.04,1.56-.02,3.85-.25,5.6-.06,.47-.12,.99-.19,1.52-.14,1.21-.29,2.46-.47,3.49-.29,1.67-.76,3.82-1.17,5.36-.39,1.48-.97,3.38-1.45,4.72-.41,1.14-.99,2.54-1.5,3.78-.19,.45-.37,.88-.53,1.28-.67,1.63-1.75,3.66-2.55,5.02-1.54,2.64-3.81,5.9-5.28,7.89-1.06,1.44-2.59,3.21-3.8,4.41-.29,.29-.61,.61-.94,.95-.79,.8-1.6,1.63-2.33,2.27-1.35,1.2-3.29,2.81-4.95,4.1-2.34,1.82-4.68,3.18-7.16,4.62-1.86,1.08-4.48,2.34-6.52,3.14-1.91,.75-3.37,1.28-4.45,1.63-1.4,.45-3.3,.97-4.61,1.3-3.51,.89-6.85,1.28-8.11,1.43-.95,.11-3.47,.36-6.83,.36Zm-30.78-8.44c2.21,1.17,4.53,2.39,6.42,3.18,3.85,1.62,6.63,2.41,7.38,2.61,1.91,.51,4.53,1.22,7.96,1.71,1.12,.16,4.51,.64,8.64,.67,3.52,.01,6.19-.24,7.17-.36,1.25-.15,4.58-.53,8.08-1.42,1.31-.33,3.2-.85,4.59-1.3,1.06-.34,2.55-.89,4.43-1.62,2.03-.79,4.63-2.04,6.48-3.12,2.47-1.44,4.8-2.79,7.13-4.6,1.65-1.28,3.59-2.89,4.94-4.08,.71-.64,1.53-1.46,2.31-2.26,.33-.34,.65-.66,.94-.95,1.2-1.19,2.72-2.95,3.77-4.38,1.47-1.99,3.73-5.24,5.27-7.87,.79-1.35,1.87-3.36,2.53-4.98,.16-.4,.34-.83,.53-1.29,.51-1.24,1.09-2.64,1.5-3.77,.47-1.33,1.05-3.22,1.44-4.7,.4-1.53,.87-3.68,1.16-5.34,.18-1.02,.33-2.27,.47-3.47,.06-.54,.12-1.06,.19-1.53,.23-1.74,.28-4.01,.26-5.56v-.74c-.03-1.45-.05-3.08-.2-4.37-.29-2.62-.76-6.42-1.41-9.14-1.25-5.26-2.85-9.64-5.17-14.21-3.1-6.11-6.79-10.65-8.23-12.33-1.03-1.19-2.51-2.79-3.68-3.96-.67-.67-1.52-1.43-2.34-2.17-.36-.32-.71-.63-1.02-.92-.92-.84-2.18-1.78-3.3-2.61-.38-.28-.74-.55-1.08-.81-1.37-1.04-6.18-4.28-11.96-6.72-1.84-.77-6.71-2.83-13.56-4.04-9.2-1.62-18.46-1.16-27.53,1.39-4.27,1.2-6.78,2.31-9.21,3.38-3.18,1.41-7.01,3.78-7.05,3.81l-.28,.18c-1.02,.66-2.3,1.48-3.22,2.18-1.7,1.28-3.68,2.87-5.05,4.05-1.89,1.64-4.39,4.22-6.38,6.56-.89,1.05-2.55,3.07-3.6,4.71-.18,.29-.38,.59-.59,.91-.8,1.24-1.71,2.64-2.37,3.78-.69,1.2-1.64,2.91-2.22,4.26q-2.63,6.16-3.63,9.69c-.99,3.51-1.45,5.91-1.99,10.28-.27,2.21-.41,4.8-.36,6.6,.01,.35,.02,.73,.03,1.12,.03,1.32,.07,2.82,.17,4,.1,1.27,.33,3.68,.67,5.45,.26,1.35,1.21,6.05,2.42,9.6,1.47,4.31,2.77,6.86,4.03,9.33,.21,.42,2.14,4.14,5.43,8.47,.9,1.19,2.25,2.81,3.43,4.13,.63,.7,1.44,1.51,2.22,2.29,.36,.36,.7,.7,1.01,1.02,1.09,1.12,2.69,2.44,3.92,3.44-10.89-9.81-17.16-24.5-17.16-41.04v-.12c.06-33.23,25.47-63.89,56.64-68.34l.04,.27c-31.04,4.44-56.35,34.98-56.41,68.07v.12c0,19.78,9.01,36.91,24.2,46.13,.43,.25,.84,.49,1.19,.7Z"/></g><path class="cls-2" d="M549.88,80.38c.03,1.68-.04,3.92-.26,5.58-.2,1.5-.39,3.51-.66,5.01-.28,1.62-.75,3.76-1.17,5.35-.38,1.43-.95,3.32-1.45,4.71-.55,1.54-1.41,3.55-2.03,5.06-.63,1.56-1.69,3.55-2.54,5-1.44,2.45-3.59,5.59-5.28,7.88-1.03,1.4-2.55,3.17-3.79,4.4-.98,.97-2.24,2.3-3.26,3.21-1.44,1.28-3.42,2.91-4.94,4.09-2.34,1.81-4.67,3.17-7.14,4.61-1.87,1.09-4.48,2.34-6.5,3.13-1.32,.51-3.09,1.19-4.44,1.63s-3.21,.95-4.6,1.3c-3.49,.89-6.84,1.28-8.09,1.43-.98,.11-3.64,.38-7.19,.36-4.15-.02-7.54-.51-8.66-.67-3.43-.49-6.06-1.2-7.98-1.71-.76-.2-3.53-.99-7.4-2.62-1.99-.83-4.53-2.18-6.43-3.18-15.36-8.72-25.5-25.97-25.46-47.07,.06-33.28,25.42-63.76,56.53-68.21-31.11,4.45-56.46,34.93-56.53,68.21-.04,21.1,10.1,38.34,25.46,47.07-1.49-.87-3.49-2.04-4.88-3.08-1.04-.78-2.46-1.77-3.47-2.59-1.26-1.03-2.96-2.42-4.1-3.59-.97-.99-2.3-2.28-3.23-3.32-1.08-1.2-2.46-2.86-3.44-4.14-3.28-4.32-5.23-8.07-5.44-8.49-1.26-2.47-2.57-5.03-4.04-9.35-.96-2.82-1.86-6.69-2.42-9.62-.31-1.62-.54-3.82-.68-5.46-.13-1.53-.15-3.59-.2-5.12-.06-1.99,.12-4.65,.36-6.62,.55-4.5,1.03-6.89,1.99-10.3q.99-3.54,3.63-9.71c.57-1.33,1.5-3.03,2.22-4.28,.83-1.44,2.06-3.3,2.96-4.7,.96-1.5,2.46-3.37,3.61-4.73,1.78-2.1,4.32-4.77,6.39-6.57,1.47-1.28,3.5-2.89,5.06-4.06,1.02-.76,2.45-1.67,3.52-2.36,.03-.02,3.89-2.41,7.07-3.82,2.44-1.08,4.96-2.19,9.22-3.39,9.08-2.55,18.37-3.02,27.59-1.39,6.87,1.21,11.75,3.27,13.59,4.05,5.8,2.44,10.62,5.69,11.99,6.73,1.33,1.01,3.15,2.3,4.38,3.43,1.01,.93,2.4,2.12,3.36,3.09,1.15,1.15,2.63,2.74,3.69,3.97,1.44,1.67,5.13,6.23,8.25,12.35,1.91,3.75,3.73,8.15,5.18,14.24,.64,2.7,1.1,6.39,1.41,9.15,.17,1.53,.17,3.59,.2,5.12Z"/></g><g class="cls-4"><g class="cls-3"><g class="cls-4"><g><path class="cls-1" d="M494.09,142.89c-2.34,0-4.76-.71-7.19-2.12-14.46,2.05-28.23-1.87-38.8-11.05-11.38-9.89-17.89-25.14-17.86-41.83v-.23l.2,.12c15.3,8.69,53.14,12.35,84.36,8.15l.15-.02v.16c-.04,22.63-5.8,39.96-15.03,45.24-1.86,1.06-3.82,1.59-5.85,1.59Zm-7.13-2.4l.04,.02c4.51,2.64,8.82,2.83,12.8,.55,9.12-5.22,14.82-22.4,14.89-44.85-31.1,4.15-68.72,.53-84.17-8.09,.03,16.53,6.5,31.6,17.77,41.39,10.51,9.14,24.23,13.03,38.63,10.98h.05Z"/><path class="cls-1" d="M487.2,141.51c-11.87,0-23.33-1.85-28.9-5.01l.13-.24c7.7,4.38,26.77,6.22,42.5,4.1l.04,.27c-4.43,.6-9.13,.88-13.77,.88Z"/><path class="cls-1" d="M487.42,126.11c-20.29,0-39.89-3.16-49.41-8.57l.13-.24c13.2,7.5,45.87,10.66,72.81,7.03l.04,.27c-7.59,1.02-15.63,1.5-23.57,1.5Z"/><path class="cls-1" d="M478.59,142.59c-3.57,0-6.98-1.04-10.13-3.12-4.96-3.27-9.1-9.02-11.97-16.64-2.96-7.84-4.51-17.53-4.49-28.02h.27c-.02,10.46,1.53,20.11,4.47,27.92,2.85,7.56,6.96,13.27,11.87,16.51,5.47,3.61,11.79,4.04,18.26,1.26l.11,.25c-2.84,1.22-5.66,1.84-8.39,1.84Z"/><path class="cls-1" d="M485.63,143.36s-.04,0-.06,0c-2.48-.32-3.32-24.77-3.28-45.61h.27c-.05,29.5,1.49,45.14,3.04,45.34,.15,.03,.59-.18,1.18-2.49l.26,.07c-.47,1.83-.92,2.69-1.43,2.69Z"/></g><g><path class="cls-1" d="M494.09,142.89c-2.35,0-4.79-.72-7.23-2.14l-.35-.2,.4-.05c6.85-.86,13.42-3.01,19.51-6.18,5.19-8.2,8.24-21.82,8.27-38.26v-.12l.12-.02c11.35-1.53,20.55-3.93,26.69-6.85,1.34-5.31,2.05-10.83,2.06-16.42v-.23l.2,.12c4.8,2.73,7.02,5.77,6.43,8.8-.55,2.84-3.53,5.54-8.46,7.91-4.93,19.51-18.15,36.4-35.14,45.29-1.94,3.05-4.18,5.35-6.66,6.77-1.86,1.06-3.82,1.59-5.85,1.59Zm-6.74-2.18c4.38,2.45,8.57,2.57,12.45,.35,2.35-1.34,4.47-3.48,6.32-6.29-5.87,3.01-12.19,5.06-18.77,5.94Zm27.61-44.54c-.04,16.17-3.01,29.62-8.07,37.89,16.67-8.87,29.62-25.49,34.53-44.68-6.16,2.89-15.27,5.27-26.46,6.78Zm28.88-23.29c-.03,5.46-.73,10.84-2.02,16.03,4.74-2.3,7.59-4.91,8.12-7.64,.55-2.86-1.55-5.76-6.1-8.39Z"/><path class="cls-1" d="M500.97,140.63l-.04-.27c10.28-1.38,17.05-4.19,17.66-7.33,.28-1.43-.81-2.89-3.14-4.22l.13-.24c2.45,1.39,3.58,2.95,3.28,4.51-.63,3.26-7.49,6.15-17.89,7.55Z"/><path class="cls-1" d="M510.98,124.6l-.04-.27c17.65-2.37,29.26-7.21,30.31-12.62,.48-2.5-1.39-5.03-5.43-7.33l.13-.24c4.15,2.36,6.07,4.99,5.56,7.62-1.07,5.53-12.78,10.45-30.54,12.84Z"/><path class="cls-1" d="M495.63,141.62c-2.87,0-5.79-.28-8.73-.86l.05-.27c12.71,2.48,25-.5,34.6-8.39,11.37-9.35,17.91-24.67,17.94-42.05h.27c-.03,17.46-6.61,32.87-18.04,42.26-7.44,6.12-16.49,9.3-26.1,9.3Z"/><path class="cls-1" d="M488.9,140.8c-.66,0-1.32,0-1.98-.03v-.27c17.14,.51,33.18-5.61,45.17-17.23,11.42-11.06,17.72-25.84,17.75-41.6h.27c-.03,15.84-6.36,30.68-17.84,41.8-11.58,11.22-26.92,17.34-43.38,17.34Z"/></g><g><path class="cls-1" d="M486.9,140.77l-.04-.02c-15.36-8.46-27.8-42.67-27.74-76.26v-.12l.12-.02c31.27-4.2,69.19-.53,84.53,8.18l.07,.04v.08c-.06,33.61-25.58,64.17-56.89,68.11h-.04Zm-27.51-76.16c-.03,33.43,12.32,67.44,27.56,75.88,31.13-3.95,56.51-34.33,56.61-67.76-15.32-8.65-53.02-12.29-84.17-8.13Z"/><path class="cls-1" d="M515.45,128.81c-7.7-4.38-26.77-6.22-42.5-4.1l-.04-.27c15.78-2.12,34.92-.27,42.67,4.13l-.13,.24Z"/><path class="cls-1" d="M535.83,104.38c-13.2-7.5-45.87-10.66-72.81-7.03l-.04-.27c26.99-3.63,59.73-.46,72.98,7.06l-.13,.24Z"/><path class="cls-1" d="M486.98,140.76l-.1-.25c19.2-7.74,34.87-41.28,34.93-74.78h.27c-.06,33.6-15.81,67.26-35.1,75.03Z"/><path class="cls-1" d="M487.06,140.67l-.26-.07c2.54-9.36,4.65-44.26,4.72-77.8h.27c-.06,33.55-2.18,68.49-4.72,77.87Z"/></g><g><path class="cls-1" d="M479.44,141.31c-11.69,0-22.61-3.99-31.34-11.58-11.36-9.87-17.87-25.09-17.86-41.76-4.75-2.72-6.95-5.74-6.37-8.76,1.24-6.4,14.79-12.09,35.36-14.86l.15-.02v.16c-.06,33.5,12.32,67.6,27.6,76.02l.36,.2-.4,.06c-2.53,.36-5.03,.54-7.5,.54Zm-20.32-76.66c-20.36,2.76-33.76,8.36-34.97,14.62-.56,2.9,1.62,5.85,6.3,8.51l.07,.04v.08c-.03,16.62,6.44,31.79,17.77,41.63,10.42,9.05,23.98,12.96,38.23,11.03-15.17-8.77-27.41-42.62-27.39-75.91Z"/><path class="cls-1" d="M458.3,136.49c-2.45-1.39-3.58-2.95-3.28-4.51,.63-3.26,7.49-6.15,17.89-7.55l.04,.27c-10.28,1.38-17.05,4.19-17.66,7.33-.28,1.43,.81,2.89,3.14,4.22l-.13,.24Z"/><path class="cls-1" d="M438,117.54c-4.15-2.36-6.07-4.99-5.57-7.61,1.07-5.53,12.78-10.45,30.54-12.84l.04,.27c-17.65,2.37-29.26,7.21-30.31,12.62-.48,2.5,1.39,5.03,5.43,7.33l-.13,.24Z"/><path class="cls-1" d="M486.9,140.77c-29.06-5.14-52.65-36.67-52.59-70.28h.27c-.06,33.48,23.43,64.89,52.36,70.01l-.05,.27Z"/><path class="cls-1" d="M486.93,140.77c-34.78-.5-63.03-28.26-62.97-61.88h.27c-.06,33.47,28.07,61.11,62.7,61.61v.27Z"/></g><g><path class="cls-1" d="M487.54,97.94c-23.51,0-46.2-3.66-57.23-9.92l-.07-.04v-.08c.06-33.49,25.58-64.17,56.89-68.38h.05l.04,.02c15.36,8.73,27.8,43.05,27.74,76.53v.12l-.12,.02c-8.79,1.18-18.11,1.74-27.3,1.74Zm-57.02-10.12c15.32,8.65,53.02,12.29,84.17,8.13,.03-33.32-12.32-67.44-27.56-76.15-31.13,4.21-56.51,34.71-56.61,68.02Z"/><path class="cls-1" d="M487.53,64.97c-20.29,0-39.89-3.16-49.41-8.57l.13-.24c13.2,7.5,45.87,10.66,72.81,7.03l.04,.27c-7.59,1.02-15.63,1.5-23.57,1.5Z"/><path class="cls-1" d="M487.39,36.92c-11.87,0-23.33-1.85-28.9-5.01l.13-.24c7.7,4.38,26.77,6.22,42.5,4.1l.04,.27c-4.43,.6-9.13,.88-13.77,.88Z"/><path class="cls-1" d="M452.28,94.82h-.27c.06-33.48,15.81-67.25,35.1-75.29l.1,.25c-19.2,8-34.87,41.67-34.93,75.04Z"/><path class="cls-1" d="M482.57,97.75h-.27c.06-33.44,2.18-68.49,4.72-78.13l.26,.07c-2.54,9.63-4.65,44.64-4.72,78.06Z"/></g><g><path class="cls-1" d="M514.69,96.22v-.16c.06-33.38-12.32-67.61-27.6-76.29l-.35-.2,.4-.05c14.52-1.95,28.35,2.07,38.92,11.34,5.57,4.88,9.95,10.93,13.02,17.98,3.17,7.28,4.77,15.26,4.76,23.74,4.75,2.72,6.95,5.74,6.37,8.76-1.24,6.4-14.79,12.09-35.36,14.86l-.15,.02Zm-27.12-76.48c15.17,9.03,27.41,43,27.39,76.17,20.36-2.76,33.76-8.36,34.97-14.62,.56-2.9-1.62-5.85-6.3-8.51l-.07-.04v-.08c.03-16.56-6.42-31.72-17.69-41.59-10.42-9.13-24-13.14-38.31-11.32Z"/><path class="cls-1" d="M511.1,63.47l-.04-.27c17.65-2.37,29.26-7.21,30.31-12.62,.48-2.5-1.39-5.03-5.43-7.33l.13-.24c4.15,2.36,6.07,4.99,5.56,7.62-1.07,5.53-12.78,10.45-30.54,12.84Z"/><path class="cls-1" d="M501.17,36.04l-.04-.27c10.28-1.38,17.05-4.19,17.66-7.33,.28-1.43-.81-2.89-3.14-4.22l.13-.24c2.45,1.39,3.58,2.95,3.28,4.51-.63,3.26-7.49,6.15-17.89,7.55Z"/><path class="cls-1" d="M539.76,90.06h-.27c.06-33.36-23.43-64.89-52.36-70.27l.05-.27c29.06,5.41,52.65,37.05,52.59,70.54Z"/><path class="cls-1" d="M550.12,81.66h-.27c.06-33.35-28.06-61.11-62.7-61.87v-.27c34.79,.77,63.04,28.65,62.97,62.15Z"/></g><g><path class="cls-1" d="M543.84,72.89l-.2-.12c-15.3-8.69-53.14-12.35-84.36-8.15l-.15,.02v-.16c.04-22.6,5.81-39.97,15.04-45.34,3.99-2.32,8.5-2.2,13.02,.36,14.51-1.94,28.31,2.09,38.87,11.34,5.57,4.88,9.95,10.93,13.02,17.98,3.18,7.3,4.78,15.31,4.76,23.82v.23Zm-57.3-10.28c23.36,0,45.92,3.61,57.02,9.81-.03-16.47-6.47-31.53-17.69-41.36-10.51-9.21-24.26-13.21-38.7-11.27h-.05l-.04-.02c-4.51-2.56-8.81-2.69-12.79-.38-9.13,5.3-14.83,22.52-14.9,44.94,8.75-1.17,18.01-1.72,27.15-1.72Z"/><path class="cls-1" d="M535.94,43.25c-13.2-7.5-45.87-10.66-72.81-7.03l-.04-.27c26.99-3.63,59.73-.46,72.98,7.06l-.13,.24Z"/><path class="cls-1" d="M515.64,24.22c-7.7-4.38-26.77-6.22-42.5-4.1l-.04-.27c15.78-2.12,34.92-.27,42.67,4.13l-.13,.24Z"/><path class="cls-1" d="M522.08,65.73h-.27c.04-21-6.07-37.64-16.33-44.49-5.47-3.65-11.79-4.16-18.27-1.46l-.1-.25c6.57-2.74,12.98-2.23,18.53,1.48,10.34,6.91,16.49,23.62,16.45,44.72Z"/><path class="cls-1" d="M491.78,62.8h-.27c.05-29.59-1.5-45.28-3.07-45.48h-.02c-.17,0-.58,.26-1.14,2.37l-.26-.07c.48-1.82,.94-2.63,1.46-2.57,2.5,.33,3.34,24.85,3.3,45.75Z"/></g><g><path class="cls-1" d="M430.52,88.13l-.2-.12c-4.8-2.73-7.02-5.77-6.44-8.8,.55-2.84,3.53-5.55,8.48-7.92,4.95-19.5,18.19-36.45,35.21-45.43,1.92-3,4.14-5.28,6.6-6.71,4.01-2.33,8.53-2.19,13.06,.38l.35,.2-.4,.05c-6.82,.92-13.36,3.09-19.42,6.29-5.25,8.23-8.32,21.92-8.35,38.42v.12l-.12,.02c-11.34,1.53-20.54,3.93-26.68,6.84-1.34,5.32-2.06,10.83-2.07,16.43v.23Zm1.76-16.51c-4.74,2.3-7.6,4.91-8.13,7.65-.55,2.86,1.55,5.76,6.1,8.39,.03-5.46,.73-10.84,2.03-16.04Zm35-45.29c-16.69,8.97-29.67,25.65-34.6,44.82,6.16-2.89,15.26-5.26,26.45-6.78,.05-16.22,3.04-29.74,8.15-38.04Zm12.88-8.58c-2.02,0-3.97,.55-5.86,1.64-2.31,1.34-4.41,3.45-6.25,6.22,5.85-3.02,12.14-5.11,18.68-6.04-2.25-1.22-4.44-1.82-6.57-1.82Z"/><path class="cls-1" d="M438.12,56.4c-4.15-2.36-6.07-4.99-5.56-7.62,1.07-5.53,12.78-10.45,30.54-12.84l.04,.27c-17.65,2.37-29.26,7.21-30.31,12.62-.48,2.5,1.39,5.03,5.43,7.33l-.13,.24Z"/><path class="cls-1" d="M458.5,31.9c-2.45-1.39-3.58-2.95-3.28-4.51,.63-3.26,7.49-6.15,17.89-7.55l.04,.27c-10.28,1.38-17.05,4.19-17.66,7.33-.28,1.43,.81,2.89,3.14,4.22l-.13,.24Z"/><path class="cls-1" d="M434.59,70.49h-.27c.03-17.4,6.58-32.8,17.97-42.25,9.66-8.02,22.06-11.12,34.89-8.73l-.05,.27c-12.76-2.38-25.07,.7-34.67,8.67-11.32,9.39-17.84,24.72-17.87,42.04Z"/><path class="cls-1" d="M424.23,78.89h-.27c.03-15.77,6.33-30.59,17.74-41.73,11.7-11.42,27.27-17.66,43.98-17.66,.49,0,.99,0,1.48,.02v.27c-.5-.01-.99-.02-1.48-.02-16.64,0-32.14,6.21-43.79,17.58-11.36,11.09-17.62,25.84-17.65,41.53Z"/></g></g><path class="cls-1" d="M487,143.38c-2.22,0-4.78-.12-7.71-.47-6.18-.74-10.81-2.27-12.78-2.92-1.46-.48-3.14-1.13-4.3-1.65-.87-.39-1.82-.84-2.75-1.3-1.26-.57-2.49-1.2-3.7-1.89l-.08-.05c-1.67-.99-3.95-2.35-5.52-3.54-1.23-.93-3.09-2.35-4.4-3.45-.49-.41-2.18-1.86-3.37-3.12l-.17-.18c-1.12-1.18-2.51-2.64-3.52-3.82-.87-1.02-2.02-2.48-2.93-3.74-1.4-1.94-3.28-4.69-5.3-8.73-.69-1.38-1.58-3.35-2.2-4.9-.66-1.63-1.37-3.8-1.64-4.65-.82-2.55-1.63-6-2.01-8.59-.5-3.42-.82-7.43-.8-10.21,.02-4.3,.25-5.9,.92-10.65,0-.05,.68-4.55,2.63-10.13,.51-1.46,1.31-3.46,2.04-5.09,.41-.92,.97-2,1.51-3.05,.23-.45,.46-.89,.66-1.3,.79-1.58,2.16-3.66,2.9-4.77,.55-.83,1.27-1.8,1.96-2.73,.29-.39,.58-.77,.83-1.12,1.04-1.43,2.68-3.21,3.81-4.43,.81-.87,2.16-2.23,3.28-3.24,1.36-1.21,3.31-2.82,4.97-4.11,2.36-1.83,4.81-3.26,7.19-4.64,1.87-1.09,4.5-2.35,6.55-3.15,1.9-.74,3.4-1.29,4.47-1.64,1.34-.43,3.2-.96,4.63-1.31,7.84-1.91,14.09-1.89,18.11-1.71,.9,.04,3.07,.21,4.41,.38,2.28,.29,2.78,.39,5.17,.85,1.81,.35,5.36,1.28,7.56,2.06,1.81,.65,4.56,1.62,7.56,3.14,3.3,1.67,6.04,3.29,8.15,4.81,2.13,1.54,4.55,3.29,7.61,6.22,3.14,3.01,5.38,5.75,6.71,7.51,1.54,2.04,3.39,4.65,5.48,8.54,1.41,2.63,2.91,6.32,3.91,8.96,.46,1.21,.97,2.91,1.56,5.22,.26,1,.5,2.23,.73,3.41,.1,.53,.2,1.03,.3,1.49,.27,1.27,.49,3.07,.68,5.5,.2,2.56,.27,4.57,.19,5.99-.02,.45-.04,.95-.07,1.46-.05,1.21-.11,2.59-.22,3.68-.17,1.72-.42,3.9-.78,5.53-.09,.41-.19,.87-.29,1.34-.25,1.17-.54,2.5-.82,3.53-.46,1.69-1.14,3.81-1.68,5.29-1.93,5.24-4.21,9.12-4.46,9.55-1.57,2.64-3.86,5.9-5.35,7.88-.79,1.06-1.92,2.29-2.91,3.38-.33,.36-.65,.71-.95,1.04-.96,1.07-2.33,2.36-3.3,3.2-1.16,1.01-2.86,2.4-5.05,4.11-1.09,.85-2.74,1.96-4.22,2.83-1.88,1.11-4.46,2.5-6.42,3.45-2.06,1-5.9,2.52-9.45,3.5-1.58,.43-6.39,1.74-12.04,2.18-1.48,.11-3.24,.22-5.29,.22Zm-22.35-4.33c.65,.24,1.31,.48,1.93,.68,1.97,.65,6.57,2.17,12.73,2.91,5.62,.68,9.87,.49,12.95,.25,5.63-.43,10.42-1.74,11.99-2.17,3.54-.97,7.36-2.48,9.41-3.48,1.95-.95,4.53-2.33,6.4-3.44,1.46-.87,3.11-1.97,4.19-2.81,2.19-1.71,3.88-3.09,5.04-4.1,.96-.84,2.32-2.12,3.28-3.18,.29-.33,.61-.68,.95-1.04,.99-1.08,2.11-2.31,2.89-3.35,1.48-1.98,3.77-5.23,5.33-7.86,.25-.42,2.52-4.29,4.44-9.5,.54-1.47,1.21-3.58,1.68-5.26,.28-1.03,.57-2.35,.82-3.52,.1-.47,.2-.93,.29-1.34,.36-1.61,.6-3.78,.77-5.5,.11-1.08,.16-2.45,.22-3.66,.02-.51,.04-1.01,.07-1.46,.07-1.41,0-3.41-.19-5.96-.19-2.43-.41-4.22-.68-5.47-.1-.46-.2-.97-.3-1.5-.23-1.18-.47-2.4-.73-3.4-.59-2.29-1.09-3.99-1.55-5.19-1-2.63-2.5-6.32-3.9-8.93-2.08-3.87-3.92-6.47-5.45-8.51-1.32-1.75-3.55-4.48-6.68-7.48-3.04-2.92-5.46-4.66-7.58-6.19-2.1-1.52-4.83-3.13-8.11-4.79-2.99-1.51-5.72-2.49-7.53-3.13-2.19-.78-5.72-1.71-7.52-2.05-2.39-.46-2.88-.55-5.16-.85-1.34-.17-3.49-.34-4.39-.38-4-.18-10.24-.2-18.04,1.71-1.42,.35-3.27,.87-4.61,1.3-1.06,.34-2.56,.89-4.45,1.63-2.04,.79-4.65,2.05-6.51,3.13-2.36,1.38-4.81,2.8-7.16,4.62-1.66,1.29-3.61,2.9-4.96,4.1-1.12,1-2.46,2.36-3.27,3.22-1.13,1.21-2.76,2.98-3.79,4.4-.25,.35-.54,.73-.83,1.12-.69,.93-1.41,1.89-1.95,2.71-.73,1.11-2.1,3.17-2.88,4.74-.2,.4-.43,.84-.66,1.3-.54,1.04-1.09,2.12-1.5,3.03-.73,1.63-1.53,3.62-2.03,5.07-1.94,5.55-2.61,10.03-2.62,10.08-.67,4.73-.89,6.33-.92,10.61-.01,2.77,.3,6.76,.8,10.17,.38,2.58,1.19,6.02,2,8.55,.27,.85,.98,3.01,1.64,4.63,.62,1.54,1.5,3.51,2.19,4.88,2.02,4.02,3.88,6.76,5.28,8.69,.9,1.24,2.05,2.7,2.91,3.72,1.01,1.18,2.4,2.64,3.51,3.81l.17,.18c1.19,1.25,2.87,2.69,3.35,3.1,1.3,1.1,3.16,2.51,4.38,3.44,1.56,1.18,3.83,2.53,5.5,3.52l.08,.04c1.02,.54,2.34,1.22,3.68,1.88,6.93,3.16,14.55,4.58,22.46,4.18,1.6-.08,3.22-.24,4.84-.47h.04l.04,.26c-7.73,1.1-15.29,.51-22.29-1.73Z"/></g><path class="cls-2" d="M455.81,135.03c8.93,5.07,19.62,7.25,31.11,5.61-11.49,1.64-22.18-.54-31.11-5.61-1.71-1.02-4-2.37-5.59-3.58-1.33-1.01-3.11-2.37-4.39-3.45-1.05-.89-2.42-2.11-3.36-3.11-1.12-1.18-2.63-2.75-3.68-3.99-.92-1.08-2.09-2.58-2.92-3.73-1.4-1.94-3.27-4.67-5.29-8.71-.72-1.44-1.6-3.4-2.2-4.89-.55-1.37-1.19-3.24-1.64-4.64-.81-2.51-1.62-5.96-2.01-8.57-.45-3.03-.82-7.12-.8-10.19,.02-4.29,.25-5.89,.92-10.63,0-.04,.67-4.51,2.62-10.1,.54-1.55,1.37-3.58,2.04-5.08,.59-1.33,1.52-3.04,2.17-4.34,.75-1.49,1.97-3.36,2.89-4.76,.79-1.19,1.95-2.69,2.79-3.84,1.03-1.41,2.61-3.14,3.8-4.42,.94-1.01,2.25-2.31,3.28-3.23,1.44-1.29,3.44-2.92,4.97-4.11,2.35-1.82,4.8-3.25,7.17-4.63,1.88-1.09,4.5-2.35,6.53-3.14,1.33-.52,3.11-1.19,4.46-1.63s3.22-.97,4.62-1.31c7.82-1.91,14.06-1.89,18.08-1.71,.9,.04,3.06,.21,4.4,.38,2.28,.29,2.77,.39,5.17,.85,1.81,.35,5.35,1.28,7.54,2.06,1.81,.65,4.55,1.62,7.54,3.14,3.29,1.67,6.02,3.28,8.13,4.8,2.13,1.54,4.55,3.28,7.6,6.21,3.14,3.01,5.37,5.73,6.7,7.49,1.53,2.04,3.38,4.64,5.46,8.53,1.38,2.58,2.86,6.21,3.91,8.94,.58,1.52,1.15,3.62,1.56,5.2,.37,1.46,.72,3.43,1.03,4.9,.34,1.62,.55,3.83,.68,5.49,.14,1.79,.29,4.18,.19,5.98-.08,1.54-.13,3.6-.28,5.13-.17,1.66-.41,3.88-.78,5.51-.33,1.46-.71,3.43-1.11,4.87-.44,1.6-1.11,3.72-1.68,5.28-1.92,5.22-4.19,9.1-4.45,9.53-1.46,2.45-3.63,5.59-5.34,7.87-1.05,1.4-2.68,3.1-3.85,4.41-.92,1.02-2.25,2.29-3.29,3.19-1.47,1.28-3.5,2.9-5.04,4.1-1.2,.93-2.89,2.05-4.2,2.82-1.88,1.11-4.45,2.49-6.41,3.45-2.05,1-5.88,2.52-9.43,3.49-1.58,.43-6.37,1.74-12.02,2.17-3.08,.24-7.35,.42-12.98-.26-6.17-.74-10.78-2.26-12.76-2.91-1.31-.43-3.03-1.08-4.28-1.64-1.97-.89-4.54-2.18-6.45-3.19Z"/></g><g class="cls-4"><g class="cls-8"><g class="cls-4"><g><path class="cls-1" d="M494.09,142.89c-2.34,0-4.76-.71-7.19-2.12-14.46,2.05-28.23-1.87-38.8-11.05-11.38-9.89-17.89-25.14-17.86-41.83v-.23l.2,.12c15.3,8.69,53.14,12.35,84.36,8.15l.15-.02v.16c-.04,22.63-5.8,39.96-15.03,45.24-1.86,1.06-3.82,1.59-5.85,1.59Zm-7.13-2.4l.04,.02c4.51,2.64,8.82,2.83,12.8,.55,9.12-5.22,14.82-22.4,14.89-44.85-31.1,4.15-68.72,.53-84.17-8.09,.03,16.53,6.5,31.6,17.77,41.39,10.51,9.14,24.23,13.03,38.63,10.98h.05Z"/><path class="cls-1" d="M487.2,141.51c-11.87,0-23.33-1.85-28.9-5.01l.13-.24c7.7,4.38,26.77,6.22,42.5,4.1l.04,.27c-4.43,.6-9.13,.88-13.77,.88Z"/><path class="cls-1" d="M487.42,126.11c-20.29,0-39.89-3.16-49.41-8.57l.13-.24c13.2,7.5,45.87,10.66,72.81,7.03l.04,.27c-7.59,1.02-15.63,1.5-23.57,1.5Z"/><path class="cls-1" d="M478.59,142.59c-3.57,0-6.98-1.04-10.13-3.12-4.96-3.27-9.1-9.02-11.97-16.64-2.96-7.84-4.51-17.53-4.49-28.02h.27c-.02,10.46,1.53,20.11,4.47,27.92,2.85,7.56,6.96,13.27,11.87,16.51,5.47,3.61,11.79,4.04,18.26,1.26l.11,.25c-2.84,1.22-5.66,1.84-8.39,1.84Z"/><path class="cls-1" d="M485.63,143.36s-.04,0-.06,0c-2.48-.32-3.32-24.77-3.28-45.61h.27c-.05,29.5,1.49,45.14,3.04,45.34,.15,.03,.59-.18,1.18-2.49l.26,.07c-.47,1.83-.92,2.69-1.43,2.69Z"/></g><g><path class="cls-1" d="M494.09,142.89c-2.35,0-4.79-.72-7.23-2.14l-.35-.2,.4-.05c6.85-.86,13.42-3.01,19.51-6.18,5.19-8.2,8.24-21.82,8.27-38.26v-.12l.12-.02c11.35-1.53,20.55-3.93,26.69-6.85,1.34-5.31,2.05-10.83,2.06-16.42v-.23l.2,.12c4.8,2.73,7.02,5.77,6.43,8.8-.55,2.84-3.53,5.54-8.46,7.91-4.93,19.51-18.15,36.4-35.14,45.29-1.94,3.05-4.18,5.35-6.66,6.77-1.86,1.06-3.82,1.59-5.85,1.59Zm-6.74-2.18c4.38,2.45,8.57,2.57,12.45,.35,2.35-1.34,4.47-3.48,6.32-6.29-5.87,3.01-12.19,5.06-18.77,5.94Zm27.61-44.54c-.04,16.17-3.01,29.62-8.07,37.89,16.67-8.87,29.62-25.49,34.53-44.68-6.16,2.89-15.27,5.27-26.46,6.78Zm28.88-23.29c-.03,5.46-.73,10.84-2.02,16.03,4.74-2.3,7.59-4.91,8.12-7.64,.55-2.86-1.55-5.76-6.1-8.39Z"/><path class="cls-1" d="M500.97,140.63l-.04-.27c10.28-1.38,17.05-4.19,17.66-7.33,.28-1.43-.81-2.89-3.14-4.22l.13-.24c2.45,1.39,3.58,2.95,3.28,4.51-.63,3.26-7.49,6.15-17.89,7.55Z"/><path class="cls-1" d="M510.98,124.6l-.04-.27c17.65-2.37,29.26-7.21,30.31-12.62,.48-2.5-1.39-5.03-5.43-7.33l.13-.24c4.15,2.36,6.07,4.99,5.56,7.62-1.07,5.53-12.78,10.45-30.54,12.84Z"/><path class="cls-1" d="M495.63,141.62c-2.87,0-5.79-.28-8.73-.86l.05-.27c12.71,2.48,25-.5,34.6-8.39,11.37-9.35,17.91-24.67,17.94-42.05h.27c-.03,17.46-6.61,32.87-18.04,42.26-7.44,6.12-16.49,9.3-26.1,9.3Z"/><path class="cls-1" d="M488.9,140.8c-.66,0-1.32,0-1.98-.03v-.27c17.14,.51,33.18-5.61,45.17-17.23,11.42-11.06,17.72-25.84,17.75-41.6h.27c-.03,15.84-6.36,30.68-17.84,41.8-11.58,11.22-26.92,17.34-43.38,17.34Z"/></g><g><path class="cls-1" d="M486.9,140.77l-.04-.02c-15.36-8.46-27.8-42.67-27.74-76.26v-.12l.12-.02c31.27-4.2,69.19-.53,84.53,8.18l.07,.04v.08c-.06,33.61-25.58,64.17-56.89,68.11h-.04Zm-27.51-76.16c-.03,33.43,12.32,67.44,27.56,75.88,31.13-3.95,56.51-34.33,56.61-67.76-15.32-8.65-53.02-12.29-84.17-8.13Z"/><path class="cls-1" d="M515.45,128.81c-7.7-4.38-26.77-6.22-42.5-4.1l-.04-.27c15.78-2.12,34.92-.27,42.67,4.13l-.13,.24Z"/><path class="cls-1" d="M535.83,104.38c-13.2-7.5-45.87-10.66-72.81-7.03l-.04-.27c26.99-3.63,59.73-.46,72.98,7.06l-.13,.24Z"/><path class="cls-1" d="M486.98,140.76l-.1-.25c19.2-7.74,34.87-41.28,34.93-74.78h.27c-.06,33.6-15.81,67.26-35.1,75.03Z"/><path class="cls-1" d="M487.06,140.67l-.26-.07c2.54-9.36,4.65-44.26,4.72-77.8h.27c-.06,33.55-2.18,68.49-4.72,77.87Z"/></g><g><path class="cls-1" d="M479.44,141.31c-11.69,0-22.61-3.99-31.34-11.58-11.36-9.87-17.87-25.09-17.86-41.76-4.75-2.72-6.95-5.74-6.37-8.76,1.24-6.4,14.79-12.09,35.36-14.86l.15-.02v.16c-.06,33.5,12.32,67.6,27.6,76.02l.36,.2-.4,.06c-2.53,.36-5.03,.54-7.5,.54Zm-20.32-76.66c-20.36,2.76-33.76,8.36-34.97,14.62-.56,2.9,1.62,5.85,6.3,8.51l.07,.04v.08c-.03,16.62,6.44,31.79,17.77,41.63,10.42,9.05,23.98,12.96,38.23,11.03-15.17-8.77-27.41-42.62-27.39-75.91Z"/><path class="cls-1" d="M458.3,136.49c-2.45-1.39-3.58-2.95-3.28-4.51,.63-3.26,7.49-6.15,17.89-7.55l.04,.27c-10.28,1.38-17.05,4.19-17.66,7.33-.28,1.43,.81,2.89,3.14,4.22l-.13,.24Z"/><path class="cls-1" d="M438,117.54c-4.15-2.36-6.07-4.99-5.57-7.61,1.07-5.53,12.78-10.45,30.54-12.84l.04,.27c-17.65,2.37-29.26,7.21-30.31,12.62-.48,2.5,1.39,5.03,5.43,7.33l-.13,.24Z"/><path class="cls-1" d="M486.9,140.77c-29.06-5.14-52.65-36.67-52.59-70.28h.27c-.06,33.48,23.43,64.89,52.36,70.01l-.05,.27Z"/><path class="cls-1" d="M486.93,140.77c-34.78-.5-63.03-28.26-62.97-61.88h.27c-.06,33.47,28.07,61.11,62.7,61.61v.27Z"/></g><g><path class="cls-1" d="M487.54,97.94c-23.51,0-46.2-3.66-57.23-9.92l-.07-.04v-.08c.06-33.49,25.58-64.17,56.89-68.38h.05l.04,.02c15.36,8.73,27.8,43.05,27.74,76.53v.12l-.12,.02c-8.79,1.18-18.11,1.74-27.3,1.74Zm-57.02-10.12c15.32,8.65,53.02,12.29,84.17,8.13,.03-33.32-12.32-67.44-27.56-76.15-31.13,4.21-56.51,34.71-56.61,68.02Z"/><path class="cls-1" d="M487.53,64.97c-20.29,0-39.89-3.16-49.41-8.57l.13-.24c13.2,7.5,45.87,10.66,72.81,7.03l.04,.27c-7.59,1.02-15.63,1.5-23.57,1.5Z"/><path class="cls-1" d="M487.39,36.92c-11.87,0-23.33-1.85-28.9-5.01l.13-.24c7.7,4.38,26.77,6.22,42.5,4.1l.04,.27c-4.43,.6-9.13,.88-13.77,.88Z"/><path class="cls-1" d="M452.28,94.82h-.27c.06-33.48,15.81-67.25,35.1-75.29l.1,.25c-19.2,8-34.87,41.67-34.93,75.04Z"/><path class="cls-1" d="M482.57,97.75h-.27c.06-33.44,2.18-68.49,4.72-78.13l.26,.07c-2.54,9.63-4.65,44.64-4.72,78.06Z"/></g><g><path class="cls-1" d="M514.69,96.22v-.16c.06-33.38-12.32-67.61-27.6-76.29l-.35-.2,.4-.05c14.52-1.95,28.35,2.07,38.92,11.34,5.57,4.88,9.95,10.93,13.02,17.98,3.17,7.28,4.77,15.26,4.76,23.74,4.75,2.72,6.95,5.74,6.37,8.76-1.24,6.4-14.79,12.09-35.36,14.86l-.15,.02Zm-27.12-76.48c15.17,9.03,27.41,43,27.39,76.17,20.36-2.76,33.76-8.36,34.97-14.62,.56-2.9-1.62-5.85-6.3-8.51l-.07-.04v-.08c.03-16.56-6.42-31.72-17.69-41.59-10.42-9.13-24-13.14-38.31-11.32Z"/><path class="cls-1" d="M511.1,63.47l-.04-.27c17.65-2.37,29.26-7.21,30.31-12.62,.48-2.5-1.39-5.03-5.43-7.33l.13-.24c4.15,2.36,6.07,4.99,5.56,7.62-1.07,5.53-12.78,10.45-30.54,12.84Z"/><path class="cls-1" d="M501.17,36.04l-.04-.27c10.28-1.38,17.05-4.19,17.66-7.33,.28-1.43-.81-2.89-3.14-4.22l.13-.24c2.45,1.39,3.58,2.95,3.28,4.51-.63,3.26-7.49,6.15-17.89,7.55Z"/><path class="cls-1" d="M539.76,90.06h-.27c.06-33.36-23.43-64.89-52.36-70.27l.05-.27c29.06,5.41,52.65,37.05,52.59,70.54Z"/><path class="cls-1" d="M550.12,81.66h-.27c.06-33.35-28.06-61.11-62.7-61.87v-.27c34.79,.77,63.04,28.65,62.97,62.15Z"/></g><g><path class="cls-1" d="M543.84,72.89l-.2-.12c-15.3-8.69-53.14-12.35-84.36-8.15l-.15,.02v-.16c.04-22.6,5.81-39.97,15.04-45.34,3.99-2.32,8.5-2.2,13.02,.36,14.51-1.94,28.31,2.09,38.87,11.34,5.57,4.88,9.95,10.93,13.02,17.98,3.18,7.3,4.78,15.31,4.76,23.82v.23Zm-57.3-10.28c23.36,0,45.92,3.61,57.02,9.81-.03-16.47-6.47-31.53-17.69-41.36-10.51-9.21-24.26-13.21-38.7-11.27h-.05l-.04-.02c-4.51-2.56-8.81-2.69-12.79-.38-9.13,5.3-14.83,22.52-14.9,44.94,8.75-1.17,18.01-1.72,27.15-1.72Z"/><path class="cls-1" d="M535.94,43.25c-13.2-7.5-45.87-10.66-72.81-7.03l-.04-.27c26.99-3.63,59.73-.46,72.98,7.06l-.13,.24Z"/><path class="cls-1" d="M515.64,24.22c-7.7-4.38-26.77-6.22-42.5-4.1l-.04-.27c15.78-2.12,34.92-.27,42.67,4.13l-.13,.24Z"/><path class="cls-1" d="M522.08,65.73h-.27c.04-21-6.07-37.64-16.33-44.49-5.47-3.65-11.79-4.16-18.27-1.46l-.1-.25c6.57-2.74,12.98-2.23,18.53,1.48,10.34,6.91,16.49,23.62,16.45,44.72Z"/><path class="cls-1" d="M491.78,62.8h-.27c.05-29.59-1.5-45.28-3.07-45.48h-.02c-.17,0-.58,.26-1.14,2.37l-.26-.07c.48-1.82,.94-2.63,1.46-2.57,2.5,.33,3.34,24.85,3.3,45.75Z"/></g><g><path class="cls-1" d="M430.52,88.13l-.2-.12c-4.8-2.73-7.02-5.77-6.44-8.8,.55-2.84,3.53-5.55,8.48-7.92,4.95-19.5,18.19-36.45,35.21-45.43,1.92-3,4.14-5.28,6.6-6.71,4.01-2.33,8.53-2.19,13.06,.38l.35,.2-.4,.05c-6.82,.92-13.36,3.09-19.42,6.29-5.25,8.23-8.32,21.92-8.35,38.42v.12l-.12,.02c-11.34,1.53-20.54,3.93-26.68,6.84-1.34,5.32-2.06,10.83-2.07,16.43v.23Zm1.76-16.51c-4.74,2.3-7.6,4.91-8.13,7.65-.55,2.86,1.55,5.76,6.1,8.39,.03-5.46,.73-10.84,2.03-16.04Zm35-45.29c-16.69,8.97-29.67,25.65-34.6,44.82,6.16-2.89,15.26-5.26,26.45-6.78,.05-16.22,3.04-29.74,8.15-38.04Zm12.88-8.58c-2.02,0-3.97,.55-5.86,1.64-2.31,1.34-4.41,3.45-6.25,6.22,5.85-3.02,12.14-5.11,18.68-6.04-2.25-1.22-4.44-1.82-6.57-1.82Z"/><path class="cls-1" d="M438.12,56.4c-4.15-2.36-6.07-4.99-5.56-7.62,1.07-5.53,12.78-10.45,30.54-12.84l.04,.27c-17.65,2.37-29.26,7.21-30.31,12.62-.48,2.5,1.39,5.03,5.43,7.33l-.13,.24Z"/><path class="cls-1" d="M458.5,31.9c-2.45-1.39-3.58-2.95-3.28-4.51,.63-3.26,7.49-6.15,17.89-7.55l.04,.27c-10.28,1.38-17.05,4.19-17.66,7.33-.28,1.43,.81,2.89,3.14,4.22l-.13,.24Z"/><path class="cls-1" d="M434.59,70.49h-.27c.03-17.4,6.58-32.8,17.97-42.25,9.66-8.02,22.06-11.12,34.89-8.73l-.05,.27c-12.76-2.38-25.07,.7-34.67,8.67-11.32,9.39-17.84,24.72-17.87,42.04Z"/><path class="cls-1" d="M424.23,78.89h-.27c.03-15.77,6.33-30.59,17.74-41.73,11.7-11.42,27.27-17.66,43.98-17.66,.49,0,.99,0,1.48,.02v.27c-.5-.01-.99-.02-1.48-.02-16.64,0-32.14,6.21-43.79,17.58-11.36,11.09-17.62,25.84-17.65,41.53Z"/></g></g><path class="cls-1" d="M487.01,143.38c-.74,0-1.36-.01-1.85-.03-5.29-.18-8.47-.79-11.02-1.29-1.01-.19-3.15-.71-4.51-1.1-1.64-.48-3.75-1.18-5.26-1.75-1.24-.47-2.72-1.09-3.76-1.58-1.39-.66-3.34-1.66-4.87-2.49h0c-.6-.34-1.19-.69-1.76-1.05-.65-.39-1.3-.78-1.84-1.15-1.83-1.26-3.95-2.83-5.41-4-2.14-1.72-4.68-4.29-6.65-6.35-1.31-1.36-2.85-3.24-3.85-4.68l-.61-.87c-.85-1.23-1.82-2.62-2.53-3.76-.47-.75-1.63-2.66-2.38-4.22l-.17-.36c-.68-1.43-1.54-3.22-2.12-4.62-.54-1.31-1.22-3.18-1.68-4.63-.48-1.52-1.06-3.65-1.43-5.29-.37-1.61-.73-3.8-.91-4.96-.41-2.61-.66-6.24-.63-9.03,.03-2.83,.36-6.83,.84-10.2,.77-5.4,3.11-12.26,4.51-15.14q2.86-5.9,4.88-8.99c2.78-4.26,5.2-6.92,6.23-8.06,3.42-3.76,6.22-5.99,7.41-6.94,.94-.75,2.35-1.82,3.48-2.58,1.5-1.01,3.52-2.25,4.91-3.08,2.61-1.55,6.96-3.39,7-3.4,1.73-.68,3.47-1.31,4.65-1.7,1.32-.42,3.18-.94,4.62-1.29,3.21-.77,6.33-1.28,9.55-1.54,4.76-.39,8.29-.15,9.8-.04,4.31,.3,10.99,1.26,18.39,4.18,1.02,.4,4.13,1.63,8.13,3.88,2.08,1.18,5.06,3.04,7.18,4.75,1.43,1.16,3.24,2.64,4.56,3.83,1.11,1.01,2.47,2.4,3.3,3.28,1.08,1.16,2.56,2.88,3.76,4.4,.72,.91,1.56,2.12,2.3,3.18l.49,.7c.11,.15,2.65,3.81,5.03,9.12q1.53,3.41,3.46,9.83c.92,3.08,2.15,10.37,2.03,16.04-.07,3.22-.48,7.38-.84,10.2-.23,1.75-.72,4.04-1.21,5.7q-1.9,6.32-3.44,9.75c-2.08,4.65-4.15,7.78-4.93,8.96-.71,1.08-2.09,3.1-3.26,4.49-1.94,2.31-4.4,4.97-6.26,6.79-1.27,1.25-3.01,2.69-4.22,3.62-1.72,1.33-3.78,2.79-5.25,3.71-1.84,1.16-4.42,2.58-6.4,3.55-2.66,1.29-4.81,2.07-6.24,2.59-.99,.36-6.25,2.2-12.67,3.06h0c-3.45,.46-6.47,.57-8.58,.57Zm-31.12-8.47c1.51,.83,3.46,1.83,4.85,2.48,1.03,.49,2.5,1.1,3.73,1.57,1.5,.56,3.6,1.26,5.24,1.74,1.35,.39,3.47,.9,4.48,1.09,2.55,.49,5.72,1.1,10.99,1.28,1.89,.07,5.74,.08,10.38-.54,6.39-.86,11.63-2.69,12.61-3.04,1.42-.51,3.56-1.29,6.21-2.58,1.98-.96,4.54-2.38,6.38-3.53,1.47-.92,3.52-2.37,5.23-3.69,1.14-.88,2.92-2.36,4.19-3.6,1.85-1.82,4.3-4.48,6.24-6.77,1.16-1.38,2.53-3.39,3.24-4.46,.78-1.18,2.84-4.3,4.91-8.92q1.53-3.42,3.42-9.72c.49-1.64,.98-3.92,1.21-5.66,.36-2.82,.77-6.96,.84-10.17,.11-5.65-1.1-12.9-2.02-15.96q-1.92-6.4-3.44-9.8c-2.36-5.28-4.89-8.92-5-9.07l-.49-.7c-.74-1.06-1.58-2.26-2.29-3.17-1.2-1.51-2.67-3.23-3.74-4.38-.82-.88-2.18-2.26-3.29-3.26-1.31-1.19-3.12-2.66-4.55-3.82-2.1-1.7-5.07-3.55-7.14-4.72-3.98-2.24-7.08-3.46-8.09-3.87-7.37-2.91-14.02-3.87-18.31-4.16-1.5-.1-5.02-.35-9.76,.04-3.2,.26-6.31,.76-9.51,1.54-1.44,.35-3.29,.87-4.61,1.29-1.18,.38-2.91,1.01-4.64,1.69-.04,.02-4.36,1.84-6.96,3.38-1.39,.82-3.41,2.06-4.9,3.07-1.12,.76-2.52,1.82-3.46,2.57-1.19,.95-3.98,3.18-7.38,6.92-1.03,1.13-3.44,3.78-6.21,8.02q-2,3.08-4.86,8.96c-1.39,2.87-3.72,9.69-4.49,15.06-.48,3.36-.81,7.35-.84,10.16-.03,2.78,.22,6.39,.62,8.99,.18,1.16,.54,3.33,.9,4.94,.37,1.63,.95,3.75,1.43,5.27,.46,1.45,1.13,3.31,1.67,4.61,.58,1.39,1.43,3.17,2.11,4.61l.17,.36c.74,1.55,1.9,3.45,2.36,4.19,.71,1.14,1.67,2.52,2.53,3.75l.61,.87c.99,1.43,2.52,3.3,3.82,4.65,1.96,2.05,4.49,4.61,6.62,6.32,.14,.11,.29,.23,.44,.35-10.52-9.51-16.71-23.61-17.09-39.53,0-.08,0-.16,0-.24,0-.43-.01-.86-.01-1.29v-.12c.06-33.49,25.58-64.17,56.89-68.38l.04,.27c-31.18,4.19-56.59,34.74-56.65,68.11v.12c0,19.58,8.78,36.55,23.61,45.85,.21,.12,.41,.25,.62,.37,.4,.24,.79,.47,1.14,.68Z"/></g><path class="cls-2" d="M495.57,142.67c-4.66,.62-8.52,.61-10.41,.54-5.28-.18-8.46-.79-11.01-1.28-1.01-.19-3.14-.7-4.49-1.1-1.59-.46-3.69-1.16-5.25-1.74-1.14-.43-2.64-1.05-3.74-1.57-1.48-.7-3.42-1.7-4.86-2.49-15.35-8.72-25.47-25.99-25.43-47.13,.06-33.42,25.53-64.04,56.77-68.24-31.24,4.2-56.71,34.82-56.77,68.24-.04,21.14,10.09,38.41,25.43,47.13-1.08-.66-2.55-1.48-3.59-2.2-1.66-1.14-3.83-2.73-5.41-4-2.15-1.72-4.73-4.35-6.63-6.33-1.25-1.31-2.8-3.17-3.83-4.66-.95-1.38-2.25-3.2-3.14-4.63-.77-1.23-1.75-2.9-2.37-4.21-.71-1.48-1.66-3.45-2.29-4.97-.56-1.36-1.23-3.22-1.68-4.62-.5-1.56-1.07-3.68-1.43-5.28-.34-1.47-.67-3.46-.9-4.95-.42-2.68-.66-6.3-.62-9.01,.03-3.07,.41-7.15,.84-10.18,.75-5.25,3.06-12.13,4.5-15.1q2.86-5.89,4.87-8.98c2.77-4.25,5.19-6.91,6.22-8.04,3.41-3.75,6.21-5.98,7.4-6.93,1.01-.81,2.39-1.85,3.46-2.58,1.44-.97,3.41-2.19,4.91-3.07,2.61-1.55,6.94-3.38,6.98-3.39,1.38-.54,3.23-1.24,4.65-1.69s3.22-.95,4.61-1.29c3.2-.77,6.32-1.28,9.53-1.54,4.74-.39,8.27-.14,9.78-.04,4.3,.3,10.97,1.26,18.35,4.17,1.02,.4,4.13,1.63,8.11,3.87,2.24,1.27,5.16,3.12,7.16,4.74,1.39,1.12,3.23,2.63,4.55,3.82,1.03,.93,2.34,2.25,3.29,3.27,1.18,1.26,2.68,3.03,3.75,4.39,.89,1.12,1.96,2.7,2.79,3.87,.11,.15,2.63,3.76,5.01,9.09q1.52,3.4,3.45,9.81c.94,3.13,2.14,10.39,2.03,16-.06,3.07-.45,7.14-.84,10.18-.22,1.73-.71,4.01-1.21,5.68q-1.9,6.31-3.43,9.73c-2.07,4.64-4.14,7.77-4.92,8.94-.91,1.38-2.18,3.21-3.25,4.48-1.78,2.12-4.27,4.85-6.25,6.78-1.19,1.16-2.89,2.59-4.2,3.61-1.52,1.18-3.61,2.68-5.24,3.7-1.86,1.17-4.42,2.58-6.39,3.54-2.65,1.29-4.8,2.07-6.22,2.59-.99,.36-6.24,2.19-12.64,3.05Z"/></g></g></svg>