<?xml version="1.0" encoding="UTF-8"?><svg id="music_line" xmlns="http://www.w3.org/2000/svg" viewBox="0 0 970 300"><defs><style>.cls-1{fill:none;stroke:#000;stroke-linecap:round;stroke-linejoin:round;}</style></defs><path class="cls-1" d="M19.79,150c4.59,.02,4.59-.05,9.18,.06,2.29,.12,3.44,.12,4.59-.06,.57-.09,1.15-.23,1.86-.39,.72-.16,1.58-.4,2.73-.57,1.15-.18,2.01-.26,2.72-.06,.72,.18,1.29,.55,1.86,1.02,.57,.47,1.15,1,1.86,1.56,.72,.55,1.58,1.11,2.72,1.42,2.29,.65,3.44-.81,4.59-2.98,.57-1.06,1.15-2.25,1.86-3.29,.72-1.04,1.58-1.95,2.72-2.29,1.15-.34,2.01,.14,2.72,1.2,.72,1.05,1.29,2.66,1.86,4.39,1.15,3.42,2.29,7.45,4.59,8.11,2.29,.62,3.44-3.53,4.59-8.11,.57-2.28,1.15-4.66,1.86-6.55,.72-1.9,1.58-3.3,2.72-3.47,2.29-.41,3.44,4.62,4.59,10.03,1.15,5.35,2.29,10.98,4.59,11.25,2.29,.22,3.44-5.42,4.59-11.25,1.15-5.82,2.29-11.81,4.59-12.05,2.29-.28,3.44,5.76,4.59,12.05,1.15,6.29,2.29,12.89,4.59,13.37,2.29,.59,3.44-6.12,4.59-13.37,1.15-7.2,2.29-15,4.59-15.84,.57-.18,1.08,.14,1.52,.87,.45,.73,.84,1.92,1.2,3.38,.72,2.93,1.29,7.15,1.86,11.6,.57,4.45,1.15,9.14,1.86,13.01,.72,3.86,1.58,7.03,2.72,7.88,1.15,.96,2.01-1.05,2.73-4.99,.72-3.91,1.29-9.72,1.86-15.9,.57-6.18,1.15-12.71,1.86-18.03,.72-5.33,1.58-9.42,2.73-10.24,1.15-.87,2.01,2.27,2.73,7.61,.72,5.36,1.29,12.89,1.86,20.66,.57,7.76,1.15,15.76,1.86,22.02,.36,3.14,.75,5.83,1.2,7.79,.45,1.99,.95,3.21,1.52,3.41,1.15,.4,2.01-3.78,2.73-10.11,.72-6.34,1.29-14.79,1.86-23.11,.57-8.33,1.15-16.52,1.86-22.42,.72-5.91,1.58-9.53,2.73-9.03,1.15,.48,2.01,4.83,2.72,10.7,.72,5.9,1.29,13.43,1.86,20.76,.57,7.33,1.15,14.42,1.86,19.47,.72,5.05,1.58,8.05,2.72,7.38,1.15-.67,2.01-4.45,2.72-9.46,.72-5.04,1.29-11.35,1.86-17.38,.57-6.03,1.15-11.79,1.86-15.79,.72-4.01,1.58-6.21,2.72-5.48,1.15,.73,2.01,3.89,2.73,7.85,.72,3.98,1.29,8.84,1.86,13.42,.57,4.58,1.15,8.87,1.86,11.76,.72,2.89,1.58,4.37,2.73,3.64,1.15-.72,2.01-3.1,2.73-5.97,.72-2.88,1.29-6.29,1.86-9.43,.57-3.14,1.15-6.04,1.86-7.92,.72-1.89,1.58-2.72,2.73-2.14,1.15,.59,2.01,2.25,2.72,4.08,.72,1.86,1.29,4.02,1.86,5.98,1.15,3.96,2.29,6.98,4.59,6.02,2.29-.85,3.44-3.78,4.59-6.02,.57-1.14,1.15-2.17,1.86-2.81,.72-.67,1.58-.85,2.72-.65,2.29,.48,3.44,2.02,4.59,3.46,1.15,1.46,2.29,2.77,4.59,3.01,2.29,.32,3.44-1.04,4.59-3.01,.57-.97,1.15-2.07,1.86-3.05,.72-.97,1.58-1.91,2.72-2.34,1.15-.48,2.01-.11,2.73,.91,.72,1.02,1.29,2.65,1.86,4.47,.57,1.82,1.15,3.83,1.86,5.57,.72,1.71,1.58,3.23,2.73,3.69,1.15,.47,2.01-.39,2.72-2.14,.72-1.74,1.29-4.34,1.86-7.11,1.15-5.49,2.29-11.81,4.59-12.56,1.15-.31,2.01,1.07,2.72,3.45,.72,2.38,1.29,5.7,1.86,9.11,1.15,6.79,2.29,13.97,4.59,14.31,4.59,.61,4.59-28.77,9.17-30.01,1.15-.28,2.01,1.39,2.72,4.33,.72,2.92,1.29,7.03,1.86,11.37,.57,4.32,1.15,8.86,1.86,12.53,.72,3.65,1.58,6.59,2.72,7.34,1.15,.83,2.01-1.15,2.72-4.84,.72-3.7,1.29-9.19,1.86-15.04,.57-5.85,1.15-12.07,1.86-17.3,.72-5.19,1.58-9.47,2.72-10.91,.57-.68,1.08-.47,1.52,.64,.45,1.12,.84,3.05,1.2,5.69,.72,5.28,1.29,13.2,1.86,21.88,.57,8.66,1.15,17.96,1.86,25.86,.72,7.86,1.58,14.32,2.72,16.44,1.15,2.07,2.01-1.86,2.72-9.85,.72-7.95,1.29-19.8,1.86-32.45,.57-12.64,1.15-26.1,1.86-37.07,.72-10.94,1.58-19.59,2.72-21.46,1.15-1.95,2.01,4.32,2.73,15.42,.72,11.04,1.29,26.82,1.86,43.11,.57,16.29,1.15,33.14,1.86,46.29,.36,6.59,.75,12.21,1.2,16.35,.45,4.17,.95,6.72,1.52,7.2,.57,.44,1.08-1.43,1.52-5.02,.45-3.65,.84-9.03,1.2-15.61,.72-13.2,1.29-31.12,1.86-49.21,.57-18.07,1.15-36.3,1.86-49.99,.72-13.73,1.58-22.92,2.73-22.53,1.15,.41,2.01,10.11,2.72,23.84,.72,13.73,1.29,31.5,1.86,48.68,.57,17.19,1.15,33.83,1.86,45.4,.36,5.79,.75,10.3,1.2,13.02,.45,2.69,.95,3.62,1.52,2.49,1.15-2.53,2.01-11.82,2.72-23.24,.72-11.43,1.29-25.08,1.86-37.67,.57-12.6,1.15-24.16,1.86-31.6,.36-3.72,.75-6.49,1.2-7.93,.22-.73,.46-1.12,.71-1.18,.25-.1,.52,.14,.81,.73,1.15,2.5,2.01,8.67,2.72,16.02,.72,7.34,1.29,15.95,1.86,23.96,.57,8.02,1.15,15.45,1.86,20.54,.36,2.54,.75,4.57,1.2,5.76,.22,.63,.46,1.09,.71,1.33,.13,.12,.26,.19,.39,.2,.13,.04,.27,.02,.42-.05,1.15-.56,2.01-3.59,2.72-8.57,.72-4.94,1.29-11.79,1.86-19.22,.57-7.43,1.15-15.4,1.86-22.4,.72-6.9,1.58-13.09,2.72-15.31,.57-1.14,1.08-.78,1.52,.72,.45,1.57,.84,4.31,1.2,7.94,.72,7.27,1.29,18.01,1.86,29.05,.57,11.03,1.15,22.4,1.86,30.84,.72,8.43,1.58,13.82,2.72,13.44,1.15-.44,2.01-6.38,2.73-14.74,.72-8.36,1.29-19.12,1.86-29.54,.57-10.42,1.15-20.52,1.86-27.55,.36-3.52,.75-6.31,1.2-8.03,.45-1.69,.95-2.33,1.52-1.71,1.15,1.38,2.01,6.93,2.73,13.87,.72,6.97,1.29,15.47,1.86,23.41,.57,7.95,1.15,15.37,1.86,20.31,.36,2.46,.75,4.36,1.2,5.43,.45,1.06,.95,1.34,1.52,.76,1.15-1.27,2.01-5.13,2.72-10.07,.72-4.9,1.29-10.82,1.86-16.43,.57-5.62,1.15-10.93,1.86-14.66,.72-3.74,1.58-5.89,2.72-5.53,2.29,.68,3.44,10.12,4.59,20.19,.57,5.01,1.15,10.16,1.86,14.26,.36,2.06,.75,3.89,1.2,5.27,.45,1.42,.95,2.41,1.52,2.81,1.15,.8,2.01-1.41,2.72-5.63,.72-4.19,1.29-10.31,1.86-16.71,.57-6.4,1.15-13.1,1.86-18.37,.36-2.65,.75-4.92,1.2-6.58,.22-.83,.46-1.52,.71-2.03,.25-.48,.52-.77,.81-.86,1.15-.37,2.01,3.1,2.72,8.39,.72,5.27,1.29,12.38,1.86,19.44,1.15,14.15,2.29,28.2,4.59,27.3,1.15-.39,2.01-4.2,2.73-9.3,.72-5.13,1.29-11.66,1.86-17.99,.57-6.34,1.15-12.48,1.86-16.86,.72-4.38,1.58-7.05,2.73-6.59,1.15,.45,2.01,3.9,2.73,8.36,.72,4.48,1.29,9.99,1.86,15.08,.57,5.1,1.15,9.81,1.86,12.89,.72,3.08,1.58,4.5,2.73,3.93,1.15-.58,2.01-2.55,2.72-5.54,.72-2.98,1.29-6.99,1.86-11.29,.57-4.28,1.15-8.89,1.86-12.74,.72-3.84,1.58-6.91,2.72-7.85,1.15-.94,2.01,1.03,2.72,4.93,.72,3.85,1.29,9.56,1.86,15.66,.57,6.11,1.15,12.56,1.86,17.9,.72,5.32,1.58,9.58,2.72,10.68,1.15,1.16,2.01-1.68,2.72-7.08,.72-5.36,1.29-13.19,1.86-21.5,.57-8.31,1.15-17.05,1.86-24.21,.72-7.13,1.58-12.73,2.72-14.03,1.15-1.31,2.01,2.68,2.73,9.84,.72,7.16,1.29,17.52,1.86,28.39,.57,10.87,1.15,22.25,1.86,31.4,.72,9.12,1.58,16.09,2.73,17.47,1.15,1.38,2.01-3.87,2.73-13.07,.72-9.18,1.29-22.23,1.86-35.8,.57-13.56,1.15-27.63,1.86-38.77,.72-11.12,1.58-19.41,2.73-20.75,.57-.66,1.08,.63,1.52,3.52,.45,2.9,.84,7.38,1.2,12.98,.72,11.19,1.29,26.87,1.86,43.02,.57,16.15,1.15,32.78,1.86,45.82,.72,13.01,1.58,22.51,2.72,23.8,1.15,1.29,2.01-6.36,2.72-19.43,.72-13.05,1.29-31.26,1.86-50.19,.57-18.9,1.15-38.46,1.86-53.98,.72-15.43,1.58-27.11,2.72-29.06,.57-.97,1.08,.79,1.52,4.8,.45,4,.84,10.22,1.2,18.03,.72,15.6,1.29,37.55,1.86,60.22,.57,22.65,1.15,46.02,1.86,64.23,.72,18.14,1.58,31.35,2.73,32.57,1.15,1.23,2.01-10.34,2.73-28.64,.72-18.27,1.29-43.14,1.87-68.16,.57-25.02,1.15-50.22,1.87-69.11,.72-18.9,1.58-31.46,2.73-31.13,1.15,.32,2.01,13.31,2.73,32.15,.72,18.85,1.29,43.65,1.86,68.08,.57,24.44,1.15,48.53,1.86,66.08,.72,17.56,1.58,28.48,2.73,27.01,1.15-1.47,2.01-14.22,2.72-31.68,.72-17.5,1.29-39.83,1.86-61.4,.57-21.58,1.15-42.45,1.86-57.08,.72-14.67,1.58-23.16,2.72-20.74,1.15,2.36,2.01,13.57,2.73,28.09,.72,14.56,1.29,32.59,1.86,49.73,.57,17.15,1.15,33.38,1.86,44.53,.36,5.59,.75,9.91,1.2,12.52,.45,2.62,.95,3.46,1.52,2.44,.57-1.05,1.08-3.81,1.52-7.66,.45-3.87,.84-8.74,1.2-14.28,.72-11.09,1.29-24.63,1.87-37.55,.57-12.93,1.15-25.15,1.87-33.7,.36-4.27,.75-7.58,1.2-9.72,.45-2.12,.95-2.94,1.52-2.37,.29,.3,.56,.93,.81,1.84,.25,.88,.49,2.04,.71,3.43,.45,2.79,.84,6.5,1.2,10.72,.72,8.5,1.29,19.28,1.86,29.8,.57,10.53,1.15,20.8,1.86,28.35,.72,7.55,1.58,12.37,2.73,12.15,2.29-.41,3.44-20.29,4.59-40.5,1.15-20.17,2.29-40.66,4.59-41.69,.57-.28,1.08,.8,1.52,2.92,.45,2.08,.84,5.23,1.2,9.13,.72,7.8,1.29,18.54,1.86,29.64,.57,11.08,1.15,22.49,1.86,31.46,.72,8.98,1.58,15.59,2.73,16.68,1.15,1.1,2.01-4.14,2.73-13.21,.72-9.04,1.29-21.75,1.86-34.93,.57-13.17,1.15-26.81,1.86-37.57,.72-10.74,1.58-18.69,2.73-19.91,1.15-1.21,2.01,5.3,2.73,16.11,.72,10.79,1.29,25.89,1.86,41.38,.57,15.49,1.15,31.35,1.86,43.67,.36,6.17,.75,11.4,1.2,15.24,.45,3.84,.95,6.25,1.52,6.61,.29,.19,.56-.15,.81-.95,.25-.82,.49-2.12,.72-3.82,.45-3.41,.84-8.43,1.2-14.61,.72-12.36,1.29-29.15,1.86-46.14,.57-16.96,1.15-34.14,1.86-47.09,.72-12.94,1.58-21.78,2.73-21.84,1.15-.07,2.01,8.63,2.73,21.6,.72,12.97,1.29,30.21,1.87,47.33,.57,17.13,1.15,34.14,1.87,46.7,.72,12.53,1.58,20.45,2.73,18.75,1.15-1.65,2.01-11.62,2.73-24.06,.36-6.23,.68-13.18,.99-20.25,.28-6.75,.58-13.95,.88-21.14,.57-13.74,1.15-26.25,1.86-33.61,.72-7.46,1.58-9.82,2.73-5.52,.57,2.1,1.08,5.11,1.52,8.43,.45,3.29,.84,6.82,1.2,10.43,.72,7.14,1.29,14.33,1.87,20.26,.57,5.94,1.15,10.65,1.87,13.12,.18,.64,.37,1.13,.57,1.48,.2,.34,.41,.61,.63,.68,.22,.06,.46,.08,.72-.08,.25-.19,.52-.39,.81-.76,4.59-5.52,4.59-23.74,9.18-27.66,.29-.24,.56-.38,.81-.42,.25-.03,.49,.03,.72,.2,.45,.33,.84,1.2,1.2,2.38,.72,2.4,1.29,6.44,1.86,11.07,.57,4.63,1.15,9.84,1.86,14.45,.72,4.55,1.58,8.58,2.73,9.86,1.15,1.28,2.01-1.27,2.73-5.96,.72-4.67,1.29-11.45,1.87-18.35,.57-6.91,1.15-13.97,1.87-19.24,.72-5.25,1.58-8.7,2.73-7.93,1.15,.72,2.01,5.14,2.73,10.3,.72,5.24,1.29,11.39,1.86,16.87,.57,5.48,1.15,10.3,1.86,13.15,.36,1.45,.75,2.33,1.2,2.74,.22,.21,.46,.27,.72,.18,.25-.04,.52-.22,.81-.55,2.3-2.56,3.44-8.86,4.59-15.53,1.15-6.63,2.3-13.43,4.59-13.63,2.3-.19,3.44,6.61,4.59,13.63,1.15,7,2.3,14.21,4.59,14.45,2.3,.3,3.44-6.9,4.59-14.45,.57-3.77,1.15-7.62,1.87-10.59,.72-2.98,1.58-5.15,2.73-5.41,1.15-.27,2.01,1.48,2.73,4.49,.72,3.01,1.29,7.17,1.86,11.51,.57,4.33,1.15,8.82,1.87,12.37,.72,3.57,1.58,6.28,2.73,6.77,1.15,.54,2.01-1.44,2.73-5.06,.72-3.6,1.29-8.69,1.87-14.08,.57-5.38,1.15-11.01,1.87-15.54,.72-4.54,1.58-8.08,2.73-8.85,.57-.36,1.08,.03,1.52,1.12,.45,1.09,.84,2.87,1.2,5.16,.72,4.58,1.29,11.18,1.87,18.11,.57,6.93,1.15,14.22,1.87,20.1,.36,2.94,.75,5.53,1.2,7.51,.45,2,.95,3.42,1.52,3.92,.57,.5,1.08-.06,1.52-1.5,.45-1.43,.84-3.79,1.2-6.69,.72-5.76,1.29-13.95,1.87-23.34,.3-5.03,.6-10.05,.88-14.76,.36-5.62,.7-10.86,.99-15.36,.36-5.03,.75-10.12,1.2-14.61,.45-4.57,.95-8.64,1.52-11.29,.57-2.55,1.08-3.06,1.52-1.36,.22,.92,.43,2.33,.63,4.19,.2,1.9,.39,4.31,.57,7.04,.72,10.96,1.29,28.27,1.86,46.16,.57,17.9,1.15,36.52,1.86,50.13,.72,13.57,1.58,22.22,2.73,20.6,1.15-1.62,2.01-12.29,2.72-25.74,.36-6.73,.68-14.28,.99-21.95,.28-7.35,.58-15.19,.88-23.03,.57-15.03,1.15-28.7,1.86-36.95,.36-4.15,.75-6.99,1.2-8.21,.45-1.23,.95-.82,1.52,1.27,.29,1.04,.56,2.35,.81,3.85,.25,1.5,.49,3.19,.72,4.88,.45,3.42,.84,7.45,1.2,11.36,.36,3.96,.68,8.09,.99,12.14,.28,3.72,.58,7.69,.88,11.66,.57,7.39,1.15,13.76,1.86,17.8,.72,4.13,1.58,5.88,2.73,5.39,1.15-.45,2.01-3.23,2.73-7.45,.72-4.2,1.29-9.84,1.86-15.74,.57-5.9,1.15-12.04,1.86-17.22,.72-5.16,1.58-9.44,2.73-11.22,1.15-1.75,2.01,.3,2.73,5.65,.72,5.27,1.29,13.56,1.86,22.79,.57,9.21,1.15,19.32,1.86,27.98,.72,8.63,1.58,15.93,2.73,18.21,.57,1.05,1.08,.52,1.52-1.42,.45-1.99,.84-5.33,1.2-9.74,.72-8.77,1.29-21.63,1.86-35.03,.57-13.39,1.15-27.37,1.86-38.28,.72-10.92,1.58-18.79,2.73-19.41,2.3-1.14,3.44,28.87,4.59,57.69,.57,14.44,1.15,28.65,1.87,38.82,.36,5.05,.75,9.17,1.2,11.73,.45,2.58,.95,3.74,1.52,3.11,.57-.65,1.08-2.89,1.52-6.19,.45-3.3,.84-7.63,1.2-12.64,.72-10.03,1.29-22.62,1.86-34.82,.57-12.2,1.15-24.04,1.86-32.52,.72-8.5,1.58-13.56,2.73-12.64,1.15,1.03,2.01,7.32,2.73,15.75,.72,8.46,1.29,19.16,1.87,29.4,.57,10.25,1.15,20.11,1.87,26.96,.72,6.86,1.58,10.69,2.73,9.46,1.15-1.26,2.01-6.61,2.73-13.4,.72-6.81,1.29-15.15,1.87-23.02,.57-7.87,1.15-15.27,1.87-20.26,.72-5.02,1.58-7.55,2.73-6.29,1.15,1.28,2.01,5.27,2.73,10.22,.72,4.96,1.29,10.84,1.87,16.34,.57,5.51,1.15,10.57,1.87,13.98,.36,1.71,.75,2.99,1.2,3.71,.45,.74,.95,.86,1.52,.47,1.15-.87,2.01-3.58,2.73-6.93,.72-3.37,1.29-7.41,1.87-11.23,.57-3.82,1.15-7.44,1.87-9.91,.72-2.52,1.58-3.89,2.73-3.55,2.3,.69,3.44,7.16,4.59,13.46,1.15,6.47,2.3,11.39,4.59,18.74,.14,.44,.28,.79,.42,1.16,.13,.39,.27,.72,.39,.99,.13,.28,.25,.48,.37,.65,.12,.2,.23,.33,.35,.4,.45,.28,.84-.51,1.2-2.24,.72-3.45,1.29-10.73,1.87-19.7,.3-4.81,.6-9.62,.88-14.13,.31-4.85,.63-9.71,.99-14.1,.72-8.78,1.58-15.84,2.73-15.9,1.15,.11,2.01,5.96,2.73,14.36,.72,8.39,1.29,19.28,1.87,29.77,.57,10.5,1.15,20.6,1.87,27.52,.72,6.92,1.58,10.53,2.73,8.55,1.15-1.93,2.01-7.93,2.73-14.66,.72-6.83,1.29-14.56,1.87-21.41,.57-6.86,1.15-12.83,1.87-16.26,.36-1.71,.75-2.81,1.2-3.2,.45-.38,.95,.02,1.52,1.01,.29,.51,.56,1.13,.81,1.82,.25,.68,.49,1.37,.72,2.13,.45,1.51,.84,3.22,1.2,4.88,.72,3.34,1.29,6.73,1.87,9.61,.57,2.89,1.15,5.25,1.87,6.62,.72,1.34,1.58,1.78,2.73,1.07,1.15-.77,2.01-2.04,2.73-3.46,.72-1.43,1.29-2.89,1.87-4.23,.57-1.32,1.15-2.46,1.87-3.15,.72-.67,1.58-.96,2.73-.67,2.3,.47,3.44,2.19,4.59,3.82,1.15,1.62,2.3,3.25,4.59,3.28,4.59,.19,4.59-6.79,9.19-6.43,2.3,.26,3.44,1.94,4.59,3.15,1.15,1.25,2.3,2.1,4.59,1.59,1.15-.24,2.01-.59,2.73-.88,.72-.3,1.29-.53,1.87-.71,.57-.17,1.15-.27,1.87-.29,.72,0,1.58,.07,2.73,.15,2.3,.16,3.45,.13,4.6,.14h4.6"/></svg>