<?xml version="1.0" encoding="UTF-8"?><svg id="digital_line" xmlns="http://www.w3.org/2000/svg" viewBox="0 0 970 300"><defs><style>.cls-1{fill:none;stroke:#000;stroke-linecap:round;stroke-linejoin:round;}</style></defs><path class="cls-1" d="M4.67,247.64c143.06-23.62,119.27-101.68,162.85-93.58,35.32,6.57,28.03,75.32,70.9,91.08,31.71,11.65,77.66-7.76,100.04-38.89,46.64-64.87-18.79-167.14,11.21-186.99,22.63-14.97,77.59,31.5,87.96,40.1,70.32,58.3,198.34,123.02,451.84,143.51"/><path class="cls-1" d="M19.28,252.51c143.06-23.62,119.27-101.68,162.85-93.58,35.32,6.57,28.03,75.32,70.9,91.08,31.71,11.65,77.66-7.76,100.04-38.89,46.64-64.87-18.79-167.14,11.21-186.99,22.63-14.97,77.59,31.5,87.96,40.1,70.32,58.3,198.34,123.02,451.84,143.51"/><path class="cls-1" d="M33.89,257.39c143.06-23.62,119.27-101.68,162.85-93.58,35.32,6.57,28.03,75.32,70.9,91.08,31.71,11.65,77.66-7.76,100.04-38.89,46.64-64.87-18.79-167.14,11.21-186.99,22.63-14.97,77.59,31.5,87.96,40.1,70.32,58.3,198.34,123.02,451.84,143.51"/><path class="cls-1" d="M48.5,262.27c143.06-23.62,119.27-101.68,162.85-93.58,35.32,6.57,28.03,75.32,70.9,91.08,31.71,11.65,77.66-7.76,100.04-38.89,46.64-64.87-18.79-167.14,11.21-186.99,22.63-14.97,77.59,31.5,87.96,40.1,70.32,58.3,198.34,123.02,451.84,143.51"/><path class="cls-1" d="M63.1,267.14c143.06-23.62,119.27-101.68,162.85-93.58,35.32,6.57,28.03,75.32,70.9,91.08,31.71,11.65,77.66-7.76,100.04-38.89,46.64-64.87-18.79-167.14,11.21-186.99,22.63-14.97,77.59,31.5,87.96,40.1,70.32,58.3,198.34,123.02,451.84,143.51"/><path class="cls-1" d="M77.71,272.02c143.06-23.62,119.27-101.68,162.85-93.58,35.32,6.57,28.03,75.32,70.9,91.08,31.71,11.65,77.66-7.76,100.04-38.89,46.64-64.87-18.79-167.14,11.21-186.99,22.63-14.97,77.59,31.5,87.96,40.1,70.32,58.3,198.34,123.02,451.84,143.51"/></svg>