<?xml version="1.0" encoding="UTF-8"?><svg id="index" xmlns="http://www.w3.org/2000/svg" viewBox="0 0 970 483.88"><defs><style>.cls-1{fill:none;stroke:#000;stroke-miterlimit:10;}</style></defs><path class="cls-1" d="M-124.97,8.57c22.67-.74,60.06-.03,102.11,10.34C-1.77,24.11,40.97,35.06,74.71,63.23c16.51,13.78,44,36.72,38.57,63.53-4.85,23.99-31.15,26.75-41.98,58.35-3.58,10.44-10,29.17,3.4,47.27,18.94,25.59,67.77,36.77,106.65,35.46,3.68-.12,58.25-2.5,88.49-29.55,25.51-22.81,8.45-40.6,35.17-66.48,18.7-18.12,44.63-26.42,59-31.02,77.52-24.83,163.64-2.86,195.14,5.17,94.71,24.16,152.1,71.24,170.18,86.42,27.66,23.24,35.86,37.96,77.15,66.48,26.78,18.5,49.92,34.48,85.09,46.54,21.63,7.41,75.67,22.89,157.7,14.77"/><path class="cls-1" d="M-124.97,29.57c22.67-.74,60.06-.03,102.11,10.34,21.09,5.21,63.83,16.16,97.57,44.32,16.51,13.78,44,36.72,38.57,63.53-4.85,23.99-31.15,26.75-41.98,58.35-3.58,10.44-10,29.17,3.4,47.27,18.94,25.59,67.77,36.77,106.65,35.46,3.68-.12,58.25-2.5,88.49-29.55,25.51-22.81,8.45-40.6,35.17-66.48,18.7-18.12,44.63-26.42,59-31.02,77.52-24.83,163.64-2.86,195.14,5.17,94.71,24.16,152.1,71.24,170.18,86.42,27.66,23.24,35.86,37.96,77.15,66.48,26.78,18.5,49.92,34.48,85.09,46.54,21.63,7.41,75.67,22.89,157.7,14.77"/><path class="cls-1" d="M-124.97,50.57c22.67-.74,60.06-.03,102.11,10.34,21.09,5.21,63.83,16.16,97.57,44.32,16.51,13.78,44,36.72,38.57,63.53-4.85,23.99-31.15,26.75-41.98,58.35-3.58,10.44-10,29.17,3.4,47.27,18.94,25.59,67.77,36.77,106.65,35.46,3.68-.12,58.25-2.5,88.49-29.55,25.51-22.81,8.45-40.6,35.17-66.48,18.7-18.12,44.63-26.42,59-31.02,77.52-24.83,163.64-2.86,195.14,5.17,94.71,24.16,152.1,71.24,170.18,86.42,27.66,23.24,35.86,37.96,77.15,66.48,26.78,18.5,49.92,34.48,85.09,46.54,21.63,7.41,75.67,22.89,157.7,14.77"/><path class="cls-1" d="M-124.97,71.57c22.67-.74,60.06-.03,102.11,10.34,21.09,5.21,63.83,16.16,97.57,44.32,16.51,13.78,44,36.72,38.57,63.53-4.85,23.99-31.15,26.75-41.98,58.35-3.58,10.44-10,29.17,3.4,47.27,18.94,25.59,67.77,36.77,106.65,35.46,3.68-.12,58.25-2.5,88.49-29.55,25.51-22.81,8.45-40.6,35.17-66.48,18.7-18.12,44.63-26.42,59-31.02,77.52-24.83,163.64-2.86,195.14,5.17,94.71,24.16,152.1,71.24,170.18,86.42,27.66,23.24,35.86,37.96,77.15,66.48,26.78,18.5,49.92,34.48,85.09,46.54,21.63,7.41,75.67,22.89,157.7,14.77"/><path class="cls-1" d="M-124.97,92.57c22.67-.74,60.06-.03,102.11,10.34,21.09,5.21,63.83,16.16,97.57,44.32,16.51,13.78,44,36.72,38.57,63.53-4.85,23.99-31.15,26.75-41.98,58.35-3.58,10.44-10,29.17,3.4,47.27,18.94,25.59,67.77,36.77,106.65,35.46,3.68-.12,58.25-2.5,88.49-29.55,25.51-22.81,8.45-40.6,35.17-66.48,18.7-18.12,44.63-26.42,59-31.02,77.52-24.83,163.64-2.86,195.14,5.17,94.71,24.16,152.1,71.24,170.18,86.42,27.66,23.24,35.86,37.96,77.15,66.48,26.78,18.5,49.92,34.48,85.09,46.54,21.63,7.41,75.67,22.89,157.7,14.77"/><path class="cls-1" d="M-124.97,113.57c22.67-.74,60.06-.03,102.11,10.34,21.09,5.21,63.83,16.16,97.57,44.32,16.51,13.78,44,36.72,38.57,63.53-4.85,23.99-31.15,26.75-41.98,58.35-3.58,10.44-10,29.17,3.4,47.27,18.94,25.59,67.77,36.77,106.65,35.46,3.68-.12,58.25-2.5,88.49-29.55,25.51-22.81,8.45-40.6,35.17-66.48,18.7-18.12,44.63-26.42,59-31.02,77.52-24.83,163.64-2.86,195.14,5.17,94.71,24.16,152.1,71.24,170.18,86.42,27.66,23.24,35.86,37.96,77.15,66.48,26.78,18.5,49.92,34.48,85.09,46.54,21.63,7.41,75.67,22.89,157.7,14.77"/></svg>