<?xml version="1.0" encoding="UTF-8"?><svg id="new_index_2" xmlns="http://www.w3.org/2000/svg" width="2000" height="679.38" viewBox="0 0 2000 679.38"><defs><style>.cls-1{fill:none;stroke:#000;stroke-miterlimit:10;}</style></defs><path class="cls-1" d="M-2.19,192.98c43.34-9.62,82.33-14.64,124.34,3.3,15.22,6.5,29.58,14.89,45.03,20.87,18.24,7.06,34.7,7.52,53.87,9.28,33.57,3.09,64.45,17.33,96.84,25.43,34.54,8.64,68.45,6.62,103.04-.93,59.37-12.96,117.36-32.29,176.56-46.16,57.98-13.58,119.45-15.77,178.63-22.56,26.11-3,52.88-1.29,78.71-6.04,26.24-4.82,50.79-16.57,77.31-20.09,30.98-4.12,61.39,5.59,90.31,15.75,42.23,14.83,83.19,33.78,126.81,44.39,30.39,7.39,52.8,7.46,81.86-3.16,32.36-11.84,64.16-27.65,98.82-31.59,32.03-3.63,59.97-6.3,90.37-18.71,33.25-13.58,65.53-30.94,96.86-48.48,35.66-19.95,70.09-45.8,110.76-54.6,52.36-11.33,97.87,23.61,138.38,52.01,31.01,21.73,61.3,45.46,94.9,63.19,22.69,11.97,46.5,17.11,70.59,25.01,32.23,10.57,59.58,19.08,94.02,19.41,5.26,10.44,8.75,3.96,14.69,8,11.09,7.53,15.54,17.18,20.81,29.52,13.27,31.08,19.66,58.28,40.5,85.52,29.37,38.38,59.87,75.94,87.36,115.72,54.82,79.32,108.9,159.16,163.35,238.74-211.46,0-422.92,.13-634.37,.03-45.64-.02-91.28-.06-136.92-.04-21.04,0-78.24-11.52-81.98,16.61-1.93,14.5,10.93,31.96,4.13,45.98-6.62,13.66-27.05,9.98-39.16,9.92-67.65-.35-135.28-1.57-202.93-2.24-28.44-.28-58.28,2.81-85.66-6.32-20.97-6.99-40.51-18.02-59.87-28.46-19.43-10.48-38.92-21.56-59.85-28.84-21.38-7.44-42.62-6.33-64.86-7.66-38.91-2.33-77.55-8.15-116.52-9.67-38.94-1.52-77.42,2.84-116.11,6.54-80.06,7.67-157.94-4.72-237.86-4.28-45.37,.25-90.47,5.97-135.77,7.84-38.62,1.59-77.39,.61-116.04,.59-191.98-.11-383.96,0-575.95,0,47.58-79.58,95.15-159.16,142.73-238.74,22.46-37.57,45.63-73.18,60.88-114.34,9.48-25.6,21.07-50.42,31.84-75.49,5.79-13.49,10.42-27.47,21.01-38.07,14.52-14.52,33.72-22.75,48.53-37.18Z"/><path class="cls-1" d="M-286.84,662.79c49.88,0,100.04,1.44,149.9-.09,52.58-1.61,103.44-17.67,155.76-21.8,43.99-3.47,84.34,9.43,127.04,17.2,37.67,6.85,76.12,5.69,113.99,12.07,40.38,6.8,78.12,8.36,118.96,2.71,50.32-6.97,100.94-20.25,151.99-20.2,37.87,.04,75.07,8.68,112.73,11.45,44.9,3.3,88-6.95,131.75-15.66,38.45-7.65,79.03-17.29,118.44-14.06,35.9,2.94,68.07,20.38,103.33,26.15,28.64,4.69,58.48,2.19,87.44,4.62,39.13,3.28,78.29,2.56,117.4,5.82,57.96,4.83,115.65,12.8,173.69,16.59,35.23,2.3,61.46-2.06,94.63-11.1,30.66-8.35,64.33-4.87,95.86-6.06,45.45-1.71,90.08-2.18,135.49,.91,99.49,6.78,197.45-3.81,296.62-8,109.99-4.64,220.99-.55,331.08-.55"/><path class="cls-1" d="M-267.73,630.82c49.44,0,102.42,4.91,151.41-2.28,54.19-7.95,107.57-34.16,162.92-33.52,38.13,.44,71.16,20.51,107.09,30.2,33.62,9.06,68.17,8.06,102.02,18,95.88,28.15,190.27-27.22,286.73-23.72,35.57,1.29,70.15,11.45,105.61,13.78,44.82,2.95,88.24-12.27,131.45-22.12,41.66-9.5,93.26-25.57,136.33-17.05,29.26,5.79,52.63,25.94,81.3,33.28,25.92,6.64,50.78,2.91,73.26-11.24,28.06-17.65,50.18-20.11,83.82-16.49,57.33,6.17,114.08,16.85,171.43,22.88,39.84,4.19,77.51,6.67,116.93,14.67,80.41,16.31,159.74-6.4,240.25,3.17,98.08,11.66,194.39,2.76,292.12-6.59,109.44-10.47,222.53-2.97,332.42-2.97"/><path class="cls-1" d="M-249.73,600.72c47.96,0,96.51,1.98,144.38-1.31,50.97-3.5,101.44-12.58,152.69-11.21,40.52,1.09,80.24,9.82,120.66,12,39.56,2.13,77.75-4.82,116.72-10.15,39.73-5.44,79.65-4.23,119.65-5.5,49.34-1.56,98.73-4.31,148.11-3.21,31.76,.7,63.41,4.19,95.18,4.45,40.78,.34,81.38-3.05,122.25-1.88,38.41,1.1,76.89,2.17,115.27,3.68,34.76,1.37,68.74,8.81,103.33,11.77,33.31,2.85,66.32,.99,99.37-3.46,36.22-4.88,74.24-3.53,109.85-10.9,43.21-8.94,84.19-26.28,127.33-35.49,45.69-9.76,78.21,6.33,117.38,28.45,35.83,20.23,67.56,31.73,108.8,23.58,44.86-8.86,88.19-29.48,134.41-30.49,46.63-1.02,93.72,8.87,140.28,11.43,48.68,2.67,95.61,7.64,143.94,14.03,50.85,6.72,102.64,4.22,153.82,4.22h163.11"/><path class="cls-1" d="M-232.77,572.35c94.78,0,189.57-.34,284.36,.04,40.01,.16,80.02-1.3,120.03-1.06,45.06,.26,83.23-12.83,126.21-24.29,40.61-10.82,80.29-7.57,121.79-5.27,46.61,2.58,93.2,6.11,139.9,5.68,69.29-.63,138.85-1.01,207,12.23,74.78,14.52,148.98,13.17,224.9,13.31,34.75,.06,69.5,.13,104.25-.38,36.06-.53,80.68,6.47,115.08-4.84,40.95-13.47,71.97-47.17,110.32-65.88,45.74-22.32,80.69,1.22,117.84,28.6,34.65,25.53,65.24,48.11,109.79,38.27,46.12-10.19,87.32-37.19,134.3-44.15,41.99-6.22,87.59,5.51,129.24,10.4,23.9,2.8,48.18,2.03,71.95,5.31,23.82,3.29,46.48,11.65,69.29,18.86,49.81,15.76,99.3,13.16,150.94,13.16h162.95"/><path class="cls-1" d="M-216.76,545.57c44.67,0,89.3-.65,133.89,2.42,45.72,3.14,92.29,9.37,137.84,1.68,42.01-7.09,82.78-22.08,125.69-23.29,33.74-.95,67.66-.08,101.42-.1,45.15-.03,88.16-3.49,132.93-10.1,46.86-6.93,103.38-23.14,150.85-12.87,32.39,7.01,58.63,29.3,89.96,39.11,36.29,11.37,79.35,4.72,116.91,4.16,35.73-.54,71.72-2.21,107.43-.24,38.45,2.12,76.54,8.43,114.94,11.22,30.55,2.22,59.21,1.08,89.04-6.12,12.88-3.11,25.59-6.93,38.61-9.47,19.05-3.71,38.29-2.47,57.26-5.72,40.21-6.9,74.51-33.21,111.89-48.03,47.34-18.76,86.21-3.57,130.13,17.53,37.74,18.13,74.87,39.23,117.97,36.69,36.63-2.16,71.33-14.81,107.53-19.66,48.71-6.52,100.1-2.25,149.16-2.23,47.08,.02,90.98,.41,137.08,11.12,102.24,23.75,210.83,13.9,315.28,13.9"/><path class="cls-1" d="M-201.63,520.27c43.14,0,85.43-.11,128.19,6.36,46.64,7.06,88.82,12.38,134.36-3.97,37.83-13.58,76.16-36.3,117.38-36.9,33.11-.49,58.25,16.87,89.23,24.02,49.04,11.32,103.19-9.87,149.83-22.8,30.79-8.54,61.56-17.68,92.95-23.83,20.84-4.08,41.12-7.23,61.14,1.59,35.79,15.78,56.07,54.03,90.85,71.48,34.57,17.34,80.39,2.04,115.96-5.18,31.61-6.42,63-12.34,95.4-10.02,41.97,3.01,82.7,15.16,124.34,20.6,30.18,3.95,57.67,4.17,84.12-12.24,25.37-15.74,41.64-20.53,71.53-23.47,39.51-3.89,75.52-21.6,113.14-32.92,48.89-14.71,90.29-5.3,138.04,10.22,41.38,13.45,83.7,31.29,127.78,32.26,32.1,.71,64.24-.32,96.34-.4,99.44-.25,198.57-21.43,297.47-5.63,100.94,16.13,203.35,10.81,305.34,10.81"/><path class="cls-1" d="M-187.32,496.33c42.51,0,83.71,1.58,125.89,6.94,42.71,5.43,81.95,7.12,123.89-4.58,42.33-11.81,83.53-29.38,128.29-27.08,29.92,1.54,59.23,7.75,89.03,10.37,49.17,4.32,96.45-8.2,144.05-19.16,45.16-10.4,102.86-32.65,147.23-10.59,33.77,16.79,58.61,48.8,94.09,62.52,33.16,12.82,74.76,1.92,108.47-4.18,69.11-12.5,139-16.94,209.25-17.17,64.88-.21,128.09-10.55,192.73-14.93,31.83-2.15,62.16-11.02,93.24-17.44,41.02-8.47,76.74-6.6,117.07,4.99,38.8,11.15,77.43,27.42,118.22,29.31,39.52,1.84,79.54-.65,119.1-1.03,47.4-.45,94.68-1.46,142.05-3.3,49.21-1.92,98.52-5.7,147.34,2.5,47.07,7.9,91.78,17.44,139.89,14.27,54.71-3.6,107.84-11.47,162.86-11.47"/><path class="cls-1" d="M-173.77,473.67c83.2,0,165.88,14.23,248.75,2.34,42.29-6.07,83.84-8.2,126.27-11.76,36.1-3.03,71.69-10.31,107.83-12.9,41.5-2.98,82.41-4.7,123.83-9.63,42.5-5.05,88.66-13.96,129.58,2.73,34.59,14.11,64.71,38.58,100.87,49,33.79,9.74,74.26,2.93,108.55-1.81,28.94-4,59.98-6.99,87.63-16.6,34-11.82,63.47-33.73,97.61-45.06,37.13-12.32,76.57-3.15,114.27,2.51,46.07,6.91,92.15,15.64,138.76,17.81,24.79,1.16,49.48,2.94,74.23,4.7,29.33,2.08,59.18,.77,88.02,7.09,29.73,6.52,57.59,17.15,88.42,17.81,46.64,1,93.53-1.61,140.15-2.64,50.87-1.13,101.37-.38,152.2,1.96,49.69,2.28,101.99-.45,151.03,8.15,44.38,7.79,88.2,25.32,133.95,19.85,55.47-6.62,104.93-33.42,161.67-33.55"/><path class="cls-1" d="M-160.92,452.18c83.38,0,164.89,9.15,248.37,2.62,37.43-2.93,75.72-1.82,112.92-6.19,40.77-4.78,79.5-20.48,120.61-23.12,39.1-2.5,78.47-2.67,117.64-5.03,39.64-2.4,80.46-7.62,118.61,5.95,39.09,13.9,74.93,39.25,116.29,46.42,31.07,5.39,65.38,1.03,96.38-3.29,28.57-3.98,60.12-7.05,86.84-18.16,33.48-13.93,58.64-41.51,91.65-55.96,37.83-16.57,80.52-3.9,118.99,4.53,50.46,11.06,100.82,25.82,152.68,27.87,23.81,.94,45.7,6.22,68.87,11.01,27.35,5.65,55.29,3.95,82.8,8.3,21.49,3.4,42.4,8.85,64.19,10.49,49.73,3.73,100.76-1.7,150.51-3.16,54.34-1.59,107.83-.44,161.92,5.05,26.99,2.74,53.96,5.97,81.05,7.53,23.4,1.35,46.67,.02,69.92,3.62,43.6,6.75,86.16,25.24,130.95,21.98,53.83-3.91,100.86-35.9,154.92-40.42"/><path class="cls-1" d="M-148.73,431.78c41.88,.13,82.94,5.98,124.63,8.85,41.85,2.88,83.69-.06,125.48-2.57,35.78-2.15,74.23,1.07,109.18-7.59,37.88-9.4,72.75-29.97,112.28-32.64,39.21-2.64,78.4-4.12,117.62-7.46,42.35-3.61,82.06-7.02,122.96,6.83,33.8,11.44,66.45,29.1,102.11,34.22,36.49,5.24,73.41-5.61,108.22-15.43,33.2-9.36,66.22-14.95,99.88-22,26.34-5.52,51.87-14.64,78.52-18.7,84.13-12.81,156.24,42.8,238.62,45.74,29.1,1.04,58.44-.87,87.53-1.79,32.59-1.03,66.26,1.47,98.61-2.64,19.69-2.5,38.52-7.99,58.45-8.99,45.37-2.29,90.64-5.42,136.02-7.96,62.14-3.48,121.18,2.16,180.82,20.48,22.79,7,45.23,15.28,68.33,21.27,24.9,6.45,48.55,6.15,73.98,7.96,39.02,2.78,77.4,12.01,116.63,12.29,54.62,.38,106.23-22.21,159.98-29.02"/><path class="cls-1" d="M-137.13,412.47c41.6,1.47,82.4,9.13,123.82,12.42,41.03,3.25,82.37,.55,123.43-.94,38.03-1.38,76.25,2.33,111.94-13.19,34.84-15.16,65.2-37.63,104.15-40.67,39.52-3.09,78.65-6.61,118.08-10.99,39.58-4.39,76.97-6.47,115.77,3.84,32.96,8.76,65.47,22.47,99.79,25.01,42.92,3.18,84.11-16.38,123.19-31.5,33.24-12.86,67.91-27.31,104.19-22.63,24.5,3.16,46.06,14.68,69.68,20.93,30.13,7.97,58.68,7.57,87.93,20.53,34.53,15.3,69.03,39.19,107.64,42.18,39.57,3.06,82.66-8.62,121.44-14.81,19.75-3.15,39.55-6.27,59.47-8.14,17.35-1.63,36.27,.05,52.36-7.68,16.68-8.01,26.2-24.64,44.06-30.95,14.71-5.2,30.7-3.75,46.02-5.09,26.27-2.29,52.32-6.73,78.56-9.3,66.39-6.49,130.74-1.08,191.7,27.89,45.39,21.57,85.1,61.29,137.79,60.67,37.97-.45,75.95,.06,113.92-.42,53.73-.68,105.8-10.87,159.12-16.09"/><path class="cls-1" d="M-126.18,394.58c39.72,2.67,78.98,9.37,118.66,12.38,41.25,3.13,83.23,.44,124.58-.04,35.92-.41,72.56,2.84,105.86-12.86,36.18-17.06,66.53-43.2,108.11-44.92,75.6-3.14,151.69-25.8,226.85-8.73,32.66,7.42,64.94,18.91,98.53,21.48,45.25,3.46,86.81-18.32,127.35-35.56,32.53-13.84,70.37-32.2,106.68-24.51,25.72,5.45,44.15,24.62,67.8,34.58,15.15,6.38,29.49,5.49,45.29,8.42,14.01,2.6,26.99,8.31,39.59,14.79,31.76,16.35,61.19,41.55,98.15,44.57,40.22,3.29,83.49-9.76,122.58-17.55,23.92-4.76,47.98-9.68,72.26-12.31,16.22-1.76,34.36,.91,49.51-6.23,18.16-8.56,24.27-30.21,41.52-39.92,14.51-8.17,32.61-5.92,48.5-7.77,22.99-2.68,45.64-7.69,68.55-10.96,70.82-10.1,145.17-2.45,208.76,32.36,38.48,21.06,73.21,68.07,119.54,69.96,37.22,1.52,74.72-3.79,111.91-4.85,53.28-1.52,105.83-6.37,158.94-10.76"/><path class="cls-1" d="M-116.24,376.69c37.8-.39,75.57-2.42,113.37-2.29,44.99,.16,88.35,5.89,132.96,10.83,40.42,4.47,76.08,3.16,114.33-11.61,41.79-16.14,78.83-34.49,124.36-35.64,67.61-1.71,135.52-13.42,202.59-.49,31.56,6.08,62.85,14.89,95.12,16.35,40.11,1.82,76.37-15.91,112.08-32.01,31.78-14.32,64.66-30.05,100.34-28.99,29.37,.87,56,12.83,83.68,21.2,30.1,9.11,58.6,11.46,86.55,27.32,30.78,17.46,59.75,42.93,96.44,46.15,37.3,3.28,76.89-9.4,112.86-17.54,19.68-4.45,39.42-8.93,59.43-11.67,18.85-2.58,39.53-.32,57.6-7.07,23.78-8.88,39.03-30.78,61.09-42.5,12.35-6.56,25.3-8.39,38.86-10.76,25.57-4.47,50.42-12.53,75.64-18.54,62.4-14.86,127.15-16.97,185.37,14.35,25.1,13.5,45.47,32.81,65.27,52.99,16.55,16.86,32.19,33.83,56.6,37.31,35.6,5.08,75.06-1.51,110.96-2.46,53.24-1.42,106.48-2.25,159.72-3.85"/><path class="cls-1" d="M-108.08,356.46c35.54-6.86,70.51-19.65,106.91-21.28,49.42-2.21,97.37,20.16,144.71,31.03,92.72,21.31,174.91-37.3,266.96-35.03,58.63,1.44,119.42,1.21,177.47,9.19,30.14,4.14,60.26,10.15,90.8,10.14,35.86,0,66.7-14.99,98.19-30.66,63.35-31.51,121.27-38.35,191.01-27.06,33.12,5.36,61.67,11.69,90.23,30.12,29.37,18.96,57.71,45.29,93.99,49.08,33.06,3.46,68.07-9.03,99.49-17.57,15.09-4.1,30.23-8.19,45.62-11.01,18.11-3.32,36.69-2.1,54.65-5.79,32.43-6.66,58.7-28.34,87.05-43.93,37.76-20.76,82.46-32.06,122.85-47.14,51.95-19.39,108.99-35.38,161.49-8.59,29.06,14.83,49.05,38.91,67.89,64.74,13.01,17.83,26.98,43.58,50.04,50.17,17.7,5.06,39.48,1.53,57.83,1.31,17.6-.21,35.21-.54,52.81-.75,53.93-.62,107.66,1.68,161.53,4.03"/><path class="cls-1" d="M-100.76,336.22c33.1-12.36,65.93-32.88,102.39-32.33,52.71,.8,102.53,33.39,152.25,47.39,94.41,26.58,190.22-36.38,285.93-29.32,21.17,1.56,41.61,6.69,62.58,9.57,31.95,4.39,64.49,2.7,96.62,5.64,28.97,2.65,58.04,6.46,87.19,6.01,32.43-.5,59.41-12.69,87.45-28.02,61.86-33.82,127.36-49.83,198.27-42.46,34.57,3.59,62.95,13.15,91.47,33.11,28.14,19.7,55.72,46.32,91.28,50.89,30.39,3.9,61.45-7.67,89.94-16.58,31.41-9.82,60.65-12.08,92.72-17.14,37.28-5.88,70.99-26.56,103.84-43.84,40.75-21.43,84.28-37.8,126.16-57.02,44.39-20.37,100.28-47.99,148.89-25.75,29.74,13.6,48.63,39.37,65.03,66.53,12.06,19.97,23.4,49.77,45.07,61.9,16.24,9.09,39.7,4.89,57.8,4.93,18.16,.04,36.32,.07,54.49,.11,53.64,.1,106.27,2.86,159.69,7.95"/><path class="cls-1" d="M-93.22,318.13c33.65-15.14,65.7-35.28,104.18-31.5,53.64,5.27,100.63,38.74,152.46,51.35,43.62,10.61,90.46-2.86,133.37-11.52,46.48-9.37,94.92-22.64,142.75-18.78,23.07,1.86,45.04,9.08,67.87,12.23,32.07,4.43,65.41,2.9,97.75,4.33,27.37,1.21,54.91,3.22,82.32,3.13,32.56-.1,59.26-12.45,87.22-27.96,61.39-34.04,130.23-56.49,201.42-46.63,32.5,4.5,59.67,16.99,86.35,35.67,27.36,19.16,55.45,44.98,89.41,51.18,30.08,5.49,60.71-4.66,88.91-14.07,32.69-10.91,62.29-14.65,96.02-19.28,37.57-5.16,70.99-27.88,103.54-45.74,37.48-20.57,78.11-33.29,116.21-52.78,45.97-23.51,100.74-55.64,153.13-33.95,27.91,11.56,46.36,34.17,62.65,58.64,14.95,22.46,26.97,52.56,48.51,69.97,24.95,20.16,79.86,9.62,110.57,9.53,51.98-.16,102.48,1.38,154.15,7.89"/><path class="cls-1" d="M-85.02,298.85c34.4-17.62,67.37-37.68,107.65-30.76,51.89,8.92,96.17,42.32,147.63,52.89,41.13,8.45,86.63-4.4,127.08-11.82,43.15-7.92,87.7-18.27,131.81-13.23,26.59,3.04,52,12.04,78.45,15.84,33.07,4.75,67.17,1.94,100.35-.34,27.74-1.9,55.29-2.88,83.06-3.78,33.75-1.09,61.42-15.34,90.23-31.71,56.52-32.12,124.51-60.85,191.05-50.78,73.17,11.07,118.18,79.85,188.61,94.49,30.28,6.29,60.41-3.65,88.63-13.87,32.09-11.63,60.66-16.77,94.08-21.59,36.37-5.24,66.18-31.69,95.75-51.39,33.85-22.56,72.4-30.25,107.21-50.78,45-26.53,92.12-59.95,146.76-41.81,64.3,21.35,84.17,91.78,130.06,134.35,27.63,25.62,73.38,15.85,108.31,14.88,49.17-1.35,95.55-.16,144.14,8.83"/><path class="cls-1" d="M-76.43,279.06c35.07-19.74,68.58-39.28,110.2-29.4,49.18,11.67,91.23,44.97,141.29,53.6,40.33,6.95,85.06-4.86,124.84-11.13,39.95-6.29,79.94-12.5,120.25-5.93,28.7,4.68,56.32,14.37,85.05,18.88,34.75,5.46,68.5,.94,102.75-5.61,29.66-5.67,58.44-9.51,88.49-11.89,34.71-2.75,63.91-19.35,93.42-36.63,49.14-28.77,114.71-62.86,173.67-55.45,81.06,10.19,133.67,89.03,212.58,104.73,30.38,6.05,59.89-4.98,87.73-15.98,29.74-11.76,55.75-17.34,86.96-22.51,35.65-5.91,60.83-33.51,87.15-55.96,14.96-12.76,30.46-24.83,49.24-31.35,19.41-6.74,36.02-10.28,53.41-22.15,40.1-27.38,76.43-60,128.9-49.19,73.39,15.12,107.47,95.23,157.3,142.45,31.68,30.03,68.32,23.3,108.39,20.89,45.94-2.76,87.55-2.47,132.67,8.65"/><path class="cls-1" d="M-68.2,259.98C-31.99,238.56,1.3,221.31,44.05,234.08c46.53,13.9,87.72,47.55,136.65,53.37,77.61,9.23,153.96-26.13,232.17-11.45,31.54,5.92,62.03,16.72,93.79,21.63,36.16,5.58,69.19-.76,103.95-10.66,29.96-8.53,58.09-14.16,89.01-17.23,35.64-3.53,65.98-22.02,96.17-39.95,28.03-16.65,56.13-28.83,86.11-41.3,25.5-10.6,50.28-21.24,78.56-17.58,35.6,4.61,67.38,26.52,96.92,45.3,39.04,24.83,80.23,55.53,126.12,66.03,30.58,6.99,59.82-3.8,87.69-15.51,29.21-12.27,54.54-19.51,85.57-24.69,35.87-5.99,57.36-34.59,81.42-59.39,13.07-13.47,27.8-28.25,45.95-34.65,18.12-6.39,33.57-6.34,49.76-18.21,38.45-28.17,65.13-63.58,118.48-55.88,77.37,11.16,121.3,93.92,172.72,143.73,19.24,18.64,38.18,32.6,65.55,32.02,15.42-.32,30.77-1.4,46.12-2.75,42.88-3.79,81.33-5.33,123.42,6.45"/><path class="cls-1" d="M-60.87,243.17c38.2-22.02,71.67-34.93,115.07-19.81,43.02,14.99,82.27,46.03,128.48,50.73,76.84,7.81,152.63-24.15,229.79-8.75,34.31,6.85,67.75,18.19,102.61,22.22,34.35,3.97,65.52-3.89,98.02-14.13,28.66-9.03,55.16-14.17,84.91-17.39,38.17-4.14,70.09-23.84,102.57-42.93,26.59-15.63,53.48-26.12,81.79-37.83,24.82-10.26,48.27-22.17,75.97-19,35.86,4.11,67.94,26.85,97.68,45.49,38.72,24.27,79.01,52.85,123.58,65.16,31.43,8.68,59.52,.39,88.66-11.97,31.04-13.17,57.84-22.07,91.05-27,35.83-5.31,57.29-36.7,80.48-61.47,10.51-11.23,21.85-23.34,35.86-30.21,16.31-7.99,34.02-6.17,49.86-15.65,18.67-11.17,32.14-30.19,49.57-43.06,21.13-15.6,42.87-21.75,68.96-19.39,74.96,6.79,122.27,84.6,170.69,133.46,18.93,19.1,41.38,42.61,69.89,44.33,15.93,.96,32.48-.74,48.34-2.07,40.7-3.4,78.35-7.28,118.62,3.02"/><path class="cls-1" d="M-50.77,230.21c41.35-20.12,76.67-29.55,121.28-12.57,38.95,14.83,76.31,43.42,119.1,45.99,74.3,4.46,148.4-13.24,222.64-2.36,34.61,5.08,68.97,12.49,104.04,13.66,32.19,1.07,60.99-6.16,91.58-15.25,30.77-9.15,59.49-13.56,91.19-17.41,33.65-4.09,63.63-20.46,93.37-35.57,28.7-14.59,57.31-23.72,87.43-34.51,24.13-8.64,47.09-19.73,73.42-18.2,35.8,2.09,68.76,23.02,98.93,40.45,38.26,22.11,77.06,47.35,119.71,60.21,62.95,18.99,118.01-29.99,179.22-37.3,36.99-4.41,59.46-27.01,85.67-51.84,11.57-10.96,23.36-22.37,37.22-30.42,15.96-9.28,34.25-9.66,50.23-18.65,38.47-21.63,61.81-60.7,110.47-61.7,70.31-1.44,119.99,66.32,164.79,111.12,22.75,22.75,50.34,52.71,83.41,59.01,16.13,3.07,34.2,1.97,50.57,1.83,37.45-.32,74.16-4.17,111.29,2.62"/><path class="cls-1" d="M-38.02,220c43.75-16.94,81.69-24.06,126.46-6.07,38.17,15.33,72.09,39.21,114.48,40.01,70.49,1.33,141.29,4.01,211.71,7.3,65.03,3.04,125.45,1.54,188.28-16.32,30.48-8.67,59.2-12.94,90.62-15.94,32.9-3.15,63.18-16.26,93.57-28.26,27.29-10.78,55.19-16.15,83.04-24.81,26.15-8.13,51.16-20.34,79.22-19.19,31.44,1.29,61.59,16.77,89.15,30.61,41.83,21.01,83.29,46.24,128.94,58.17,64.19,16.77,115.31-31,177.55-37.41,35.04-3.61,58.53-17.92,86.15-39.3,14.37-11.12,28.47-22.95,44.32-31.98,16.07-9.15,34.37-11.6,50.41-20.71,37.58-21.35,64.53-57.22,111.35-58.4,67.93-1.72,119.73,63.36,165.97,104.19,21.88,19.32,45.6,41.79,73.81,51.28,17.58,5.91,37.02,6.52,55.48,8.45,35.77,3.74,71.68,2.13,107.41,5.57"/><path class="cls-1" d="M-24.44,211.25c42.39-12.89,81.06-19.56,123.49-3.34,38.17,14.6,68.91,34.53,110.62,37.02,34.42,2.05,67.99,8.57,102.05,13.5,35.21,5.09,69.6,4.81,105.02,2.42,63.18-4.26,124.74-15.09,185.78-31.46,28.56-7.66,55.91-11.11,85.32-13.08,32.18-2.16,62.72-11.78,93.64-20.2,26.01-7.08,52.82-9.02,78.77-15.82,25.3-6.63,49.43-18.66,75.87-20.31,32.89-2.05,65.36,11.91,94.91,24.66,43.32,18.69,85.87,41.93,132.19,52.54,64.07,14.67,113.63-31.83,175.66-37.78,35.04-3.36,60.86-12.77,91.1-31.51,13.95-8.64,27.52-17.91,41.86-25.91,16.51-9.22,34.5-14.14,51.1-22.89,34.85-18.38,62.76-49.41,103.15-56.33,64.21-11,118.51,44.45,163.72,81.41,26.87,21.96,55.19,47.18,88.1,59.67,18.47,7.01,38.93,8.87,58.22,12.97,33.42,7.11,65.48,9.48,99.68,10.21"/><path class="cls-1" d="M-11.9,202.66c42.96-10.64,82.68-16.54,124.9,.49,16.01,6.46,31.06,15.03,47.02,21.59,20.34,8.36,38.33,9.55,60.03,11.62,33.67,3.21,65.65,14.69,98.59,21.66,33.24,7.04,64.85,5.47,98.21,.09,61.89-9.99,122.7-27.08,183.47-42.22,56.68-14.12,116.09-14.61,173.74-24.68,26.14-4.57,53.02-4.25,78.9-9.67,25.98-5.44,50.34-17.6,76.85-20.69,32.77-3.81,65.14,7.8,95.31,19.22,42.11,15.93,83.05,35.95,127.04,46.38,32.76,7.77,56.34,5.69,87.45-6.12,32.12-12.2,63.09-26.59,97.71-29.95,32.75-3.17,59.24-8.95,89.1-23.85,31.7-15.81,64.23-31.29,95.39-48.01,34.42-18.47,64.57-46.12,103.87-54.1,58.05-11.78,108.43,31.37,151.73,63.76,29.57,22.12,59.07,46.34,92.74,62.03,20.57,9.58,43.09,13,64.74,19.38,32.69,9.62,62.16,16.21,96.6,15.84"/><path class="cls-1" d="M1989.85,217.28c2.38,13.53,5.21,4.82,8.39,7.79,5.27,4.93,10.4,7.16,14.05,15.82,13.33,31.64,10.54,64.35,31.16,93.51,31.49,44.53,63.55,89.24,97.97,131.58,58.42,71.86,105.92,153.48,156.82,230.82"/><path class="cls-1" d="M1963.69,211.09c16.61,38.12,6.96,84.62,29.12,120.57,16.82,27.29,34.38,54.12,52.53,80.54,15.78,22.98,29.5,50,48.53,70.44,10.25,11.01,23.42,16.57,32.74,28.9,12.85,17.01,23.4,36.56,34.79,54.58,27.52,43.56,55.05,87.12,82.57,130.68"/><path class="cls-1" d="M1938.82,202.31c3.62,8.76,.53,13.45,1.55,21.19,.97,7.34,3.64,14.6,4.51,22.05,3.69,31.75-8.88,59.14,7.72,89.19,15.4,27.87,31.67,55.28,47.24,83.06,14.21,25.36,26.62,58.46,46.59,79.67,9.12,9.68,21.73,6.43,31.45,15.69,14.05,13.37,24.02,38.72,34.09,55.34,25.91,42.77,51.82,85.55,77.73,128.32"/><path class="cls-1" d="M1906.58,192.52c3.5,10.64,3.35,18.17,4.41,28.64,.92,9.02,4.51,17.8,5.05,26.82,1.88,31.36-18.16,56.34-1.28,86.78,15.58,28.08,33.03,54.93,46.37,84.21,11.8,25.89,21.52,56.16,37.94,79.45,9.02,12.8,18.66,6.37,29.35,14.92,13.49,10.79,23.9,40.12,32.6,55.15,24.79,42.77,49.58,85.55,74.37,128.32"/><path class="cls-1" d="M1849.62,168.39c12.07,23.9,27.94,57.59,29.42,84.42,1.79,32.32-19.49,51.16-2.27,82.34,16.46,29.81,38.14,56.08,51.38,87.66,9.17,21.89,15.54,45.55,26.68,66.58,6.55,12.37,13.8,11.01,22.85,19.58,13.44,12.71,21.49,38.05,30.07,54.21,23.84,44.88,48.77,89.17,73.37,133.63"/><path class="cls-1" d="M1787.05,126.49c17.52,30.78,40.82,65.23,45.34,101.29,4.99,39.82-15.32,75.39,5.82,112.19,15.71,27.34,37.92,51.19,51.16,79.89,8.75,18.97,13.18,39.72,21.97,58.71,4.7,10.15,10.81,14.53,17.18,23.13,11.49,15.51,22.1,34.71,31.19,51.93,12.63,23.91,17.53,50.79,29.7,74.86,11.69,23.12,25.34,45.38,37.44,68.32"/><path class="cls-1" d="M1725.4,84.26c19.1,27.59,41.78,46.73,52.95,79.8,14.77,43.69,8.86,90.75,22.55,134.15,12.42,39.38,31.93,75.81,45.04,114.61,6.91,20.43,9.42,41.1,19.43,60.56,12.95,25.17,33.66,44.76,48.36,68.59,16.44,26.65,11.55,60.41,21.03,89.47,7.87,24.12,26.82,42.57,37.82,65.33"/><path class="cls-1" d="M1669.57,58.98c6.72,12.41,18.05,8.82,28.58,14.27,16.34,8.46,23.23,31.38,29.79,46.94,18.53,43.96,34.2,91.12,44.89,137.58,6.75,29.34,11.95,59,20.07,88.03,3.96,14.18,11.3,28.27,12.73,42.94,2.6,26.69-5.38,57.07,5.75,82.43,4.25,9.68,12.07,16.76,17.91,25.36,10.18,15.01,25.01,23.47,35.83,37.58,19.35,25.23,10.53,68.61,14.81,98.41,4.1,28.51,26.33,40.06,38.37,64.31"/><path class="cls-1" d="M1627.01,59.9c3.44,9.06,6.76-3.12,11.94-4.08,13.61-2.52,22.57,20.78,27.76,29.68,22.42,38.37,50.85,84.01,59.69,127.58,6.28,30.97,7.94,62.74,14.18,93.75,3.21,15.95,10.36,31.25,12.53,47.28,4.88,36.18-10.85,76.97-1.69,112.17,3.09,11.86,12.66,24.52,19.58,34.64,11.41,16.68,30.3,16.18,43.34,30.07,21.03,22.4,10.29,74.96,13.1,102.9,3.06,30.39,24.75,37.92,36.56,62.92"/><path class="cls-1" d="M1585.49,75.3c.41,1.22,.82,2.44,1.23,3.66,1.93-4.22,2.39-8.85,4.23-13.16,20.34,34.18,42.75,69.7,65.28,102.48,20.27,29.5,6.66,70.95,7.1,105.47,.52,40.64,19.36,77.44,23.58,118.24,3.11,30.08,1.63,59.36,12.93,87.53,4.28,10.68,7.73,27.3,16.71,34.85,16.42,13.82,42.77-1.93,54.14,20.83,7.05,14.11,4.73,36.67,5.17,51.47,.56,18.8-.83,40.25,3.07,58.85,4.58,21.85,22.37,31.76,30.82,51.3"/><path class="cls-1" d="M1546.03,97.25c.77,1.69,1.53,3.39,2.3,5.08,.55-1.38,3.84-5.2,4.4-7.33,1.71,9.47,10.54,20.05,14.85,28.99,10.03,20.8,19.4,41.6,31.81,61.11,9.09,14.28,10.66,18.54,7.78,35.62-3.11,18.42-8.49,36.39-11.47,54.86-6.43,39.85,14.92,79.91,24.03,119.12,6.92,29.8,15.39,57.11,27.74,84.89,4.77,10.72,6.56,31.79,16.08,38.88,15.42,11.47,39.44-7.61,54.71,7.21,9.2,8.92,5.87,36.15,6.25,48.35,.67,21.69-.74,44.27,2.69,65.81,3.8,23.89,20.28,35.63,28.29,57"/><path class="cls-1" d="M1510.41,118c1.52,6.78,3.72,6.58,6.36,2.22,15.03,19.42,14.2,53.29,21.27,76.42,3.33,10.89,12.49,23.26,12.68,34.95,.22,13.96-8.17,29.24-12.48,42.42-3.72,11.36-11.46,28.3-9.1,40.95,3.28,17.58,12.1,35.81,16.35,53.67,8.35,35.11,11.26,84.17,40.52,109.41,7.34,6.34,16.02,11.11,22.54,18.39,5.77,6.44,6.77,14.57,11.97,20.79,11.41,13.66,33.44,.95,45.24,13.65,9.26,9.97,5.34,32.33,5.52,44.97,.3,20.4-2.17,41.77,1.53,61.94,4.29,23.38,20.43,37.42,28.41,59.04"/><path class="cls-1" d="M1472.28,138.05c.75,1,1.5,2,2.25,3.01,.83-2.68,3.02-5.04,3.42-8.19,15.49,20.81,9.82,65.61,13,91,1.39,11.11,6.8,25.22,5.02,36.65-1.98,12.77-10.76,25.06-15.37,36.88-10.57,27.11,1.9,57.99,6.13,85.83,5.32,35.01,2.93,78.98,37.76,96.74,22.11,11.27,46.97,13.92,59.18,37.06,7.09,13.45,20.1,20.47,27.16,33.27,14.15,25.63,.74,63.64,7.35,91.36,4.84,20.3,20.92,36.02,28.72,55.13"/><path class="cls-1" d="M1430.83,158.29c4.17,12.33,10.93-3.54,15.01,13.79,4.39,18.63,.21,40.5,.74,59.69,.38,13.57,5.98,29.71,4.95,43.08-1.6,20.7-18.21,36.18-18.37,57.21-.15,20.33,4.13,41.84,5.73,62.27,1.51,19.29-1.27,54.03,9.15,71.36,17.68,29.42,67.07,17.19,89.4,41.18,11.74,12.61,10.99,37.72,15.47,54.61,6.7,25.3,3.93,48.63,7.58,74.25,3.61,25.35,22.11,38.57,32.11,61.04"/><path class="cls-1" d="M1387.96,174.03c6.15,17.95,23.38,17.2,22.95,38.24-.66,32.46-12.33,58.72-4.32,91.09,4.05,16.36,4.81,31.72,4.76,48.51-.06,18.6-1.49,37.14-2.16,55.73-.57,15.92-5.41,39.28,1.61,54.12,11.83,24.99,49.75,20.05,70,36.04,16.51,13.03,17.28,44.42,20.59,63.9,4.57,26.86,1.75,53.1,5.02,79.86,2.85,23.38,22.27,35.11,31.91,55.29"/><path class="cls-1" d="M1345.35,180.65c8.07,18.72,29.75,35.5,28.64,56.91-1.43,27.54-32.2,57.78-14.36,84,11.4,16.75,34.97,27.66,35.45,50.15,.56,26.36-22.41,57.66-14.08,83.8,5.42,17,26.2,13.05,37.62,25.32,6.2,6.67,10.52,19.69,15.61,27.47,6.06,9.27,13.12,17.39,17.04,28.02,10.67,28.96,3.27,63.02,5.18,93.13,1.05,16.63,3.96,25.25,14.56,38.24,10,12.26,27.3,21.8,29.72,38.66"/><path class="cls-1" d="M1302.21,187.15c8.56,22.29,31.98,32.85,29.29,58.73-2.82,27.11-37.1,58.52-16.18,84.68,14.42,18.03,46.78,25.55,49.96,51.07,2.91,23.32-23.11,44.36-18.26,68.31,2.1,10.35,1.61,5,6.45,12.58,5.84,9.16,8.02,13.51,18.03,20.41,8.7,5.99,20.53,8.66,27.26,17.37,9.25,11.95,8.14,27.38,8.61,41.89,.79,24.31,.04,48.66,.8,72.97,1.81,57.34,67.87,78.39,94.98,123.61"/><path class="cls-1" d="M1258.91,202.22c6.05,13.08,17.74,20.21,25.88,31.51,10.95,15.22,9.15,23.81,1.4,40.88-6.38,14.05-22.74,34.77-20.21,51.32,2.05,13.45,14.94,22.79,23.71,31.79,10.06,10.32,18.51,17.02,21.1,31.57,2.07,11.57-1.05,24.52-2.6,35.94-1.02,7.5,2.7,35.3-9.45,30.92,.09,14.16,13.55,18.65,24.85,22.4,28.75,9.53,32.36,14.44,33.31,46.49,1.03,35.1-7.19,81.66,7.21,113.71,9.95,22.14,40.58,40.97,58.98,56.78,26.13,22.46,52.77,43.48,74.02,70.83"/><path class="cls-1" d="M1219.85,217.08c9.03,21.35,37.62,32.57,33.78,57.7-4.36,28.58-33.43,45.45-25.88,76.56,3.67,15.12,10.93,34,18.64,47.47,8.62,15.04,31.87,23.1,31.35,43-.53,20.27-27.66,14.67-30.59,31.39-3.48,19.84,39.75,26.04,48.88,36.18,19.9,22.07-.86,67.93-1.68,94.96-.8,26.23,10.8,37.03,28.05,54.87,36.72,37.99,79.26,69.6,113.65,109.87"/><path class="cls-1" d="M1189.41,222.96c5.36,19.19,28.08,38.54,25.39,59.02-1.95,14.82-14.41,28.39-21.43,41.26-6.89,12.63-7.71,20.72-9.15,33.91-1.36,12.46-9.18,39.35-2.21,50.72,12.33,20.12,64.2,1.88,68.85,27.82,4.15,23.17-47.68,33.26-54.18,52.5-7.96,23.56,34.36,39.7,45.62,55.21,17.53,24.15-18.49,36.12-25.33,58.17-7.19,23.17,15.56,41.34,29.33,58.14,29.51,35.97,61.56,69.71,87.78,108.21"/><path class="cls-1" d="M1133.94,212.13c8.6,20.84,36.31,38.73,33.6,62.95-1.74,15.54-11.71,30.31-17.97,44.42-5.79,13.02-6.43,22.59-8.65,35.6-2.27,13.29-16.57,41.17-9.52,53.98,12.85,23.36,72.55-3.39,78.86,23.62,5.48,23.46-57.48,44.15-64.4,63.8-8.75,24.84,33.24,48.5,44.23,67.69,19.69,34.37-29.5,16.79-44.45,31.47-15.15,14.88,10.33,40.75,19.66,55.46,24.31,38.33,51.23,74.88,71.2,115.71"/><path class="cls-1" d="M1077.4,192.59c10.19,25.68,35.24,29.56,34.39,61.05-.72,26.56-7.2,57.16-11.2,83.56-2.5,16.48-22.22,42.36-10.18,58.68,11.36,15.41,48.08,4.72,54.25,26.04,2.63,9.08-10.85,32.21-14.12,38.71-6.5,12.95-18.44,28.86-22.37,43-6.63,23.92,18.79,40.17,30.44,58.9,19.81,31.85-17.65,23.87-35.5,34.56-21.25,12.73,4.73,41.49,13.45,56.83,20.02,35.23,41.61,69.31,57.99,106.44"/><path class="cls-1" d="M1022.22,171.76c1.79,13.74,12.15,11.53,20.53,17.5,10.54,7.52,12.62,11.62,14.23,24.37,2.24,17.69,2.8,35.56,3.8,53.34,.71,12.58,4.18,27.47,2.35,40.17-2.89,20.13-21.73,38.49-18.71,59.6,2.31,16.12,17.93,23.15,21.94,39.04,9.07,35.94,9.18,76.04,12.5,112.78,1.7,18.74,8.58,31.12,13.4,48.7,6.9,25.19-10.47,25.71-19.59,44.82-6.75,14.14,2.11,28.7,7.93,41.91,11.23,25.51,23.98,49.91,32.13,76.63"/><path class="cls-1" d="M970.04,157.01c3.71,14.05,15.19,6.44,24.38,9.44,13.71,4.47,13.41,6.82,15.24,20.7,4.13,31.28,19.68,69.02,13.1,100.27-4.96,23.58-20.1,42.09-22.53,66.67-1.24,12.58-4.74,26.6-3.43,39.22,2.22,21.39,15.19,44.95,22.56,64.54,9.21,24.47,21.01,49.26,26.92,74.73,3.23,13.91-1.38,24.16-2.78,37.62-1.73,16.68-.95,35.09-1.27,52-.51,27.19,7.4,52.71,8.9,79.64"/><path class="cls-1" d="M932.18,156.09c3.08,10.88,13.17-.4,19.42-.42,13.05-.04,9.89,.15,12.2,17.17,4.51,33.3,17.12,74.94,10.69,108.15-4.31,22.26-12,42.93-14.74,65.51-2.18,17.97-10.34,36.05-9.03,54.24,1.17,16.29,9.84,33.07,15.77,48.19,9.79,24.98,21.66,49.53,29.42,75.27,5.81,19.29-.16,26.6-3.29,44.2-3.3,18.6,2.95,37.67,4.35,56.12,1.8,23.88-2.25,47.65-1.54,71.51"/><path class="cls-1" d="M898.31,164.15c11.81,18.4,28.04-32.48,28.06,11.97,.02,32.95-4.66,66.05-1.51,98.97,1.73,18.04,7.48,36.09,6.32,54.37-2.02,31.95-20.37,62.47-19.49,94.58,.91,33.34,25.94,62.39,32.1,94.67,3.18,16.66-.76,30-2.31,46.5-.84,8.99-1.49,17.27,3.14,25.36,3.99,6.98,11.46,10.45,14.74,18.1,9.47,22.12-14.83,60.47-18.58,82.76"/><path class="cls-1" d="M864.25,174.14c8.16,20.12,35.9-32.46,26.52,16.03-4.4,22.71-28.57,69.98-14.76,91.14,10.87,16.66,28.54,12.89,25.54,38.44-5.13,43.76-30.54,87.54-29.84,131.75,.37,23.02,16.83,40,20.2,62.19,2.86,18.81-5.02,38.69-2.18,57.29,3.91,25.6,18.67,7.81,31.61,22.26,9.6,10.72-3.26,29.16-8.35,38.64-10.08,18.76-20.13,34.6-26.87,54.82"/><path class="cls-1" d="M825.89,179.01c3.84,23.7,39.56-20.39,24.61,29.04-4.07,13.45-36.1,70.76-23.35,83.65,7.03,7.11,18.31-.13,25.81,3.49,13.46,6.5,8.94,12.64,5.3,29.02-6.08,27.38-13.58,54.47-20.47,81.65-5.01,19.77-15.21,42.9-14.39,63.56,.66,16.8,14.39,27.9,17.29,43.92,3.18,17.54-2.59,36.42-2.05,54.14,.92,29.7,20.91,8.77,34.1,26.02,7.03,9.19-5.92,26.71-10.81,35.31-11.2,19.7-22.45,36.19-30.14,57.51"/><path class="cls-1" d="M786.72,181.07c.2,15.04,11.91,9.05,19.27,15.26,11,9.28,7.05,18.56,3.2,32.33-3.13,11.17-31.82,70.81-20.99,80.8,4.59,4.23,10.42-.32,14.26,2.36,8.53,5.96,2.69,19.85,1.32,28.24-7.12,43.7-22.19,92.21-21.85,136.62,.12,15.56,8.75,28.81,9.77,44.15,.93,13.93-4.75,25.86-6.11,39.35-2.26,22.3,16.38,24.92,21.82,43.65,3.41,11.74-3.74,24.38-8.54,35-8.04,17.81-15.94,32.96-20.99,51.86"/><path class="cls-1" d="M749.62,185.71c2.45,14.76,9.75,17.54,15.88,29.16,7.34,13.91,5.76,22.37,2.27,37.99-5.71,25.53-11.71,50.94-17.2,76.46-10.53,48.98-6.52,101.1-7.75,151.2-.4,16.58,1.67,33.57,.14,50.07-1.34,14.55-6.33,11.27-11,20.54-9.26,18.39,7.15,48.24,7.61,67.35,.64,26.34-11.81,51.21-15.57,77.09"/><path class="cls-1" d="M710.14,190.81c1.32,16.01,7.4,25.64,13.4,39.8,6.16,14.54,4.61,25.78,1.95,41.03-2.45,14.03-5.75,27.9-8.17,41.94-1.47,8.52-.43,22.52-5.94,29.74-4.22,5.53-9.72,5.27-14.47,9.24-8.87,7.4-7.66,16.27-6.99,27.36,2.01,33.69,11.92,68.12,10.45,101.92-.77,17.68-3.66,36.65-6.62,54.1-3.7,21.8-4.66,4.32-13.96,10.7-11.24,7.72,2.18,71.55,1.84,83.71-.64,22.59-7.72,44-11.73,66.15"/><path class="cls-1" d="M664.35,194.22c2.5,16.5,9.65,28.6,15.66,43.7,6.18,15.55,4.5,25.45,1.6,41.61-2.37,13.24-5.04,26.43-7.36,39.69-1.38,7.85-.5,21.52-6.82,27.54-5.66,5.38-13.82,2.74-19.5,7.29-7.74,6.19-5.84,15.02-5.84,23.9,.01,32.1,11.08,63.58,9.01,95.76-.98,15.14-.11,32.31-2.76,47.21-1.95,10.94-8.43,14.3-12.73,23.55-10.45,22.47-2.1,58.6-4.15,82.77-1.95,22.96-10.34,43.76-15.59,66.06"/><path class="cls-1" d="M627.58,198.52c3.49,31.54,19.14,55.19,12.99,87.57-2.13,11.23-3.57,50.58-13.84,57.31-18.12,11.88-30.19-8.94-31.76,22.94-1.39,28.11,5.74,56.45,4.87,84.69-.42,13.48,6.82,21.21,7.95,33.95,1.51,17.04-9.09,38.41-12.32,55.02-5.16,26.51-8.28,53.37-13.64,79.87-4.83,23.85-13.87,46.12-19.95,69.61"/><path class="cls-1" d="M591.09,206.3c3.07,30.37,16.72,58.64,9.98,89.31-2.14,9.73-4.16,38.57-13.84,43.33-19.18,9.43-35.61-18.91-39.42,14.62-2.62,23.1-.7,52.57,.89,75.79,1.03,14.96,12.87,13.55,16.93,26.48,2.89,9.2-4.14,25.62-5.76,34.86-2.76,15.72-5.4,31.47-8.12,47.2-8.89,51.52-29.77,100.55-44.07,150.69"/><path class="cls-1" d="M558.33,214.84c1.58,29.11,10.23,59.68,2.24,88.39-2.5,8.99-6.12,29.36-14.9,33.19-20.74,9.04-39.74-24.33-44.69,12.16-3.22,23.67-1.51,51.19-1.48,75.14,.02,13.44,11.27,19.45,10.96,32.72-.28,11.8-5.88,24.79-7.74,36.59-2.3,14.6-2.98,29.45-5.44,44.02-5.24,30.95-22.08,57.73-33.27,86.64-9.04,23.37-7.75,43.76-10.86,67.96"/><path class="cls-1" d="M531.06,221.83c-5.86,27.12-7.78,54.64-13.9,81.64-2.13,9.4-.78,26.87-10.84,31.39-22.92,10.29-48.18-19.65-54.48,17.2-4.17,24.4,.04,49.57-4.59,74.05-3.37,17.81-10.38,33.62-16.78,50.42-8.61,22.6,1.13,37.35,2.67,59.57,2.34,33.91-33.69,71.28-45.83,101.22-4.69,11.58-9.89,19.6-4.25,31.65,4.94,10.55,16.68,12.71,15.46,26.57"/><path class="cls-1" d="M481.77,234.8c-2.23,16.81-7.82,40.74-6.34,57.65,1.33,15.17,21.53,32.3-3.14,39.68-23.13,6.92-65.58-8.22-71.57,24.26-4.39,23.79,.73,50.04-7.1,73.21-9.05,26.77-36.66,43.88-45.96,70.01-8.46,23.8,16.08,20.16,23.71,37.43,4.9,11.1-9,29.41-14.33,39.53-12.62,23.95-33.77,51.9-41.75,78.08-8.61,28.25,30.43,18.53,28.85,42.17"/><path class="cls-1" d="M439.15,246.58c-2,10.8-8.9,26.34-5.32,36.47,6.68,18.9,39.74,28.23,10.69,44.12-27.7,15.15-80.39-2.6-93.59,33.13-8.21,22.21-1.16,48.49-9.16,71.14-4.66,13.17-14.74,23.69-23.62,34.25-6.61,7.86-31.25,30.87-32.19,42.95-1.67,21.31,30.71,14.22,35.46,32.15,2.51,9.49-8.91,26.12-12.58,33.77-11.1,23.12-28.74,48.53-35.94,73.38-6.31,21.79,15.77,28.03,16.99,48.86"/><path class="cls-1" d="M399.47,255.05c-1,2.25-2,4.51-3,6.76-1.3-1.15-5.29-4.59-6.69-1.33-4.93,11.42,2.76,17.85,10.28,25.51,6.24,6.35,22.08,14.81,22,25.21-.13,17.29-29.72,18.47-41.45,20.72-28.82,5.53-72.03,4.16-77.46,39.29-3.51,22.71-.72,48.79-10.72,70.04-9.35,19.85-38.43,37.45-41.87,59.38-3.08,19.6,22.66,32.43,22.96,52.39,.43,28.19-24.98,58.96-32.47,85.73-5.39,19.27-.17,38.45-5.39,58.03"/><path class="cls-1" d="M359.03,258.05c-1.28,1.9-2.57,3.8-3.85,5.7-2.74-5.43-4.99-5.7-9.32-3.97-9.31,3.73,4.82,24.79,7.01,28.35,5.23,8.47,15.48,18.33,13.33,29.52-3.13,16.27-26.64,20.54-39.44,24.68-28.24,9.13-58.59,14.79-65.96,46.93-4.57,19.92-5,42.14-13.65,60.93-6.47,14.05-21.08,23.62-25.24,38.69-6.78,24.55,8.03,51.77,3.98,77.04-3.56,22.22-14.81,44.33-21.81,65.66-7.19,21.89-14.89,43.56-22.73,65.23"/><path class="cls-1" d="M319.34,252.29c-3.24,11.77-8.8,1.96-14.03,6.21-7.82,6.36-8.98,12.7-9.41,22.29-1.31,29.36,13.84,49.89-15.37,71.18-24.36,17.77-47.46,24.64-59.55,54.32-6.34,15.59-11.04,31.93-17.89,47.3-4.76,10.68-13.39,17.13-17.81,27.66-10.86,25.85-3.85,57.18-9.19,84.24-8.83,44.66-32.02,89.28-49.03,131.3"/><path class="cls-1" d="M281.67,240.95c-4.64,10.07-13.37,11.17-20.57,17.88-10.25,9.56-14.41,20.38-17.14,34.03-4.89,24.46-6.35,48.44-22.14,69.11-14.97,19.61-31.56,35.95-45.21,56.85-7.91,12.11-14.72,23.91-21.23,36.8-5.69,11.28-14.69,20-19.8,31.61-10.61,24.11-4.82,50.94-8.23,76.21-6.21,45.91-35.94,92.26-54.55,133.32"/><path class="cls-1" d="M243.83,230.1c-15.29,22.79-37.14,35.37-46.27,62.58-8.01,23.87-11.7,48.11-26.28,69.12-21.81,31.43-47.37,62.75-64.72,96.95-7.63,15.04-15.71,30-22.11,45.63-9.44,23.03-2.1,43.63-6.94,66.74-9.23,44.07-39.96,85.86-58.99,125.67"/><path class="cls-1" d="M203.66,225.7c-14.61,21.99-38.92,33.71-50.54,57.79-10.98,22.77-23.83,44.01-35.41,66.28-11.61,22.31-13.95,48.6-27.68,69.82-9.87,15.27-23.99,26.86-32.63,43.08-10.55,19.81-18.91,42.11-26.54,63.2-5.83,16.12-.39,27.59-3.09,43.28-1.67,9.72-7.63,17.79-12.2,26.31-17.85,33.32-34.65,67.39-51.35,101.31"/><path class="cls-1" d="M165.91,216.75c-17.28,20.02-45.41,22.26-60.28,44.66-13.16,19.82-33.68,43.64-40.65,66.52-9.26,30.41-.86,66.63-18.66,93.93-10.51,16.12-27.74,26.01-37.4,43.01-10.76,18.92-18.46,41.55-26.3,61.84-5.44,14.07-2.72,25.96-5.92,40.16-3.39,15.08-14.91,29.46-22.12,43.03-15.28,28.75-30.11,57.81-44.66,86.93"/><path class="cls-1" d="M130.53,200.04c-24.46,20.32-55.63,15.59-75.3,42.59-15.62,21.45-36.1,46.86-41.36,73.07-6.4,31.94,7.3,74.97-11.65,103.6-10.97,16.57-28.36,26.47-37.94,44.39-18.2,34.03-25.66,72.45-41.61,107.1-19.75,42.92-45.24,84.04-67.02,126.01"/><path class="cls-1" d="M91.44,185.83c-18.1,13.31-37.32,13.71-57.49,22.04-13.8,5.7-18.79,15.52-26.04,28.24-14.65,25.68-33.75,52.35-37.33,82.28-3.58,29.9,3.53,67.45-12.01,94.66-9.86,17.27-25.55,29.72-34.69,47.8-40.07,79.22-79.92,157.92-122.49,235.95"/><path class="cls-1" d="M43.96,184.17c-16.09,14.81-35.38,16.88-53.32,28.31-12.99,8.27-17.62,21.12-23.9,34.67-12.51,26.98-27.86,54.12-33.45,83.59-5.02,26.5-5.65,52.39-19.33,76.25-10.05,17.53-22.03,33.56-31.58,51.46-42.97,80.55-89.96,159.1-135.27,238.35"/></svg>