<?xml version="1.0" encoding="UTF-8"?><svg id="new_index" xmlns="http://www.w3.org/2000/svg" viewBox="0 0 1513.97 768"><defs><style>.cls-1{fill:none;stroke:#000;stroke-miterlimit:10;stroke-width:2px;}</style></defs><path class="cls-1" d="M-34.16,179.41c37.61,1.99,111.03,7.81,142.92,14.47,70.4,14.71,118.66,42.71,132.1,78.24,5.76,15.24,10.84,40-6.11,71.35-10.69,19.78-30.54,43.79-56.35,63.53-29.78,22.76-47.11,53.2-50.85,69.88-7.27,32.36,10.98,66.83,35.74,87.88,55.92,47.56,171.89,49.5,247.4,15.88,82.05-36.53,57.93-89.04,160.81-162,24.95-17.69,82.96-57.89,173.18-75.18,23.62-4.53,165.47-29.72,273.51,30.71,84.64,47.34,89.13,113.99,123.7,111.18,47.17-3.84,29.69-127.19,119.58-225.53,70.63-77.28,181.69-110.82,262.52-127.06"/><path class="cls-1" d="M-8.88,301.01c37.61,1.99,111.03,7.81,142.92,14.47,70.4,14.71,118.66,42.71,132.1,78.24,5.76,15.24,10.84,40-6.11,71.35-10.69,19.78-30.54,43.79-56.35,63.53-29.78,22.76-47.11,53.2-50.85,69.88-7.27,32.36,10.98,66.83,35.74,87.88,55.92,47.56,171.89,49.5,247.4,15.88,82.05-36.53,57.93-89.04,160.81-162,24.95-17.69,82.96-57.89,173.18-75.18,23.62-4.53,165.47-29.72,273.51,30.71,84.64,47.34,89.13,113.99,123.7,111.18,47.17-3.84,29.69-127.19,119.58-225.53,70.63-77.28,181.69-110.82,262.52-127.06"/><path class="cls-1" d="M-2.56,331.41c37.61,1.99,111.03,7.81,142.92,14.47,70.4,14.71,118.66,42.71,132.1,78.24,5.76,15.24,10.84,40-6.11,71.35-10.69,19.78-30.54,43.79-56.35,63.53-29.78,22.76-47.11,53.2-50.85,69.88-7.27,32.36,10.98,66.83,35.74,87.88,55.92,47.56,171.89,49.5,247.4,15.88,82.05-36.53,57.93-89.04,160.81-162,24.95-17.69,82.96-57.89,173.18-75.18,23.62-4.53,165.47-29.72,273.51,30.71,84.64,47.34,89.13,113.99,123.7,111.18,47.17-3.84,29.69-127.19,119.58-225.53,70.63-77.28,181.69-110.82,262.52-127.06"/><path class="cls-1" d="M-15.2,270.61c37.61,1.99,111.03,7.81,142.92,14.47,70.4,14.71,118.66,42.71,132.1,78.24,5.76,15.24,10.84,40-6.11,71.35-10.69,19.78-30.54,43.79-56.35,63.53-29.78,22.76-47.11,53.2-50.85,69.88-7.27,32.36,10.98,66.83,35.74,87.88,55.92,47.56,171.89,49.5,247.4,15.88,82.05-36.53,57.93-89.04,160.81-162,24.95-17.69,82.96-57.89,173.18-75.18,23.62-4.53,165.47-29.72,273.51,30.71,84.64,47.34,89.13,113.99,123.7,111.18,47.17-3.84,29.69-127.19,119.58-225.53,70.63-77.28,181.69-110.82,262.52-127.06"/><path class="cls-1" d="M-21.52,240.21c37.61,1.99,111.03,7.81,142.92,14.47,70.4,14.71,118.66,42.71,132.1,78.24,5.76,15.24,10.84,40-6.11,71.35-10.69,19.78-30.54,43.79-56.35,63.53-29.78,22.76-47.11,53.2-50.85,69.88-7.27,32.36,10.98,66.83,35.74,87.88,55.92,47.56,171.89,49.5,247.4,15.88,82.05-36.53,57.93-89.04,160.81-162,24.95-17.69,82.96-57.89,173.18-75.18,23.62-4.53,165.47-29.72,273.51,30.71,84.64,47.34,89.13,113.99,123.7,111.18,47.17-3.84,29.69-127.19,119.58-225.53,70.63-77.28,181.69-110.82,262.52-127.06"/><path class="cls-1" d="M-27.84,209.81c37.61,1.99,111.03,7.81,142.92,14.47,70.4,14.71,118.66,42.71,132.1,78.24,5.76,15.24,10.84,40-6.11,71.35-10.69,19.78-30.54,43.79-56.35,63.53-29.78,22.76-47.11,53.2-50.85,69.88-7.27,32.36,10.98,66.83,35.74,87.88,55.92,47.56,171.89,49.5,247.4,15.88,82.05-36.53,57.93-89.04,160.81-162,24.95-17.69,82.96-57.89,173.18-75.18,23.62-4.53,165.47-29.72,273.51,30.71,84.64,47.34,89.13,113.99,123.7,111.18,47.17-3.84,29.69-127.19,119.58-225.53,70.63-77.28,181.69-110.82,262.52-127.06"/></svg>