<?xml version="1.0" encoding="UTF-8"?><svg id="index_scape" xmlns="http://www.w3.org/2000/svg" width="2000" height="679.38" viewBox="0 0 2000 679.38"><defs><style>.cls-1{fill:none;stroke:#000;stroke-miterlimit:10;}</style></defs><path class="cls-1" d="M2438.31,711h-281.16c-23.37,0-50.64,3.85-72.67-5.83-10.72-4.71-19.33-12.45-30.75-15.83-27.78-8.22-61.8-1.82-89.98,.46-70.58,5.7-141.19,8.65-211.72,13.99-177.45,13.44-356.5,7.18-534.42,7.21-80.83,.02-164.17,5.7-244.66-1.72-44.11-4.07-87.46-14.12-131.86-15.2-42.2-1.03-84.54-.02-126.75-.02-47.73,0-92.81,5.32-139.99,11.93-40.13,5.62-80.07,4.95-120.5,4.99-90.53,.09-182.18,4.22-272.6-.39-48.39-2.47-95.28-16.17-144.02-14.64-49.8,1.56-98.75,12.89-148.52,14.79-110.49,4.21-221.89,.26-332.46,.26,71.72-82.93,143.44-165.87,215.16-248.8,32.58-37.67,65.1-75.4,97.74-113.02,19.71-22.72,35.77-43.45,48.39-70.9,8.4-18.29,16.22-36.06,30.55-50.65,14.8-15.07,33.16-26.1,48.49-40.66,75.72-17.16,143.29,7.46,214.69,31.27,34.04,11.35,67.3,25.64,102.65,32.62,30.49,6.02,60.64,3.9,91.35,.95,65.64-6.31,129.65-28.39,195.7-27.49,27.97,.38,56.07,2.92,83.94-.46,30.08-3.65,58.97-13.23,86.94-24.59,47.41-19.24,90.92-45.3,143.07-47.68,78-3.56,145.85,39.38,220.21,55.43,22.61,4.88,45.74,6.67,68.44,1.55,25.76-5.81,49.27-18.67,74.52-26.08,23.47-6.89,47.74-8.84,71.77-12.87,45.25-7.6,85.63-27.49,124.23-51.91,44.47-28.13,88.46-65.86,144.47-61.86,56.49,4.03,105.07,38.9,151.9,67.31,38.26,23.21,80.79,40.62,121.91,58.3,38.55,16.57,78.12,13.54,118.97,18.97,133.12,177.26,282.73,342.23,427,510.56Z"/><path class="cls-1" d="M2409.44,677.32h-189.84c-51.36,0-107.98,8.42-155.07-15.27-21.81-10.97-41.36-23.27-66.43-25.14-25.9-1.92-52.39-.66-78.34-1.05-55.5-.84-110.85-5.88-164.77,9.7-52.75,15.25-97.21,28.82-152.57,19.88-41.08-6.63-81.55-17.91-123.49-16.91-41.55,.99-82.17,11.45-123.55,14.41-45.97,3.29-92.51,3.25-138.58,5.34-85.55,3.87-170.19-6.91-255.66-7.16-80.49-.23-160.96-.74-241.45-.74-45.36,0-89.31-2.86-134.3-8.42-48.13-5.96-92.37-8.37-140.17,1.58-47.83,9.96-93.82,22.36-143.17,18.17-37.64-3.2-74.48-12.36-111.89-17.36-43.22-5.78-86.59-12.74-130.3-12.83-53.05-.11-102.08,23.47-153.63,32.63-50.58,8.99-106.2,3.18-157.51,3.18h-163.36"/><path class="cls-1" d="M2382.5,645.89h-183.39c-28.09,0-56.82,1.75-84.85-.11-26.61-1.77-50.13-14.66-73.27-26.78-27.7-14.51-52.36-24.9-83.89-26.03-21.9-.79-43.47-4.02-65.11-7.25-24.71-3.7-50.49-8.61-75.59-6.99-25.2,1.63-48.72,13.26-71.1,24.06-25.67,12.38-52.55,27.56-81.58,29.67-20.52,1.49-41.41-3.65-61.12-8.79-45.68-11.91-92.44-32.71-140.59-27.54-37.97,4.08-71.68,23.78-110.12,26.24-45.91,2.94-91.94,4.93-137.88,7.97-48.76,3.22-95.66,1.05-144.2-4.55-41.71-4.81-83.68-10.48-125.73-7.2-34.55,2.69-68.31,9.89-103.09,10.5-38.71,.68-77.5-.05-116.22-.09-49.37-.05-90.09-5.37-137.63-19.94-46.43-14.23-85.61-24.12-133.27-10.36-50.41,14.55-101.11,43.58-155.07,39.02-34.58-2.92-65.57-19.07-98.62-28.14-36.95-10.14-74.13-13.99-112.28-14.39-54.85-.57-98.45,17.93-149.41,36.11-53.03,18.92-106.99,14.59-162.45,14.59h-163.51"/><path class="cls-1" d="M2357.32,616.51h-176.44c-29.18,0-62.52,4.69-90.34-5.65-25.44-9.45-46.61-27.52-69.86-41.02-46.2-26.83-104.35-16.87-155.79-16.28-23.71,.27-47.87-.82-71.5,1.16-29.31,2.46-58,10.03-86.67,16.23-46.92,10.14-89.13,13.03-136.2,3.17-37.88-7.94-78.23-21.22-117.13-12.38-40.88,9.29-73.6,39.78-116.25,43.56-42.05,3.72-86.86-4.79-128.8-7.95-43.24-3.26-86.59-3.07-129.86-6.35-38.12-2.88-76.86-7.1-114.98-2.26-41.18,5.24-80.85,18.64-122.6,19.87-35.49,1.05-71.22-2.09-106.67-3.54-42.1-1.72-83.21-2.13-124.98-8.64-41.71-6.5-83.11-13.57-125.4-8.83-46.74,5.23-92.59,19.45-139.94,18.54-38.95-.74-75.78-12.85-113.74-19.92-45.18-8.42-87.69-3.65-132.94,.67-19.96,1.9-39.95,1.48-59.89,3.16-29.11,2.44-57.66,9.78-86.15,15.84-54.6,11.62-107.75,10.61-163.33,10.61h-149.91"/><path class="cls-1" d="M2333.73,588.99h-176.3c-26.91,0-51.99,2.06-76.18-11.4-28.11-15.65-49.84-41.17-79.19-54.81-44.29-20.58-107.94,0-154.73,4.9-59.41,6.23-120.42,4.79-180.11,6.79-40.7,1.37-80.89,1.72-121.33-3.35-34.7-4.35-72.46-11.71-105.92,1.94-42.6,17.38-77.61,55.58-126.09,55.76-37.27,.14-74.19-14.27-110.18-22.25-38.77-8.59-78.14-6.84-117.59-7.82-34.94-.86-70.92-3.73-105.53,1.98-43.36,7.16-85.08,23.63-129.02,27.46-36.19,3.15-73.05-2.55-109.1-5.51-79.41-6.53-159.65-1.54-239.26-3.22-39.48-.83-78.94-2.69-118.43-3.19-42.99-.54-84.32-9.03-126.87-13.99-49.05-5.72-94.53,3.28-142.63,12.28-46.09,8.62-92.28,7.73-138.92,10.35-104.78,5.89-209.69,4.06-314.6,4.06"/><path class="cls-1" d="M2311.61,563.18h-176.35c-30.68,0-51.34-7.51-77.08-24.85-23.8-16.03-46.91-37.06-74.7-46.17-23.3-7.64-50.59-3.29-74.79-2.16-24.53,1.14-49.03,2.63-73.57,3.56-63.52,2.42-124.56,5.56-187.41,16.01-39.07,6.5-77.03,12.76-116.69,8.35-34.97-3.88-70.6-16.54-105.63-7.39-37.65,9.84-69.53,27.81-109.67,27.43-44.82-.42-89.34,1.46-134.14,2.54-37.2,.9-71.71-1.09-107.57-11.26-36.39-10.31-68.67-14.6-106.63-9.05-39,5.7-76.6,18.37-115.69,23.68-38.49,5.23-77.82,6.23-116.62,5.58-37.44-.63-74.64-.67-111.73-6.26-42.62-6.42-83.06-12.11-126.33-12.18-75.83-.11-150.64,10.26-226.54,7.65-47.02-1.62-92.75,.73-139.55,5.32-49.56,4.86-99.37,4.9-148.83,10.19-99.41,10.62-198.15,8.99-298.05,8.99"/><path class="cls-1" d="M2290.82,538.92c-57.93,0-119.04,5.28-176.71-.2-63.22-6.01-104.46-71.9-168.37-76.43-44.28-3.14-88.89-7.48-133.26-9.2-64.36-2.49-124.73,15.25-183.79,38.76-39.05,15.55-75.97,25.47-118.31,19.79-33.99-4.56-63.94-17.97-96.27-28.14-33.24-10.46-75.66-14.2-109.75-10.29-49.1,5.64-93.16,28.77-139.43,44.24-22.24,7.44-43.43,12.98-66.35,5.87-16.36-5.08-30.68-14.94-44.88-24.2-37.07-24.15-62.24-33.41-106.97-28.1-71.59,8.5-141.98,28.56-213.4,38.99-39.5,5.77-74.41,5.04-112.42-8.58-41.74-14.96-78.93-33.76-124.25-32.83-74.45,1.52-139.82,27.97-211.61,43.48-95.17,20.57-194.89-8.66-290.54,6.7-47.12,7.57-91.24,20.13-139.42,20.13h-150.07"/><path class="cls-1" d="M2271.26,516.1h-89.37c-26.46,0-55.08,3.18-80.92-3.02-59.11-14.18-102.73-68.89-165.48-71.56-43.3-1.84-85.63-12.85-128.95-13.72-67.73-1.36-125.99,20.08-186.68,47.2-38.23,17.08-74.9,26.2-116.83,19.04-33.86-5.78-62.69-19.59-92.91-34.91-34.86-17.68-78.73-22.81-117.05-16.35-49.38,8.32-89.83,38.21-135.78,55.63-44.56,16.88-74.44-.42-110.42-26.2-32.92-23.59-58-33.22-98.77-29.02-73.12,7.55-145,28.7-217.36,41.28-36.6,6.37-70.44,7-105.71-6.37-40.05-15.19-77.31-39.69-121.34-40.68-73.72-1.66-143.03,21.15-210.9,47.44-88.62,34.33-190.42-4.94-282.49,4.34-46.39,4.68-88.61,26.36-135.76,26.91-49.9,.59-99.85,0-149.76,0"/><path class="cls-1" d="M2252.84,494.6h-82.51c-27.2,0-55.2,2.39-81.76-4.62-30.96-8.17-59.49-23.5-89.29-34.9-27.4-10.48-51-12.25-79.55-14.62-45.46-3.77-88.69-17.68-134.78-15.07-62.16,3.52-118.25,28.98-177.37,45.42-34.63,9.63-67.24,11.2-102.06,2.31-33.34-8.51-65.39-20.84-99.2-27.7-41.09-8.33-90.25-15.77-131.92-9.11-36.98,5.92-63.88,31.45-98.74,42.24-38.23,11.83-72.46-5.15-106.32-21.48-38.17-18.41-67.98-26.51-110.54-20.61-35.85,4.96-70.53,15.96-106.22,21.83-39.7,6.53-80.36,10.6-120.56,12.45-35.04,1.62-70.83,3.57-104.98-5.66-39.3-10.62-76.2-30.65-116.85-36.29-34.26-4.76-69.95-6.4-104.54-5.58-22.21,.53-45.61-.38-67.22,5.25-17.68,4.61-33.68,13.89-49.75,22.25-41.75,21.72-73.31,26.46-120.24,20.66-48.74-6.02-101.11-21.48-150.55-16.08-46.02,5.03-85.49,34.15-131.68,38.61-46.74,4.52-95.86,.68-142.85,.68"/><path class="cls-1" d="M2235.45,474.32c-54.38,0-112.47,5.76-165.88-5.89-29.75-6.49-58.7-16.4-88.68-21.88-24.93-4.55-50.15-2.87-75.19-6.63-41.46-6.22-80.38-18.86-122.91-15.3-64.12,5.37-123.9,33.68-187.71,39.94-29.72,2.92-55.52-2.17-83.66-10.89-39.48-12.23-79.09-17.32-120.3-20.06-43.03-2.85-92.82-9.15-135.75-2.55-21.33,3.28-32.71,18.98-52,25.82-34.66,12.3-77.65-3.79-110.91-13.57-37.56-11.04-72.9-18.92-112.16-13.32-44.24,6.31-86.55,21.98-130.8,28.26-36.75,5.21-74.61,2.81-111.54,.73-36.2-2.04-73.82-.84-109.57-6.75-37.09-6.13-72.54-19.46-109.05-28.08-73.35-17.33-151.06-56.2-222.79-14.61-43.13,25.02-76.94,50.44-129.1,40.91-43.34-7.92-85.53-27.45-129.96-28.62-51.4-1.35-92.11,38.46-140.4,49.65-42.12,9.76-93.03,2.83-136.16,2.83"/><path class="cls-1" d="M2219.03,455.15c-56.42,0-112.26,2.46-167.82-8.88-28.82-5.88-57.51-13.29-86.85-16.11-20.33-1.95-40.59-1.27-60.81-4.78-48.24-8.38-89.12-20.34-138.64-12.35-57.52,9.28-115.81,30.03-174.3,31.33-27.2,.6-53.07-5.23-79.15-11.91-42.13-10.79-85.18-13.88-128.51-16.13-41.93-2.18-93.7-10.05-135.16-1.11-17.12,3.69-25.74,18.17-41.84,23.14-34.97,10.8-78.68-5.81-112.32-14.74-36.62-9.72-72.09-16.14-109.96-10.58-44.27,6.5-86.1,24.08-130.33,30.67-35.23,5.26-72.43,.39-107.84-1.48-39.12-2.06-79.59-.54-118.34-6.2-32.76-4.78-64.37-15.38-96.22-24.06-72.91-19.86-159.4-67.67-232.2-26.49-40.85,23.1-74.36,55.19-124.54,48.06-40.76-5.79-78.18-25.28-118.92-31.18-53.72-7.79-94.07,27.25-141.82,44.78-41.72,15.32-92.15,8.01-135.97,8.01"/><path class="cls-1" d="M2203.49,437.03c-56.74,0-110.34,.09-166.09-11.71-47.5-10.05-96.01-9.48-143.05-20.32-47.06-10.84-88.18-17.15-136.68-16.24-59.82,1.12-120.07,.49-179.77,4.64-24.2,1.68-47.51,10.43-71.77,10.41-39.96-.04-80.91-9.33-120.64-13.37-41.32-4.2-92.66-13.13-133.38-1.89-22.57,6.23-36.35,26.37-58.46,32.42-32.45,8.88-64.22-6.59-93.27-18.93-38.68-16.42-76.06-23.3-117.94-15.51-43.7,8.13-83.4,30.03-126.92,38.37-33.04,6.33-68.98,3.71-102.62,6.18-38.93,2.85-80.13,8.47-118.78,.92-31.15-6.08-59.99-20.33-89.97-30.19-37.97-12.48-78.11-19.54-117.73-24.18-41.01-4.8-88.18-15.07-127.22,2-38.52,16.85-70.03,47.15-114.8,43.73-39.95-3.06-76.75-21.18-115.88-28.28-50.92-9.23-91.73,13.04-138.3,29.93-44.37,16.09-90.6,12.01-137.06,12.01"/><path class="cls-1" d="M2188.79,419.88c-55.39,0-106.02-2.37-160.35-13.47-47.9-9.79-95.91-9.42-143.45-21.94-48.72-12.83-97.44-15.35-146.44-25.51-50.02-10.37-107.46-32.98-158.92-21.98-30.61,6.54-51.13,31.76-80.87,38.34-32.89,7.28-71.08-5.82-103.45-11.66-44.64-8.06-95.49-16.36-139.47-1.43-27.3,9.26-46.36,32.7-73.44,41.5-34.87,11.32-59.18-9.17-86.11-27.56-34.67-23.68-73.57-26.22-113.95-17.03-41.85,9.52-77.4,34.07-118.12,46.1-34.24,10.12-72.48,9.3-107.73,16.94-34.84,7.55-73.11,18.83-108.87,11.79-33.35-6.57-61.05-27.71-92.07-40.29-38.95-15.8-82.64-15.42-124.05-15.83-25.56-.25-51.13,.02-76.69-.24-20.83-.21-41.04-2.19-61.22,4.01-32.89,10.1-59.62,32.57-95.37,33.31-40.82,.84-78.63-16.54-117.98-24.49-46.86-9.46-88.54,3.41-133.24,16.43-46.49,13.55-91.02,13.02-139.01,13.02"/><path class="cls-1" d="M2174.86,403.62c-52.22,0-98.72-4.24-149.91-14.01-23.2-4.43-45.78-5.09-69.14-7.02-26.6-2.2-52.49-10.12-78.11-17.09-50.47-13.74-102.3-14.93-151.19-33.73-48.78-18.76-102.11-50.9-155.51-31.34-31.71,11.62-48.46,47.32-81.25,54.85-29.44,6.76-62.61-7.03-90.83-14.13-44.43-11.18-93.95-16.61-138.28-2.08-33.13,10.86-56.38,40.67-89.47,49.86-35.27,9.79-50.08-11.43-72.43-33.04-31.82-30.78-77.41-28.79-117.94-18.92-43.91,10.69-78.02,40.9-120.54,53.33-15.36,4.49-31.25,3.67-46.95,6.16-17.06,2.7-33.67,7.61-50.15,12.67-34.72,10.65-73.49,26.66-110.41,19.66-33.19-6.29-58.09-30.88-87.72-45.13-41.17-19.81-90.55-15.14-134.94-13.37-44.29,1.76-93.34-1.56-136.83,6.9-32.08,6.24-58.82,25.06-92.34,26.2-36.11,1.23-70-11.53-104.59-19.76-45.57-10.84-87.31-4.43-132.42,5.95-48.23,11.1-92.53,14.05-141.85,14.05"/><path class="cls-1" d="M2161.64,388.2c-51.51,0-98.99-5.56-149.69-13.83-21.95-3.58-44.56-4.23-66.21-9.4-23.16-5.53-45.41-14.35-68.08-21.51-51.63-16.31-103.4-13.33-154.08-33.8-51.75-20.91-104.96-46.77-161.33-26.69-30.03,10.7-48.32,41.62-78.69,49.83-28.98,7.83-64.96-3.25-94.03-7.36-45.87-6.48-93.04-10.76-137.09,6.9-27.21,10.91-50.02,32.72-78.65,39.93-34.14,8.6-52.92-11.32-77.46-30.58-34.2-26.84-74.65-27.08-115.82-17.6-40.23,9.27-74.89,31.66-114.21,42.94-16.62,4.77-32.83,4.34-49.77,6.21-19.1,2.1-37.62,7.89-55.71,14.11-34.14,11.74-70.7,28.28-107.6,21.29-30.06-5.69-54.06-25.87-80.65-39.48-42.89-21.97-91.52-17.84-138.26-14.73-43.85,2.91-89.77,2.26-133.19,8.42-29.62,4.2-57.14,16.39-87.09,19.31-36.99,3.6-73.63-4.93-109.7-11.89-43.7-8.43-82.56-7.63-126.22,1.41-48.56,10.06-93.07,16.51-142.72,16.51"/><path class="cls-1" d="M2149.09,373.55c-47.52,0-93.96-2.89-141-9.72-48.6-7.05-85.25-32.5-130.3-49.86-28.06-10.81-54.97-11.73-84.53-14.63-25.55-2.5-49.56-11.75-73.57-20.32-56.47-20.16-113.83-33.84-173.31-16.61-31.37,9.09-56.4,31.81-88.68,38.06-26.85,5.2-54.81,8.38-81.91,12.5-38.19,5.81-77.26,4.37-114.51,15.59-26.17,7.88-50.53,22.05-77.76,26.26-34.79,5.38-60.92-9.66-91.34-23.82-38.16-17.76-74.17-20.4-115.85-15.01-37.53,4.86-74.02,15.89-111.65,19.89-38.61,4.11-71.75,2.81-108.66,17.6-33.25,13.33-65.96,30.27-102.9,24.47-31.21-4.9-57.8-23.29-86.44-35.25-77.21-32.26-166.81,5-246.83,7.03-72.32,1.83-144.16,2.41-216.54,1.5-40.49-.51-79.55-.95-119.6,6.28-45.72,8.26-89.03,16.03-135.66,16.03"/><path class="cls-1" d="M2137.16,359.63c-44.89,0-91.1,1.8-135.57-5.64-46.79-7.82-79.04-53.74-122.74-71.43-26.92-10.9-53.84-10.79-82.19-13.3-24.78-2.19-48.74-10.63-72.49-17.45-59.59-17.12-120.41-23.72-182.2-15.12-35.05,4.88-68.31,18.36-102.21,27.94-27.08,7.66-48.64,23.57-72.78,37.32-31.15,17.75-61.59,18.65-96.33,24.47-25.42,4.26-50.44,10.34-76.3,11.48-37.12,1.64-70.56-7.15-106.11-16.53-39.52-10.42-76.65-11.61-117.3-12.26-34.37-.55-68.67-2.3-102.94-4.86-39.98-2.99-74.7-5.06-112.18,11.64-32.31,14.4-60.77,33.72-97.75,30.63-32.84-2.74-62.32-18.56-92.98-29.2-42.55-14.75-85.41-11.38-128.62-.46-33.6,8.5-66.3,22.68-101.5,21.97-32.67-.65-64.44-10.48-96.79-14.14-45.72-5.17-92.11-4.43-137.1,5.6-35.21,7.85-69.9,8.13-105.48,13.24-45.56,6.54-89.27,16.07-135.51,16.07"/><path class="cls-1" d="M2125.81,346.4c-39.65,.23-90.68,9.86-129.16-2.81-18.52-6.09-31.78-23.72-45.09-37.22-21.98-22.29-45.05-42.23-75.3-52.43-27.64-9.32-55.94-6.65-84.27-10.24-21.96-2.79-43.33-9.1-64.82-14.16-66.28-15.61-135.88-19-203.71-13.6-32.91,2.62-69.9,8.83-100.64,21.49-28.92,11.9-47.3,39.77-69.62,60.34-38.95,35.89-105.94,25.88-155.66,24.4-38.23-1.13-75.11-5.19-112.96-10.77-38.83-5.72-78.01-4.73-116.64-10.06-70.42-9.72-142.02-48.81-211.94-16.51-31.14,14.39-56.53,36.86-92.7,35.97-33.82-.83-65.67-15.4-97.57-25-43.19-13.01-87.67-11.74-130.49,3.09-29.09,10.07-56.38,29.32-88.15,29.46-34.56,.15-65.78-18.98-98.96-25.99-45.95-9.71-100.92-11.75-145.21,6.36-13.38,5.47-25.62,13.45-39.78,16.96-20.13,4.99-42.61,3.05-63.17,5.58-42.96,5.3-84.97,14.66-128.43,15.15"/><path class="cls-1" d="M2115.05,333.83c-26.52,.49-53.08,2.19-79.61,1.96-13.99-.12-30.78,.77-43.69-5.7-18.8-9.42-32.37-31.34-46.36-46.27-20.62-22-43.14-38.66-72.46-47.14-29.56-8.55-59.65-4.16-89.53-9.29-21.9-3.76-43.25-10.35-64.94-15.1-63.36-13.88-131.28-16.48-195.93-12.74-34.8,2.01-75.5,7.79-107.23,23.42-27.32,13.46-44.15,41.64-64.25,63.27-38.09,41-106.07,23.85-156.6,22.54-40.24-1.05-79.43-5.18-119.37-10.17-34.07-4.26-68.94-3.4-102.73-8.38-73.92-10.9-142.72-57.17-217.9-20.99-30.89,14.87-55.16,37.1-91.4,35.96-33.88-1.06-66.4-15.4-98.66-24.29-41.88-11.55-85.17-10.94-126.46,3.48-28.66,10-53.46,30.09-84.6,31.87-33.67,1.92-60.96-16.4-92.12-25.53-46.2-13.53-106.34-17.31-152.01,.09-13.81,5.26-25.53,14.66-39.3,19.84-18.73,7.05-39.5,4.67-59.06,6.6-43.03,4.23-85,14.62-128.31,16.55"/><path class="cls-1" d="M2104.91,321.93c-36.46,.31-90.38,8.17-124.17-9.53-20.3-10.63-35.73-31.54-52.46-46.83-19.83-18.12-42.23-33.07-68.47-40.08-27.53-7.37-55.74-2.61-83.08-10.44-21.92-6.28-42.67-16.22-64.43-23.06-63.08-19.83-138.44-24.53-203.26-10.47-33.37,7.24-72.71,19.43-103.07,35.01-24.48,12.56-38.62,36.83-57.65,55.61-21.11,20.83-48.41,21.54-76.66,24.3-27.5,2.69-54.97,3.05-82.57,2.67-40.94-.57-78.82-9.15-118.59-18.34-35.33-8.16-69.51-9.45-105.08-14.29-71.76-9.77-138.54-37.38-209.46-4.28-29.38,13.71-54.98,33.39-88.78,33.48-31.16,.08-61.37-10.84-91.14-18.61-42.98-11.22-84.22-13.36-127.5-.86-30.94,8.94-59.41,27.8-91.88,30.94-33.92,3.28-63.32-12.14-94.87-21.38-43.86-12.85-92.39-15.69-137.43-7.7-17.9,3.18-34.53,9.95-52.09,14.32-18.19,4.53-35.95,3.96-54.41,5.6-42.24,3.75-82.58,18.71-124.77,23.33"/><path class="cls-1" d="M2094.77,310.11c-38.86-1.15-96.25,3.17-131.3-16.97-43.9-25.22-71.87-68.3-124.65-78.27-23.9-4.52-45.64-1.48-68.22-12.57-23.96-11.76-45.42-27.46-70.13-37.9-63.45-26.8-139.86-27.74-203.46-.98-21.22,8.93-40.73,21.05-61.22,31.41-12.99,6.57-27.15,9.88-40.16,16.13-20.99,10.06-32.24,28.81-49.34,43.39-21.26,18.12-52.67,19.79-79.09,25.3-28.93,6.04-58.05,11.03-87.68,11.49-41.5,.65-79.08-16.64-117.11-31.27-38.11-14.66-71.55-20.05-111.85-23.16-63.51-4.9-127.65-8.08-187.8,17.92-31.61,13.67-60.14,33.03-95.7,33.86-29.67,.7-59.08-7.99-87.78-14.28-38.98-8.55-76.36-10.68-115.77-2.28-34.18,7.28-66.3,23.63-101.03,28.23-33.8,4.47-64.49-6.05-96.46-15.04-43.59-12.27-88.62-15.61-133.78-15.03-36.76,.48-74.44,2.6-111.07,5.48-41,3.22-78.87,23.29-118.68,32.26"/><path class="cls-1" d="M2084.57,298.09c-27.36-2.14-54.53-5.34-81.7-9.15-19.19-2.69-39.05-3.72-56.5-12.86-43.19-22.63-73.59-63.64-124.95-69.82-24.3-2.92-40.18-4.51-60.58-20-23.12-17.57-43.5-37.15-69.55-50.69-66.47-34.56-140.91-26.45-203.83,11.42-22.05,13.27-42.06,29.65-64.13,42.85-12.79,7.65-26.45,11.04-39.94,16.8-16.6,7.09-25.67,20.68-40.11,30.38-22.69,15.25-56.31,18.65-82.22,26.67-29.86,9.24-60.91,19.27-92.43,20.24-41.68,1.29-80.04-26.06-115.17-45.24-38.12-20.81-68.82-31.49-112.29-31.22-27.19,.17-51.29,3.76-77.32,11.47-32.92,9.76-66.7,17.08-98.35,30.58-31.79,13.56-61.76,30.69-97.09,32.3-28.22,1.28-56.42-4.75-84.07-9.43-36.51-6.18-72.22-8.29-109.01-2.37-36.77,5.91-71.97,19.58-108.92,24.3-33.69,4.31-65.73-2.09-98.28-10.03-40.75-9.95-81.94-14.39-123.42-20.11-39.93-5.5-81.45-13.02-121.9-11.11-40.13,1.89-75.41,26.46-112.19,40"/><path class="cls-1" d="M2074.75,285.99c-27.9-3.5-55.58-8.33-83.41-12.32-20.73-2.97-41.25-3.11-60.46-12.45-42.85-20.84-73.73-58.14-123.67-62.93-52.7-5.06-80.51-64.81-124.52-89.85-70.43-40.08-142.67-19.63-204.15,26.09-22.35,16.62-42.81,36.28-66.37,51.22-12.4,7.86-25.33,10.78-38.88,15.59-12.56,4.45-20.57,13.49-32.08,19.39-25.84,13.25-58.22,18.39-85.59,28.93-30.26,11.65-63.15,26.05-96.09,27.02-42,1.23-80.81-34.65-113.39-56.98-37.56-25.75-66.84-40.66-113-37.82-27.83,1.71-46.33,10.9-70.46,23.52-30.3,15.85-63.03,25.23-94.37,38.64-31.92,13.65-63.2,28.72-98.42,30.78-27.11,1.58-54.43-2.41-81.26-5.66-34.13-4.13-68.15-6.15-102.42-1.99-38.81,4.71-76.46,16.14-115.26,20.83-33.96,4.1-67.56,.58-100.93-6.06-37.64-7.49-75.86-13-113.13-22.09-42.85-10.46-85.33-24.69-129.84-26.02-41.39-1.23-74.18,25.87-109.29,43.92"/><path class="cls-1" d="M2066.08,274.12c-27.9-4.61-55.68-10.54-83.76-13.95-21.89-2.65-42.71-1.82-63.12-11.31-42.44-19.75-72.31-52.82-120.52-58.89-26.02-3.28-40.04-22.63-56.04-41.57-19.4-22.98-38.43-44.88-64.83-60.22-72.94-42.39-143.03-13.82-202.99,35.48-22.47,18.47-43.21,40.16-67.85,55.82-13.51,8.58-26.52,10.37-41.3,15.39-9.36,3.18-16.96,8.68-26.07,12.28-29.39,11.61-59.95,19.08-89.25,31.72-30.02,12.95-63.85,29.76-97.3,29.91-42.36,.19-80.41-40.37-111.53-64.42-35.1-27.14-62.05-43.48-107.16-41.84-32.38,1.18-46.43,11.78-71.36,29.67-28.67,20.58-63.11,32.81-95.34,46.74-30.17,13.04-61.06,25.37-94.2,27.54-26.47,1.74-53.28-.97-79.65-3.2-33.79-2.85-67.65-5.23-101.49-1.64-39.82,4.23-78.81,14-118.59,18.52-65.37,7.42-137.6-5.31-200.41-23.53-46.54-13.5-90.58-33.28-139.49-37.19-44.43-3.56-73.64,20.94-109.26,43.42"/><path class="cls-1" d="M2058.04,263.01c-27.68-5.02-55.4-11.13-83.47-13.63-23.12-2.06-42.11-1.96-63.57-12.6-20.72-10.28-39.05-24.68-58.96-36.35-20.16-11.82-38.36-14.79-60.38-20.17-22.13-5.41-36.82-26.33-50.7-42.74-21.81-25.78-44.1-49.67-75.02-64.59-74.93-36.17-139.61,.02-197.33,48.99-21.48,18.22-42.5,39.94-67.7,53.09-11.4,5.95-23.86,7.98-35.97,11.86-9.2,2.94-17.53,7.47-26.57,10.79-30.11,11.06-60.15,20.07-89.71,32.95-29.78,12.96-63.18,29.23-96.45,28.86-42.46-.47-80.22-40.53-111.64-64.73-37.2-28.65-65.76-43.85-113.42-41.26-29.39,1.59-42.45,13.02-64.89,29.59-26.7,19.71-58.59,32.42-88.83,45.73-31.63,13.92-64.56,26.65-99.38,28.95-26.39,1.74-53.27-1.26-79.57-3.29-31.23-2.41-62.56-4.33-93.81-1.25-40.13,3.95-79.6,12.76-119.61,17.67-68.07,8.35-139.88-3.18-205.28-22.68-43.79-13.06-85.25-32.32-131.17-37.39-46.47-5.14-75.47,13.73-113.01,38.34"/><path class="cls-1" d="M2050.07,252.61c-25.31-4.62-50.66-9.87-76.35-11.93-25.7-2.06-45.62-3.11-68.91-15.32-19.86-10.41-37.9-23.96-57.72-34.47-19.73-10.45-41.45-11.42-61.15-20.27-21.67-9.74-37.32-31.59-53.28-48.41-21.05-22.18-44.17-42.77-72.6-54.97-70.06-30.07-129.41,2.7-183.53,46.95-22.58,18.46-44.58,39.74-70.46,53.7-14.21,7.67-29.55,10.83-44.8,15.49-10.47,3.2-20.72,7.06-31.15,10.4-30.84,9.9-60.4,21.11-90.28,33.66-27.28,11.46-57.65,24.37-87.86,23.58-42.25-1.1-80.6-38.33-113.42-61.41-36.88-25.94-66.61-41.38-112.43-38.49-26.36,1.66-41.32,10.68-62.16,25.29-28.21,19.77-60.45,33.37-91.94,47.04-30.18,13.11-61.52,24.88-94.57,27.67-26.65,2.25-53.82-.78-80.43-2.59-72.75-4.96-140.87,9.01-212.77,17.59-67.89,8.1-134.74-4.76-200.15-22.82-42.55-11.75-82.73-30.75-126.72-37.22-47.12-6.93-78.25,7.19-117.68,30.95"/><path class="cls-1" d="M2042.68,242.79c-25.19-4.52-50.3-9.12-75.88-10.7-22.74-1.4-40.66-3.77-61.24-13.84-19.45-9.52-37.17-22.15-56.5-31.89-21.47-10.82-47.41-12.76-67.72-24.97-21.7-13.05-38.73-34.03-57.3-50.85-23.04-20.87-48.65-38.93-78.72-48.08-69.13-21.05-123.55,17.62-175.24,58.9-34.42,27.48-65.38,48.03-107.88,59.49-14.35,3.87-28.73,7.54-42.98,11.78-54.53,16.22-114.43,56.31-172.98,50.71-39.89-3.81-78.05-36.09-110.74-56.42-36.87-22.93-67.9-37.26-111.88-34.74-25.46,1.46-41.32,9.55-62.28,22.88-28.56,18.16-59.89,31.9-91,45.11-28.71,12.19-58.62,23.21-89.87,26.31-28.36,2.81-57.19-.43-85.55-1.91-70.36-3.68-137.89,11.45-207.42,19.63-69.37,8.16-134.77-7.62-201.3-26.13-38.91-10.83-75.91-27.71-115.89-34.74-46.63-8.2-80.34,1.9-121.29,23.38"/><path class="cls-1" d="M2035.8,233.51c-44.51-7.71-93.32-3.93-134.39-24.07-18.95-9.29-36.61-20.96-55.84-29.73-20.56-9.37-43.57-12.46-63.01-23.86-50.37-29.54-82.35-77.2-141.91-92.34-67.66-17.2-118.08,20.79-169.27,59.53-34.85,26.37-68.61,46.69-111.23,57.02-16.51,4-33.21,7-49.58,11.58-53.29,14.9-107.83,50.61-164.95,44.38-40.82-4.45-78.26-31.81-113.48-50.83-37.02-19.99-69.09-32.66-111.58-30.65-23.96,1.13-41.6,8.39-62.04,20.14-27.32,15.71-56.08,28.66-85.07,40.96-30.5,12.94-62.14,24.35-95.36,27.42-26.87,2.48-54.27-.26-81.16-1.31-67.56-2.63-133.18,12.82-199.94,20.86-71.92,8.66-133.78-8.81-202.59-27.54-37.63-10.25-73.68-26.15-112.02-33.8-45.34-9.04-81.5-2.05-123.26,16.42"/><path class="cls-1" d="M2029.33,224.71c-42.02-6.92-87.67-2.8-126.84-20.93-18.75-8.68-36.38-19.6-55.27-28.02-21.31-9.5-44.75-13.39-64.81-25.52-49.99-30.25-88.64-75.04-148.68-86.59-65.91-12.67-114.35,27.04-164.42,63.13-35.36,25.49-71.1,43.91-113.8,53.02-18.46,3.94-37.14,6.53-55.39,11.48-52.89,14.35-102.62,45.79-159.34,37.3-77.75-11.64-136.47-73.54-218.11-71.95-54.85,1.07-102.67,36.78-152.16,57.22-29.28,12.09-59.64,22.52-91.35,25.62-25.77,2.52-51.96,.26-77.78-.44-69.33-1.88-136.85,15.67-205.47,23.29-69.32,7.71-126.71-10.79-192.55-29.7-38.68-11.11-76.63-26.8-116.18-34.52-41.85-8.18-78-3-117.74,11.6"/><path class="cls-1" d="M2023.17,216.31c-41.72-6.45-84.99-2.5-124.1-20.1-18.88-8.49-36.84-18.85-55.94-26.88-22.58-9.49-45.38-15.28-66.29-28.48-47.33-29.86-89.33-67.98-146.63-76.89-60.7-9.44-105.25,24.52-152.32,57.36-37.63,26.26-76.1,46.9-121.27,56.1-22.44,4.57-45.15,6.96-67.29,13.04-50.88,13.96-94.26,39.73-148.74,31.31-77.11-11.91-139.99-65.77-220.38-64.32-53.32,.96-98.28,31.54-146.41,51.44-29.47,12.19-59.89,22.75-91.76,26.24-27.52,3.01-55.39,.67-83,.26-65.49-.98-129.55,17.37-194.42,24.59-33.64,3.74-66.13,5.59-99.52-1.48-34.29-7.26-67.04-20.25-100.47-30.5-35.84-10.99-71.51-24.78-108.2-32.59-40.51-8.62-77.5-5.23-116.91,6.8"/><path class="cls-1" d="M2017.19,208.25c-41.01-5.9-82.4-2.43-121.03-19.18-41.36-17.94-86.54-34.02-124.63-57.9-46.94-29.44-93.23-65-150.38-70.04-57.91-5.11-101.35,30.97-146.96,61.11-37.74,24.94-77.44,44.37-122.13,52.49-22.81,4.15-45.89,6.24-68.32,12.38-50.52,13.84-90.01,37.34-144.1,27.71-77.53-13.8-144.3-61.5-225.18-58.76-51.15,1.73-94.87,29.56-141.18,48.53-29.44,12.06-59.93,22.37-91.71,25.82-26.06,2.82-52.46,.67-78.6,.3-67.11-.93-132.33,19.53-198.93,26.35-31.07,3.18-61.26,5.23-92.12-1-34.8-7.03-67.73-20.76-101.39-31.69-74.6-24.24-143-49.91-221.81-29.56"/><path class="cls-1" d="M-384.95,711c68.81-82.93,137.61-165.87,206.42-248.8,31.85-38.39,63.84-76.65,94.8-115.76,22.62-28.58,30.22-54.5,39.26-89.28,5.53-21.28,12.62-36.9,31.85-48.89,17.56-10.95,36.77-15.98,53.34-28.74"/><path class="cls-1" d="M-326.13,711c65.88-82.92,132.52-165.3,197.67-248.8,31.15-39.92,61.18-80.73,91.95-120.96,23.96-31.33,23.87-62.65,30.38-100.2,3.94-22.76,11.19-34.54,33.97-41.06,19.37-5.55,36.51-5.29,52.48-18.66"/><path class="cls-1" d="M-267.31,711c64.38-84.78,135.56-167.36,188.52-259.9,13.61-23.79,31.78-40.25,49.08-61.1,15.75-18.98,30.95-39.64,45.14-59.78,22.06-31.32,10.44-71.22,29.92-103.11,16.46-26.94,54.87-14.54,70.91-38.54"/><path class="cls-1" d="M-208.49,711c33.44-46.17,67.27-92.07,100.58-138.32,32.69-45.4,50.93-98.18,78.27-146.41,12.21-21.54,32.31-28.71,49.68-44.7,14.3-13.17,28.05-32.66,37.32-49.99,15.32-28.62,13.06-67.31,35.41-91.96,16.46-18.15,47.2-20.19,59.73-40.1"/><path class="cls-1" d="M-149.68,711c18.11-26.28,35.65-52.93,53.7-79.24,13.53-19.73,31.39-36.67,43.52-57.31,13.84-23.56,18.11-51.8,29.88-76.41,13.6-28.44,23.6-64.48,42.32-90.12,12.38-16.97,31.11-13.86,46.81-24.94,20.22-14.28,20.83-44.54,21.91-66.52,2.78-56.45,72.55-68.65,104.56-103.99"/><path class="cls-1" d="M-89.51,709.31c20.05-30.67,35.01-66.43,57.68-95.08,12.8-16.18,30.99-24.07,39.2-43.85,11.33-27.29,6.93-55.28,21.74-81.78,13.31-23.83,22.04-57.15,40.82-77.4,11.92-12.86,30.75-8.59,42.97-19.68,17.41-15.78,7.44-58.24,8.61-79.44,2.07-37.64,28.13-36.94,57.65-45.9,13.1-3.98,18.27-13.26,28.69-21.24,8.55-6.54,18.22-10.5,25.17-19.1"/><path class="cls-1" d="M-24.67,701.65c10.77-18.75,20.57-37.9,30.22-57.25,7.14-14.3,14.31-38.19,27.04-49.32,14.03-12.27,24.18-3.04,31.35-26.2,8.53-27.56,9.49-51,26.27-75.54,13.9-20.34,15.18-48.44,30.34-67.22,10.01-12.4,28.24-12.19,37.84-24.78,8.1-10.61,6.56-29.75,8.49-41.84,3.34-21.01,6.94-44.39,18.82-62.48,7.23-11.01,17.19-19.62,30.39-21.89,5.23-.9,9.88,.84,14.86-1.5,6.19-2.91,9.16-13.78,15.7-18.22,8.92-6.07,19.17-6.62,26.5-15.52"/><path class="cls-1" d="M38.67,695.9c10.71-20.78,20.34-41.75,29.49-63.27,3.33-7.83,11.29-35.83,20.35-42.52,4.35-3.22,10.3-2.82,14.99-5.36,8.81-4.77,12.6-11.63,16.88-20.34,6.2-12.62,11.27-25.69,19.01-37.52,6.84-10.46,17.76-19.67,23.48-30.79,9.27-18.02-.4-39.07,8.66-56.5,7.28-14,23.18-20.59,32.2-33.37,20.4-28.89,25.6-67.35,44.5-97.65,6.72-10.77,15.51-17.92,22.22-26.92,6.89-9.23,4.62-13.69,16.38-19.46,9.74-4.78,18.68-1.17,26.89-11.32"/><path class="cls-1" d="M94.86,699.25c8.75-21.1,14.6-41.82,19.98-64.06,3.39-14.01,5.02-34,15.96-44.97,6.45-6.47,17.92-8.31,25.61-12.96,10.35-6.27,15.89-13.33,22.71-22.85,12.6-17.61,42.77-34.32,47.95-56.01,5.06-21.18-13.05-39.04-5.31-61.78,4.62-13.57,14.32-25.32,20-38.56,12.19-28.43,28.43-53.55,46.23-78.64,7.38-10.39,12.39-20.89,18.52-31.93,6.32-11.37,7.05-15.59,19.59-20.57,11.93-4.74,17.39-.59,27.67-11.84"/><path class="cls-1" d="M147.34,707.22c6.16-22.28,8.69-43.57,11.56-66.52,2.12-16.96,1.87-34.71,16.23-45.98,21.13-16.56,42.56-20.76,59.38-43.02,13.49-17.86,34.95-34.18,37.41-58.18,2.96-28.96-8.7-54.63-.63-84.12,1.65-6.03,4.5-11.66,5.2-17.91,.4-3.56-3.7-1.3-2.15-6.89,6.99-25.1,30.84-37.86,47.25-55.88,10.31-11.32,17.5-26.17,25.33-39.51,6.08-10.36,8.59-17.23,19.22-22.84,8.21-4.34,16.02-.17,19.43-12.86"/><path class="cls-1" d="M203.24,711c5.88-20.68,7.23-40.6,8.97-61.83,1.34-16.37,1.86-30.32,14.3-42.14,23.59-22.39,54.01-27.15,66.67-60.47,9.62-25.32,14.9-56.59,16.87-83.52,1.19-16.28,1.51-32.6,3.73-48.8,1.94-14.13,8.82-29.09,9.19-42.97-3.4,1.62-6.65,3.9-9.42,6.58-.48-13.58,17.56-22.88,28.02-30.44,7.74-5.59,15.56-10.78,21.67-18.23,6.53-7.98,8.33-16.79,13.6-25.52,6.65-11.01,16.84-19.9,24.86-29.94,5.48-6.86,7.9-8.55,14.65-13.48,6.5-4.76,11.72,1,14.79-11.23"/><path class="cls-1" d="M262.07,711.03c3.72-18.39,1.37-33.39-1.62-51.5-2.85-17.22-4.68-26.25,8.93-38.86,27.27-25.26,70.82-28.14,74.17-71.46,1.41-18.29-.93-36.7,.08-55,.86-15.7,5.77-30.42,9.13-45.72,3.45-15.76,7.21-30.79,14.4-45.42,3.09-6.29,20.37-26.8,18.06-31.9-8.15,5.74-15.69,9.97-10.81-4.22,3.6-10.47,15.87-21.74,20.78-32.02,4.73-9.89,5.53-20.76,9.56-30.77,8.57-21.28,28.23-20.7,43.97-34.68,6.22-5.52,8.99-12.37,16.2-16.44,7.44-4.2,13.14,.55,17.05-11.58"/><path class="cls-1" d="M320.84,711.04c.62-29.51-33.77-60-4.74-82.97,22.55-17.84,73.31-30.31,79.06-62.39,6.42-35.85-19.94-79.88-1.41-112.84,6.33-11.25,13.71-22.25,21.05-32.84,6.61-9.52,21.48-21.03,24.49-31.83,.84-3.02-1.07-8.19-.82-9.04,.73-2.49,3.5-3.08,3.91-6.65,1.34-11.61,5.65-21.83,5.69-34.26,.04-12.56-2.97-25.2-2.61-37.67,1.03-35.67,25.14-23.04,49.3-34.58,7.94-3.79,14.09-13.49,19.76-19.8,5.8-6.44,11.68-1.63,14.21-14.96"/><path class="cls-1" d="M379.66,711.03c-.62-31.83-32.21-67.89-1.91-93.56,19.32-16.37,64.95-20.79,65.53-51.1,.44-23.14-8.07-48.02-12.35-70.81-3.14-16.7-11.49-37.71-.29-52.51,11.95-15.79,29.83-26.54,41.33-42.54,9.99-13.9,26.01-14.67,36.13-27.45,14.81-18.71-2.78-59.03,.07-81.51,1.12-8.82,1.37-20.29,10.76-24.5,7.4-3.31,16.02,1.87,23.32-2.35,6.89-3.98,20.65-31.34,22.08-39.29"/><path class="cls-1" d="M438.5,710.99c1.74-30.05-20.05-87.5,2.8-110.67,19.5-19.78,52.83-.65,50.34-37.28-1.82-26.78-7.37-53.19-8.63-80.05-.67-14.39-3.27-31.03,5.3-43.22,6.84-9.74,16.48-16.34,23.45-26.08,11.21-15.64,31.29-14.43,42.82-27.78,18.44-21.37-1.8-66.96,.4-92.14,1.95-22.38,12.42-14.69,24.91-25.34,7.74-6.6,15-34.15,17-44.15"/><path class="cls-1" d="M497.33,710.96c2.65-26.61,.39-51.7,.2-78.43-.08-11.88-3.98-36.78,6.67-44.4,20.13-14.41,39.75,12.88,43.23-24.58,2.34-25.13-1.11-51.6-1.21-76.76-.05-12.27-1.43-27.25,4.04-38.49,3.28-6.73,8.7-14.27,12.64-20.64,8.62-13.94,21.59-10.3,31.19-20.77,7.55-8.23,5.44-27.86,5.41-36.93-.07-20.43-2.12-41.38,.77-61.68,2.23-15.66,10.19-22.4,16.81-35.27,6.75-13.14,10.38-33.36,13.81-47.83"/><path class="cls-1" d="M556.27,708.36c2.1-24.29,1.2-47.96,1.89-72.31,.33-11.86-1.38-29.4,8.14-37.71,6.5-5.68,15.03-3.73,21.9-7.76,12.48-7.32,12.98-15.23,13.72-29.92,1.91-38.12-7.5-85.05,10.05-121.47,5.87-12.18,12.82-5.83,20.83-13.17,6.09-5.58,5.36-23.26,6.12-31.07,2.26-23.19,2.76-46.72,6.24-69.78,5.1-33.84,16.75-66.78,25.05-99.92"/><path class="cls-1" d="M615.59,699.7c4.16-25.53,1.64-56.77,12.6-80.59,9.46-20.55,24.94-27.65,27.6-52.26,2.67-24.69-1.6-49.36,1.74-74.13,1.98-14.71-2.23-34.73,3.43-48.54,4.69-11.45,8.66-5.48,16.66-11.16,7.59-5.39,5.7-29.97,6.51-38.29,2.09-21.5,3.42-43.05,5.31-64.57,3.28-37.44,13.78-73.82,20.77-110.68"/><path class="cls-1" d="M674.71,694.09c4.61-23.38,7.17-48.73,15.07-71.21,7.19-20.46,19.5-35.76,19.29-58.41-.34-37.53-11.65-81.17,2.1-117.99,3.78-10.13,11.21-13.68,16.03-22.75,5.37-10.1,3.4-25.53,3.4-36.66,.01-26.76-1.46-53.49-1.96-80.24-.36-19.04,4.22-31.83,10.83-49.06,6.29-16.35,7.57-32.71,10.13-49.96"/><path class="cls-1" d="M733.53,694.06c3.72-22.98,5.88-47.03,11.82-69.54,4.9-18.59,14.29-33.38,11.61-53.15-3.52-25.98-19.3-61.73-12.57-87.06,3.3-12.41,12.87-22.69,17.66-34.54,4.96-12.24,12.24-25.98,15.9-38.67,4.59-15.93,1.18-33.34-.44-49.51-2.69-26.92-6.84-53.87-8.39-80.87-1.01-17.54,5.57-26.37,11.83-41.68,6.1-14.91,6.61-31.36,8.68-47.26"/><path class="cls-1" d="M792.35,694.06c3.08-24.27,5.23-48.84,9.44-72.94,2.57-14.7,6.54-28.08,5.31-43.18-1.68-20.51-5.05-40.95-7.13-61.44-1.08-10.65-6.56-34.19-.56-45.26,4.39-8.09,9.47-9.42,12.96-19.02,6.1-16.83,13.13-36.59,16.59-54.2,7.48-38.05-6.16-80.38-5.77-118.9,.2-19.62,3.19-39.35,5.93-58.84,2.34-16.62,.26-30.44,1.08-46.66"/><path class="cls-1" d="M851.31,694.4c3.45-33.43,4.83-66.25,10.29-99.4,4.43-26.86,4-54.08,4.28-81.2,.17-16.68,6.66-42.94,1.39-58.56-.08,.42-.19,.83-.35,1.23-3.84-16.41,3.08-34.68,5.95-50.74,6.23-34.87,4.11-69.2,5.44-104.41,.6-15.88,3.66-31.54,3.07-47.35-.61-16.5-5.32-32.75-7.54-49.07-1.48-10.83-.69-23.39-4.63-33.16-2.59-6.43-10.31,2.85-7.51-10.79"/><path class="cls-1" d="M912.88,701.25c-1.37-25.15-14.26-51.99-10.68-76.96,2.77-19.31,19.08-32.74,21.66-52.2,4.55-34.33-13.13-70.74-15.48-104.84-.42-6.03-3.28-15.9,1.92-20.86,3.18-3.04,8.49-.17,11.67-2.76,9.64-7.83,2.51-33.39,2.46-44.48-.11-23.49,1.86-46.96,1.59-70.13-.24-20.55,3.85-43.09-1.54-62.29-6.42-22.85-14.61-45.21-21.71-67.85-4-12.76-11.1-28.11-9.38-41.64-1.47,1.16-4.06,1.88-5.63,2.76,.31-1.98,.62-3.97,.93-5.95"/><path class="cls-1" d="M974.99,709.47c-3.87-18.39-10.49-33.8-17.54-51.24-5.03-12.44-14.01-29.76-9.38-43.85,6.64-20.18,33.68-31.91,36.82-53.56,2.2-15.15-9.65-33.9-15.44-47.57-6.34-14.98-20.2-38.08-22.15-54.76-2.8-24.02,13.21-17.32,29.41-26.31,16.03-8.89,7.75-41.15,7.98-57.19,.24-17.07,4.22-41.31-3.34-56.9-2.1-4.33-6.74-7.05-8.75-11.46-3.87-8.52-4.72-26.28-7.03-34.2-11.82-40.48-23.51-81.06-34.79-121.51-3.58,2.49-7.3,4.61-11.22,6.37l-.16-5.84"/><path class="cls-1" d="M1033.72,710.99c-7.07-29.65-38.83-71.43-26.26-101.82,11.8-28.54,37.28-36.95,27.46-70.72-5.45-18.74-44.99-71.75-33.55-92.26,8.74-15.68,30.77-7.13,37.91-26.2,5.34-14.25,6.77-31.8,9.84-46.68,2.55-12.35,10.18-29.63,8.96-41.72-1.91-18.92-26.11-16.27-36.19-28.49-8.64-10.48-9.3-39.74-12.34-51.43-6.58-25.34-15.16-50.61-19.11-76.52-1.8-11.77,.62-15.97-11.78-17.07-6.39-.57-15.45,8.7-16.81-4.23"/><path class="cls-1" d="M1088.79,711c-4.26-29.83-20.57-61.89-17.28-92.42,2.69-24.89,20.15-50.86,8.78-75.6-9.52-20.7-45.33-47.59-33.21-72.12,9.54-19.33,40.06-16.38,47.08-39.29,3.44-11.21,1.73-24.77,1.83-36.34,.11-12.69,2.43-26.29,1.85-38.77-.78-16.65-10.41-28.11-17.22-43.23-5.65-12.56-8.19-26.03-13.13-38.96-7.74-20.25-18.84-40.44-24.3-61.52-3.32-12.83-1.65-19.53-11.14-27.93-6.67-5.9-14.69-3.56-15.3-16.2"/><path class="cls-1" d="M1144.48,711.01c-1.98-29.44-4.65-58.93-8.05-88.23-2.65-22.85,2.54-59.06-12.69-77.38-12.71-15.29-41.9-20.96-31.52-44.86,10.09-23.24,56-28.47,57.41-56.44,1.11-21.94-23.04-40.93-26.05-62.8-2.93-21.28,10.75-40.97,11.41-61.86,.89-28.07-25.84-43.12-37.32-66.55-5.36-10.94-5.59-22.79-10.42-33.92-5.05-11.63-9.27-17.28-12.05-30.21"/><path class="cls-1" d="M1203.11,711.01c-2.41-30.98,.37-62-6.41-92.56-4.21-19.01-6.52-49.85-16.87-66.31-9.94-15.8-49.76-29.52-34.39-51.86,11.6-16.86,52.56-30.57,53.59-53.55,.9-20.05-30.32-35.72-36.07-53.77-8.03-25.19,18.29-46.57,23.08-70.32,5.73-28.37-28.37-31.02-40.11-50.48-10.11-16.76-14.69-47.26-18.25-66.88"/><path class="cls-1" d="M1261.97,710.99c.98-28.91,17.69-67.54,2.49-94.57-10.89-19.37-20.69-33.7-27.96-55.09-6.1-17.94-13.7-35.4-21.42-52.7-4.88-10.92-12.61-21.9-10.56-34.15,2.23-13.3,17.19-22.61,17.69-36.48,.73-20.37-18.2-41.74-21.79-61.29-4.13-22.53,18.74-32.91,25.36-53.03,8.19-24.9-24.43-39-34.95-57.2-9.27-16.04-20.95-36.81-25.16-55.02"/><path class="cls-1" d="M1320.8,711c1.4-25.63,27.9-72.75,9.87-95.46-6.65-8.37-19.4-10.28-26.61-18.17-8.48-9.28-8.8-21.53-10.36-33.46-2.87-21.8-5.26-43.66-8.41-65.42-1.64-11.32-1.99-40.77-12.33-50.25-12.28-11.25-30.17-3.79-35.75-22.3-6.37-21.1,2.77-51.06,1.57-73.4-1.26-23.41,14.6-12.82,23.31-31.09,8.45-17.73-17.28-50.99-23.9-66.2-5.87-13.49-5.77-18.4-18.81-25.46-9.34-5.06-22.49-6.6-24.88-19.4"/><path class="cls-1" d="M1386.17,711.01c-2.46-26.08,.97-51.06,1.59-77.08,.48-20.31-5.85-24.26-19.9-36.61-16.56-14.57-16.38-18.7-15.9-42.18,.58-28.53,2.86-57.99,1.01-86.47-1.45-22.35-3.48-28.55-27.51-32.35-12.03-1.9-47.16,1.61-52.46-14.38-5.62-16.95,14.99-46.32,20.24-61.51,5.37-15.56,5.83-24.72,2.23-40.04,13.17,5.06-3.9-49.79-5.9-57.62-3.51-13.75-4.08-39.89-18.08-46.89-15.7-7.85-38.42,4.64-50.11-12.45"/><path class="cls-1" d="M1455.11,710.97c-11.28-38.19-13.67-81.65-28.74-118.45-7.73-18.87-19.8-32.45-23.63-52.86-2.89-15.37-5.31-31.01-6.86-46.59-1.09-10.95,2.74-30.89-3.85-40.89-10.96-16.66-45.62-11.09-53.1-29.58-3.74-9.26,6.58-32.9,9.31-40.48,4.2-11.65,15.77-32.53,15.55-45.44-.35-20.75-16.82-14.04-26.41-25.41-6.23-7.38-4.71-27.89-5.67-35.96-2.24-18.91-4.46-38.23-7.66-57.01-6.48-38.08-51.16-4.48-71.27-26.86"/><path class="cls-1" d="M1516.17,710.97c-13.52-43.83-28.29-87.26-41.74-131.11-6.55-21.34-11.41-48.07-25.11-65.91-13.19-17.17-30.2-25.47-29.91-49.61,.19-15.8,.48-23.48-4.71-38.74-8.54-25.11-.35-49.91-2.23-75.4-2.08-28.37-31.23-42.66-46.3-64.02-12.69-17.98-17.17-50.38-20.1-71.71-2.39-17.4-1.5-23.2-21.4-24.9-14.36-1.23-23.71-.09-35.42-10.09"/><path class="cls-1" d="M1566.3,710.99c-9-40.66-14.68-82.29-31.77-120.59-6.76-15.14-14.44-29.87-20.43-45.35-3.78-9.77-4.91-21.03-12.83-28.33-13.39-12.35-40.06-6.41-42.12-30.55-1.8-21.08,22.98-31.64,19.57-53.81-3.73-24.31-15.34-52.81-23.24-76.42-11.85-35.42-38.25-64.55-57.74-95.92-5.83-9.38-10.25-17.47-17.34-25.65-8.64-9.97-19.28-16.21-24.34-29.06-3.46-8.79-2.21-14.15-9.52-19.82-8.37-6.48-18.21,1.61-23.7-11.97"/><path class="cls-1" d="M1616.02,711.02c-5.17-36.57,2.16-69.05-18.22-101.72-11.28-18.08-24.25-35.06-35.24-53.33-5.1-8.49-9.39-25.79-17.18-32.69-15.07-13.34-37.54-3.16-38.13-30.56-.39-17.78,14.54-31.82,12.5-50.15-3.06-27.6-11.53-61.16-20.74-87.17-15.19-42.89-47.54-79.52-69.88-118.76-6.96-12.23-8.12-18.39-20.69-24.32-9.59-4.52-24.05-4.61-32.27-12.07-7.77-7.05-6.66-11.81-10.86-20.01-2.87-5.61-8-2.02-9.22-11.7"/><path class="cls-1" d="M1675.1,709.8c-7.48-30.74,4.5-60.88-14.47-88.21-15.09-21.74-33.92-40.73-49.65-62-8.11-10.97-14.04-27.42-24.07-36.34-12.7-11.3-25.74-8.49-32.82-26.98-5.71-14.91-5.12-30.12-8.01-45.59-7.22-38.64-6.28-82.34-19.14-119.41-11.76-33.91-35.23-65.78-52.93-96.87-8.5-14.94-14.01-29.45-28.75-39.12-9.18-6.02-22.45-7.36-30.73-13.98-6.52-5.21-5.38-8.87-10.16-13.52-4.62-4.49-9.77,2.02-12.29-8.55"/><path class="cls-1" d="M1739.62,704.77c-8.84-30.99,.76-70.6-18.86-97.37-20.09-27.41-48.61-48.01-68.75-75.79-17.77-24.5-45.24-39.96-65.33-61.86-20.24-22.06-15.86-71.31-18.21-97.77-1.73-19.46-2.13-44.2-8.58-63.1-3.62-10.59-10.52-21.13-15.4-31.11-14.63-29.88-32.06-58.36-45.6-88.55-6.05-13.49-13.21-26.2-22.39-37.83-5.92-7.5-13.94-13.86-17.9-22.1,.41,1.39,.68,3.11,1.22,4.43-.94-1.84-1.63-3.78-2.07-5.82"/><path class="cls-1" d="M1802.53,701.2c-7.08-25.61-8-51.49-11.01-77.78-1.91-16.69-3.01-30.44-14.4-43.03-19.94-22.02-44.42-38.33-63.8-61.5-9.8-11.72-20.05-23.04-30.7-33.99-6.63-6.81-15.6-20.1-23.5-25.01-7.63-4.75-15.85-.25-23.37-7.53-11.26-10.9-10.94-40.66-12.43-54.44-3.43-31.73-2.87-64.66-8.93-96.04-5.3-27.46-16.19-57.09-30.58-80.97-7.66-12.71-15.71-22.49-21.21-36.72-10.21-26.4-17.7-53.84-29.51-79.63-5.64-12.32-15.53-33.15-18.71-8.85-.38-1.27-.76-2.54-1.14-3.8"/><path class="cls-1" d="M1875.47,697.51c-12.16-22.97-19.53-46.93-25.31-72.23-4.31-18.84-5.26-38.26-17.25-53.98-8.51-11.16-21.6-17.87-31.39-27.69-8.97-9.01-14.99-19.11-21.55-29.93-8.84-14.58-17.48-29.25-27.63-42.98-5.06-6.84-20.62-31.49-28.88-33.91-9.1-2.66-10.02,3.95-18.71-4.03-10.34-9.5-14.11-31.51-17.44-44.1-6.49-24.57-10.02-49.94-17.19-74.32-9.51-32.31,2.52-65.95-6.68-97.96-4.01-13.95-12.92-27.15-18.24-40.63-12.44-31.49-21.91-64.35-36.95-94.79-5.63-11.4-12.57-30.31-28.09-22.96-6.21,2.94-8.97,14.75-15.82,6.07"/><path class="cls-1" d="M1964.25,689.76c-33.38-34.23-56.3-70.01-78.98-111.48-13.09-23.95-34.34-41.61-46.2-66.14-7.62-15.76-13.51-32.35-19.35-48.82-3.26-9.18-6.72-29.48-15.41-35.68-11.11-7.93-19.66,1.91-30.01-9.3-20.2-21.87-29.91-52-42.31-78.4-16.37-34.85-3.5-69.64-5.4-106.46-.92-17.89-9.69-33.14-15.67-49.84-9.76-27.24-17.14-55.24-26.65-82.56-6.07-17.45-12.83-31.72-32.07-36.08-12.07-2.73-23.1,2.93-32.14-9.03"/><path class="cls-1" d="M2035.56,686.57c-29.35-36.71-84.2-58.31-101-103.92-10.57-28.7-21.11-54.05-39.72-78.48-10.27-13.48-20.11-27.2-28.38-42.03-4-7.16-8.07-21.23-13.52-27.54-8.79-10.19-17.77-4.56-26.22-17.1-14.34-21.28-31.43-45.6-42.59-68.65-14.82-30.58-5.27-66.81-6.98-99.65-.92-17.73-7.68-27.28-16.14-42.27-10.85-19.23-19.46-39.6-26.49-60.52-5.72-17-10.45-34.42-23.62-47.44-10.29-10.17-22.63-16.92-32.77-27.62"/><path class="cls-1" d="M2068.56,695.87c-19.16-43.07-65.71-67.01-80.95-111.9-9.15-26.95-11.57-58.75-31.89-80.24-11.96-12.65-26.48-22.76-38.65-35.26-7.33-7.53-15.09-25.68-23.64-30.84-10.83-6.54-15.68,1.63-24.04-12.36-11.56-19.36-20.28-43.02-30.18-63.46-17.67-36.47,4.91-78.36-11.52-115.31-11.13-25.04-40.13-36.5-54.6-59.37-9.18-14.51-11.48-31.05-17.87-46.67-5.99-14.66-14.84-27.58-23.19-40.97"/><path class="cls-1" d="M2093.18,708.24c-12.21-35.84-38.61-63.75-51.9-99.12-12.03-32.01-15.56-68.62-35.4-97.08-10.17-14.59-23.47-26.6-36.1-38.98-8.15-7.99-17.79-24.51-27.34-30.22-12.66-7.56-20.63,5.78-30.75-9.48-5.5-8.29-6.23-19.5-8.71-28.88-3.49-13.18-9.38-24.2-14.19-36.74-13.29-34.7,9.08-73.19,5.75-108.89-3.39-36.27-61.49-43.6-84.77-65.19-17.23-15.98-20.55-43.76-29.5-64.48"/><path class="cls-1" d="M2144.22,711c-16.38-24.04-33.4-47.71-47.64-73.12-15.77-28.14-24.64-59.19-39.23-87.8-15.23-29.86-37.13-59.98-57.44-86.76-11.29-14.88-29.09-12.91-40.11-26.67-11.11-13.87-9.46-37.08-15.46-53.25-3.98-10.72-8.85-18.89-9.34-30.67-.8-19.16,3.81-38.23,4.14-57.37,.7-41.39-56.6-60.52-83.18-84.06-17.68-15.65-20.08-40.72-31.92-60.7"/><path class="cls-1" d="M2203.03,711c-32.48-45.33-67.99-89.71-97.01-137.36-16.06-26.38-31.53-53.34-48.16-79.34-11.92-18.63-29.98-31.09-42.63-48.86-12.38-17.39-13.05-36.79-21.2-55.6-4.56-10.54-12.56-18-15.54-29.24-2.23-8.41-1.77-18.38-3.05-26.95-6.39-42.8-47.86-66.3-76.86-93.82-20.85-19.79-19.57-44.88-30.77-69.81"/><path class="cls-1" d="M2261.85,711c-63.42-84.38-128.22-167.96-189.88-253.62-13.65-18.96-21.55-39.43-32.73-59.58-9.97-17.98-25.27-32.04-34.94-50.43-6.69-12.72-11.32-25.44-19.79-37.26-13.06-18.22-30.57-32.53-45.8-48.81-20.09-21.47-27.73-49.48-38.18-76.36"/><path class="cls-1" d="M2320.67,711c-65.25-82.93-130.46-165.9-195.75-248.8-29.66-37.66-57.15-76.56-87.06-114-20.63-25.83-39.34-55.57-58.84-82.78-16.73-23.34-33.16-46.51-47.41-71.48"/><path class="cls-1" d="M2379.49,711c-68.17-82.93-136.33-165.87-204.5-248.8-31.94-38.86-63.76-77.84-96.11-116.35-39.7-47.26-71.54-100.6-109.08-149.62"/></svg>