<?xml version="1.0" encoding="UTF-8"?><svg id="Photo" xmlns="http://www.w3.org/2000/svg" viewBox="0 0 970 300"><defs><style>.cls-1{fill:none;stroke:#000;stroke-linecap:round;stroke-linejoin:round;}</style></defs><polygon class="cls-1" points="150.58 151.85 146.87 157.84 139.88 158.68 134.86 153.73 135.6 146.72 141.54 142.93 148.21 145.21 150.58 151.85"/><polygon class="cls-1" points="239.33 155.58 229.9 167.27 214.88 167.19 205.58 155.4 209 140.78 222.57 134.33 236.07 140.92 239.33 155.58"/><polygon class="cls-1" points="303.92 169.61 294.33 152.54 301.7 134.4 320.47 128.85 336.52 140.07 337.75 159.61 323.25 172.76 303.92 169.61"/><polygon class="cls-1" points="447.79 167.21 424.71 180.13 400.22 170.14 392.76 144.76 407.95 123.1 434.35 121.48 452.09 141.11 447.79 167.21"/><polygon class="cls-1" points="578.74 175.84 545.89 190.43 514 173.85 507.09 138.58 530.35 111.18 566.28 112.28 587.82 141.06 578.74 175.84"/><polygon class="cls-1" points="734.66 188.76 689.1 204.7 648.22 179.02 642.82 131.05 676.95 96.91 724.92 102.32 750.61 143.19 734.66 188.76"/><circle class="cls-1" cx="875.3" cy="150.8" r="69.7"/></svg>