<?xml version="1.0" encoding="utf-8"?>
<!-- Generator: Adobe Illustrator 26.3.1, SVG Export Plug-In . SVG Version: 6.00 Build 0)  -->
<svg version="1.1" id="Layer_1" xmlns="http://www.w3.org/2000/svg" xmlns:xlink="http://www.w3.org/1999/xlink" x="0px" y="0px"
	 viewBox="0 0 512 512" style="enable-background:new 0 0 512 512;" xml:space="preserve">
<style type="text/css">
	.st0{fill:#231F20;}
</style>
<g>
	<path class="st0" d="M119.2,164.7H16.4c-4.6,0-8.3,3.7-8.3,8.3v330.2c0,4.6,3.7,8.3,8.3,8.3h102.8c4.6,0,8.3-3.7,8.3-8.3V173
		C127.4,168.4,123.7,164.7,119.2,164.7z"/>
	<path class="st0" d="M67.8,0.6C30.4,0.6,0,31,0,68.3c0,37.4,30.4,67.8,67.8,67.8s67.8-30.4,67.8-67.8C135.6,31,105.2,0.6,67.8,0.6z
		"/>
	<path class="st0" d="M380.6,156.5c-41.3,0-71.8,17.7-90.3,37.9V173c0-4.6-3.7-8.3-8.3-8.3h-98.4c-4.6,0-8.3,3.7-8.3,8.3v330.2
		c0,4.6,3.7,8.3,8.3,8.3h102.6c4.6,0,8.3-3.7,8.3-8.3V339.8c0-55.1,15-76.5,53.3-76.5c41.8,0,45.1,34.4,45.1,79.3v160.5
		c0,4.6,3.7,8.3,8.3,8.3h102.6c4.6,0,8.3-3.7,8.3-8.3v-181C512,240.2,496.4,156.5,380.6,156.5z"/>
</g>
</svg>
