<?xml version="1.0" encoding="utf-8"?>
<!-- Generator: Adobe Illustrator 26.3.1, SVG Export Plug-In . SVG Version: 6.00 Build 0)  -->
<svg version="1.1" id="Capa_1" xmlns="http://www.w3.org/2000/svg" xmlns:xlink="http://www.w3.org/1999/xlink" x="0px" y="0px"
	 viewBox="0 0 96 96" style="enable-background:new 0 0 96 96;" xml:space="preserve">
<style type="text/css">
	.st0{fill:#231F20;}
</style>
<g>
	<path class="st0" d="M84.1,31H11.7C5.2,31,0,36.2,0,42.7v41.6C0,90.8,5.2,96,11.7,96h72.4c6.5,0,11.7-5.2,11.7-11.7V42.7
		C95.8,36.2,90.6,31,84.1,31z M78.4,38.6L47.9,58.2L17.4,38.6H78.4z M84.1,88.4H11.7c-2.3,0-4.1-1.8-4.1-4.1V42.9l37.9,24.4
		c0,0,0.1,0,0.1,0.1c0,0,0.1,0,0.1,0.1c0.3,0.1,0.6,0.3,0.9,0.4c0,0,0,0,0.1,0c0.4,0.1,0.6,0.1,1,0.1l0,0l0,0c0.4,0,0.6,0,1-0.1
		c0,0,0,0,0.1,0c0.3-0.1,0.6-0.3,0.9-0.4c0,0,0.1,0,0.1-0.1c0,0,0.1,0,0.1-0.1l38.1-24.4v41.5C88.2,86.6,86.4,88.4,84.1,88.4z"/>
</g>
</svg>
